%TF.GenerationSoftware,KiCad,Pcbnew,8.0.7*%
%TF.CreationDate,2025-04-02T16:36:19-05:00*%
%TF.ProjectId,love-letters,6c6f7665-2d6c-4657-9474-6572732e6b69,rev?*%
%TF.SameCoordinates,Original*%
%TF.FileFunction,Legend,Top*%
%TF.FilePolarity,Positive*%
%FSLAX46Y46*%
G04 Gerber Fmt 4.6, Leading zero omitted, Abs format (unit mm)*
G04 Created by KiCad (PCBNEW 8.0.7) date 2025-04-02 16:36:19*
%MOMM*%
%LPD*%
G01*
G04 APERTURE LIST*
%ADD10C,0.100000*%
%ADD11C,0.200000*%
%ADD12C,0.150000*%
%ADD13C,0.106680*%
%ADD14C,0.098716*%
%ADD15C,0.120000*%
%ADD16C,0.127000*%
%ADD17C,0.504000*%
%ADD18C,0.140000*%
G04 APERTURE END LIST*
D10*
X98459027Y-69731808D02*
X98839979Y-69731808D01*
X98601884Y-70398475D02*
X98601884Y-69541332D01*
X98601884Y-69541332D02*
X98649503Y-69446094D01*
X98649503Y-69446094D02*
X98744741Y-69398475D01*
X98744741Y-69398475D02*
X98839979Y-69398475D01*
X99316170Y-70398475D02*
X99220932Y-70350856D01*
X99220932Y-70350856D02*
X99173313Y-70303236D01*
X99173313Y-70303236D02*
X99125694Y-70207998D01*
X99125694Y-70207998D02*
X99125694Y-69922284D01*
X99125694Y-69922284D02*
X99173313Y-69827046D01*
X99173313Y-69827046D02*
X99220932Y-69779427D01*
X99220932Y-69779427D02*
X99316170Y-69731808D01*
X99316170Y-69731808D02*
X99459027Y-69731808D01*
X99459027Y-69731808D02*
X99554265Y-69779427D01*
X99554265Y-69779427D02*
X99601884Y-69827046D01*
X99601884Y-69827046D02*
X99649503Y-69922284D01*
X99649503Y-69922284D02*
X99649503Y-70207998D01*
X99649503Y-70207998D02*
X99601884Y-70303236D01*
X99601884Y-70303236D02*
X99554265Y-70350856D01*
X99554265Y-70350856D02*
X99459027Y-70398475D01*
X99459027Y-70398475D02*
X99316170Y-70398475D01*
X100078075Y-70398475D02*
X100078075Y-69731808D01*
X100078075Y-69922284D02*
X100125694Y-69827046D01*
X100125694Y-69827046D02*
X100173313Y-69779427D01*
X100173313Y-69779427D02*
X100268551Y-69731808D01*
X100268551Y-69731808D02*
X100363789Y-69731808D01*
X100697123Y-70303236D02*
X100744742Y-70350856D01*
X100744742Y-70350856D02*
X100697123Y-70398475D01*
X100697123Y-70398475D02*
X100649504Y-70350856D01*
X100649504Y-70350856D02*
X100697123Y-70303236D01*
X100697123Y-70303236D02*
X100697123Y-70398475D01*
X100697123Y-69779427D02*
X100744742Y-69827046D01*
X100744742Y-69827046D02*
X100697123Y-69874665D01*
X100697123Y-69874665D02*
X100649504Y-69827046D01*
X100649504Y-69827046D02*
X100697123Y-69779427D01*
X100697123Y-69779427D02*
X100697123Y-69874665D01*
X102363789Y-70350856D02*
X102268551Y-70398475D01*
X102268551Y-70398475D02*
X102078075Y-70398475D01*
X102078075Y-70398475D02*
X101982837Y-70350856D01*
X101982837Y-70350856D02*
X101935218Y-70303236D01*
X101935218Y-70303236D02*
X101887599Y-70207998D01*
X101887599Y-70207998D02*
X101887599Y-69922284D01*
X101887599Y-69922284D02*
X101935218Y-69827046D01*
X101935218Y-69827046D02*
X101982837Y-69779427D01*
X101982837Y-69779427D02*
X102078075Y-69731808D01*
X102078075Y-69731808D02*
X102268551Y-69731808D01*
X102268551Y-69731808D02*
X102363789Y-69779427D01*
X103220932Y-70398475D02*
X103220932Y-69874665D01*
X103220932Y-69874665D02*
X103173313Y-69779427D01*
X103173313Y-69779427D02*
X103078075Y-69731808D01*
X103078075Y-69731808D02*
X102887599Y-69731808D01*
X102887599Y-69731808D02*
X102792361Y-69779427D01*
X103220932Y-70350856D02*
X103125694Y-70398475D01*
X103125694Y-70398475D02*
X102887599Y-70398475D01*
X102887599Y-70398475D02*
X102792361Y-70350856D01*
X102792361Y-70350856D02*
X102744742Y-70255617D01*
X102744742Y-70255617D02*
X102744742Y-70160379D01*
X102744742Y-70160379D02*
X102792361Y-70065141D01*
X102792361Y-70065141D02*
X102887599Y-70017522D01*
X102887599Y-70017522D02*
X103125694Y-70017522D01*
X103125694Y-70017522D02*
X103220932Y-69969903D01*
X103697123Y-70398475D02*
X103697123Y-69731808D01*
X103697123Y-69922284D02*
X103744742Y-69827046D01*
X103744742Y-69827046D02*
X103792361Y-69779427D01*
X103792361Y-69779427D02*
X103887599Y-69731808D01*
X103887599Y-69731808D02*
X103982837Y-69731808D01*
X104459028Y-70398475D02*
X104363790Y-70350856D01*
X104363790Y-70350856D02*
X104316171Y-70303236D01*
X104316171Y-70303236D02*
X104268552Y-70207998D01*
X104268552Y-70207998D02*
X104268552Y-69922284D01*
X104268552Y-69922284D02*
X104316171Y-69827046D01*
X104316171Y-69827046D02*
X104363790Y-69779427D01*
X104363790Y-69779427D02*
X104459028Y-69731808D01*
X104459028Y-69731808D02*
X104601885Y-69731808D01*
X104601885Y-69731808D02*
X104697123Y-69779427D01*
X104697123Y-69779427D02*
X104744742Y-69827046D01*
X104744742Y-69827046D02*
X104792361Y-69922284D01*
X104792361Y-69922284D02*
X104792361Y-70207998D01*
X104792361Y-70207998D02*
X104744742Y-70303236D01*
X104744742Y-70303236D02*
X104697123Y-70350856D01*
X104697123Y-70350856D02*
X104601885Y-70398475D01*
X104601885Y-70398475D02*
X104459028Y-70398475D01*
X105363790Y-70398475D02*
X105268552Y-70350856D01*
X105268552Y-70350856D02*
X105220933Y-70255617D01*
X105220933Y-70255617D02*
X105220933Y-69398475D01*
X98601884Y-72008419D02*
X98601884Y-71008419D01*
X98601884Y-71389371D02*
X98697122Y-71341752D01*
X98697122Y-71341752D02*
X98887598Y-71341752D01*
X98887598Y-71341752D02*
X98982836Y-71389371D01*
X98982836Y-71389371D02*
X99030455Y-71436990D01*
X99030455Y-71436990D02*
X99078074Y-71532228D01*
X99078074Y-71532228D02*
X99078074Y-71817942D01*
X99078074Y-71817942D02*
X99030455Y-71913180D01*
X99030455Y-71913180D02*
X98982836Y-71960800D01*
X98982836Y-71960800D02*
X98887598Y-72008419D01*
X98887598Y-72008419D02*
X98697122Y-72008419D01*
X98697122Y-72008419D02*
X98601884Y-71960800D01*
X99411408Y-71341752D02*
X99649503Y-72008419D01*
X99887598Y-71341752D02*
X99649503Y-72008419D01*
X99649503Y-72008419D02*
X99554265Y-72246514D01*
X99554265Y-72246514D02*
X99506646Y-72294133D01*
X99506646Y-72294133D02*
X99411408Y-72341752D01*
X100268551Y-71913180D02*
X100316170Y-71960800D01*
X100316170Y-71960800D02*
X100268551Y-72008419D01*
X100268551Y-72008419D02*
X100220932Y-71960800D01*
X100220932Y-71960800D02*
X100268551Y-71913180D01*
X100268551Y-71913180D02*
X100268551Y-72008419D01*
X100268551Y-71389371D02*
X100316170Y-71436990D01*
X100316170Y-71436990D02*
X100268551Y-71484609D01*
X100268551Y-71484609D02*
X100220932Y-71436990D01*
X100220932Y-71436990D02*
X100268551Y-71389371D01*
X100268551Y-71389371D02*
X100268551Y-71484609D01*
X102697122Y-71960800D02*
X102601884Y-72008419D01*
X102601884Y-72008419D02*
X102411408Y-72008419D01*
X102411408Y-72008419D02*
X102316170Y-71960800D01*
X102316170Y-71960800D02*
X102268551Y-71913180D01*
X102268551Y-71913180D02*
X102220932Y-71817942D01*
X102220932Y-71817942D02*
X102220932Y-71532228D01*
X102220932Y-71532228D02*
X102268551Y-71436990D01*
X102268551Y-71436990D02*
X102316170Y-71389371D01*
X102316170Y-71389371D02*
X102411408Y-71341752D01*
X102411408Y-71341752D02*
X102601884Y-71341752D01*
X102601884Y-71341752D02*
X102697122Y-71389371D01*
X103554265Y-72008419D02*
X103554265Y-71484609D01*
X103554265Y-71484609D02*
X103506646Y-71389371D01*
X103506646Y-71389371D02*
X103411408Y-71341752D01*
X103411408Y-71341752D02*
X103220932Y-71341752D01*
X103220932Y-71341752D02*
X103125694Y-71389371D01*
X103554265Y-71960800D02*
X103459027Y-72008419D01*
X103459027Y-72008419D02*
X103220932Y-72008419D01*
X103220932Y-72008419D02*
X103125694Y-71960800D01*
X103125694Y-71960800D02*
X103078075Y-71865561D01*
X103078075Y-71865561D02*
X103078075Y-71770323D01*
X103078075Y-71770323D02*
X103125694Y-71675085D01*
X103125694Y-71675085D02*
X103220932Y-71627466D01*
X103220932Y-71627466D02*
X103459027Y-71627466D01*
X103459027Y-71627466D02*
X103554265Y-71579847D01*
X104173313Y-72008419D02*
X104078075Y-71960800D01*
X104078075Y-71960800D02*
X104030456Y-71865561D01*
X104030456Y-71865561D02*
X104030456Y-71008419D01*
X104935218Y-71960800D02*
X104839980Y-72008419D01*
X104839980Y-72008419D02*
X104649504Y-72008419D01*
X104649504Y-72008419D02*
X104554266Y-71960800D01*
X104554266Y-71960800D02*
X104506647Y-71865561D01*
X104506647Y-71865561D02*
X104506647Y-71484609D01*
X104506647Y-71484609D02*
X104554266Y-71389371D01*
X104554266Y-71389371D02*
X104649504Y-71341752D01*
X104649504Y-71341752D02*
X104839980Y-71341752D01*
X104839980Y-71341752D02*
X104935218Y-71389371D01*
X104935218Y-71389371D02*
X104982837Y-71484609D01*
X104982837Y-71484609D02*
X104982837Y-71579847D01*
X104982837Y-71579847D02*
X104506647Y-71675085D01*
X105411409Y-72008419D02*
X105411409Y-71008419D01*
X105411409Y-71389371D02*
X105506647Y-71341752D01*
X105506647Y-71341752D02*
X105697123Y-71341752D01*
X105697123Y-71341752D02*
X105792361Y-71389371D01*
X105792361Y-71389371D02*
X105839980Y-71436990D01*
X105839980Y-71436990D02*
X105887599Y-71532228D01*
X105887599Y-71532228D02*
X105887599Y-71817942D01*
X105887599Y-71817942D02*
X105839980Y-71913180D01*
X105839980Y-71913180D02*
X105792361Y-71960800D01*
X105792361Y-71960800D02*
X105697123Y-72008419D01*
X105697123Y-72008419D02*
X105506647Y-72008419D01*
X105506647Y-72008419D02*
X105411409Y-71960800D01*
D11*
X58219078Y-47181647D02*
X57995863Y-47062600D01*
X57995863Y-47062600D02*
X57906578Y-46824504D01*
X57906578Y-46824504D02*
X58174435Y-44681647D01*
X59528602Y-47181647D02*
X59305387Y-47062600D01*
X59305387Y-47062600D02*
X59201221Y-46943552D01*
X59201221Y-46943552D02*
X59111935Y-46705457D01*
X59111935Y-46705457D02*
X59201221Y-45991171D01*
X59201221Y-45991171D02*
X59350030Y-45753076D01*
X59350030Y-45753076D02*
X59483959Y-45634028D01*
X59483959Y-45634028D02*
X59736935Y-45514980D01*
X59736935Y-45514980D02*
X60094078Y-45514980D01*
X60094078Y-45514980D02*
X60317292Y-45634028D01*
X60317292Y-45634028D02*
X60421459Y-45753076D01*
X60421459Y-45753076D02*
X60510744Y-45991171D01*
X60510744Y-45991171D02*
X60421459Y-46705457D01*
X60421459Y-46705457D02*
X60272649Y-46943552D01*
X60272649Y-46943552D02*
X60138721Y-47062600D01*
X60138721Y-47062600D02*
X59885744Y-47181647D01*
X59885744Y-47181647D02*
X59528602Y-47181647D01*
X61403602Y-45514980D02*
X61790507Y-47181647D01*
X61790507Y-47181647D02*
X62594078Y-45514980D01*
X64305388Y-47062600D02*
X64052411Y-47181647D01*
X64052411Y-47181647D02*
X63576221Y-47181647D01*
X63576221Y-47181647D02*
X63353007Y-47062600D01*
X63353007Y-47062600D02*
X63263721Y-46824504D01*
X63263721Y-46824504D02*
X63382769Y-45872123D01*
X63382769Y-45872123D02*
X63531578Y-45634028D01*
X63531578Y-45634028D02*
X63784554Y-45514980D01*
X63784554Y-45514980D02*
X64260745Y-45514980D01*
X64260745Y-45514980D02*
X64483959Y-45634028D01*
X64483959Y-45634028D02*
X64573245Y-45872123D01*
X64573245Y-45872123D02*
X64543483Y-46110219D01*
X64543483Y-46110219D02*
X63323245Y-46348314D01*
X65600030Y-46229266D02*
X67504792Y-46229266D01*
X68933364Y-47181647D02*
X68710149Y-47062600D01*
X68710149Y-47062600D02*
X68620864Y-46824504D01*
X68620864Y-46824504D02*
X68888721Y-44681647D01*
X70853007Y-47062600D02*
X70600030Y-47181647D01*
X70600030Y-47181647D02*
X70123840Y-47181647D01*
X70123840Y-47181647D02*
X69900626Y-47062600D01*
X69900626Y-47062600D02*
X69811340Y-46824504D01*
X69811340Y-46824504D02*
X69930388Y-45872123D01*
X69930388Y-45872123D02*
X70079197Y-45634028D01*
X70079197Y-45634028D02*
X70332173Y-45514980D01*
X70332173Y-45514980D02*
X70808364Y-45514980D01*
X70808364Y-45514980D02*
X71031578Y-45634028D01*
X71031578Y-45634028D02*
X71120864Y-45872123D01*
X71120864Y-45872123D02*
X71091102Y-46110219D01*
X71091102Y-46110219D02*
X69870864Y-46348314D01*
X71879792Y-45514980D02*
X72832173Y-45514980D01*
X72341102Y-44681647D02*
X72073245Y-46824504D01*
X72073245Y-46824504D02*
X72162530Y-47062600D01*
X72162530Y-47062600D02*
X72385745Y-47181647D01*
X72385745Y-47181647D02*
X72623840Y-47181647D01*
X73308363Y-45514980D02*
X74260744Y-45514980D01*
X73769673Y-44681647D02*
X73501816Y-46824504D01*
X73501816Y-46824504D02*
X73591101Y-47062600D01*
X73591101Y-47062600D02*
X73814316Y-47181647D01*
X73814316Y-47181647D02*
X74052411Y-47181647D01*
X75853006Y-47062600D02*
X75600029Y-47181647D01*
X75600029Y-47181647D02*
X75123839Y-47181647D01*
X75123839Y-47181647D02*
X74900625Y-47062600D01*
X74900625Y-47062600D02*
X74811339Y-46824504D01*
X74811339Y-46824504D02*
X74930387Y-45872123D01*
X74930387Y-45872123D02*
X75079196Y-45634028D01*
X75079196Y-45634028D02*
X75332172Y-45514980D01*
X75332172Y-45514980D02*
X75808363Y-45514980D01*
X75808363Y-45514980D02*
X76031577Y-45634028D01*
X76031577Y-45634028D02*
X76120863Y-45872123D01*
X76120863Y-45872123D02*
X76091101Y-46110219D01*
X76091101Y-46110219D02*
X74870863Y-46348314D01*
X77028601Y-47181647D02*
X77236934Y-45514980D01*
X77177410Y-45991171D02*
X77326220Y-45753076D01*
X77326220Y-45753076D02*
X77460148Y-45634028D01*
X77460148Y-45634028D02*
X77713124Y-45514980D01*
X77713124Y-45514980D02*
X77951220Y-45514980D01*
X78472053Y-47062600D02*
X78695267Y-47181647D01*
X78695267Y-47181647D02*
X79171458Y-47181647D01*
X79171458Y-47181647D02*
X79424434Y-47062600D01*
X79424434Y-47062600D02*
X79573243Y-46824504D01*
X79573243Y-46824504D02*
X79588124Y-46705457D01*
X79588124Y-46705457D02*
X79498839Y-46467361D01*
X79498839Y-46467361D02*
X79275624Y-46348314D01*
X79275624Y-46348314D02*
X78918482Y-46348314D01*
X78918482Y-46348314D02*
X78695267Y-46229266D01*
X78695267Y-46229266D02*
X78605982Y-45991171D01*
X78605982Y-45991171D02*
X78620863Y-45872123D01*
X78620863Y-45872123D02*
X78769672Y-45634028D01*
X78769672Y-45634028D02*
X79022648Y-45514980D01*
X79022648Y-45514980D02*
X79379791Y-45514980D01*
X79379791Y-45514980D02*
X79603005Y-45634028D01*
X83576220Y-47181647D02*
X83888720Y-44681647D01*
X83591101Y-47062600D02*
X83338125Y-47181647D01*
X83338125Y-47181647D02*
X82861935Y-47181647D01*
X82861935Y-47181647D02*
X82638720Y-47062600D01*
X82638720Y-47062600D02*
X82534554Y-46943552D01*
X82534554Y-46943552D02*
X82445268Y-46705457D01*
X82445268Y-46705457D02*
X82534554Y-45991171D01*
X82534554Y-45991171D02*
X82683363Y-45753076D01*
X82683363Y-45753076D02*
X82817292Y-45634028D01*
X82817292Y-45634028D02*
X83070268Y-45514980D01*
X83070268Y-45514980D02*
X83546458Y-45514980D01*
X83546458Y-45514980D02*
X83769673Y-45634028D01*
X84766697Y-47181647D02*
X84975030Y-45514980D01*
X84915506Y-45991171D02*
X85064316Y-45753076D01*
X85064316Y-45753076D02*
X85198244Y-45634028D01*
X85198244Y-45634028D02*
X85451220Y-45514980D01*
X85451220Y-45514980D02*
X85689316Y-45514980D01*
X86314316Y-47181647D02*
X86522649Y-45514980D01*
X86626816Y-44681647D02*
X86492887Y-44800695D01*
X86492887Y-44800695D02*
X86597054Y-44919742D01*
X86597054Y-44919742D02*
X86730982Y-44800695D01*
X86730982Y-44800695D02*
X86626816Y-44681647D01*
X86626816Y-44681647D02*
X86597054Y-44919742D01*
X87475030Y-45514980D02*
X87861935Y-47181647D01*
X87861935Y-47181647D02*
X88665506Y-45514980D01*
X90376816Y-47062600D02*
X90123839Y-47181647D01*
X90123839Y-47181647D02*
X89647649Y-47181647D01*
X89647649Y-47181647D02*
X89424435Y-47062600D01*
X89424435Y-47062600D02*
X89335149Y-46824504D01*
X89335149Y-46824504D02*
X89454197Y-45872123D01*
X89454197Y-45872123D02*
X89603006Y-45634028D01*
X89603006Y-45634028D02*
X89855982Y-45514980D01*
X89855982Y-45514980D02*
X90332173Y-45514980D01*
X90332173Y-45514980D02*
X90555387Y-45634028D01*
X90555387Y-45634028D02*
X90644673Y-45872123D01*
X90644673Y-45872123D02*
X90614911Y-46110219D01*
X90614911Y-46110219D02*
X89394673Y-46348314D01*
X91552411Y-47181647D02*
X91760744Y-45514980D01*
X91701220Y-45991171D02*
X91850030Y-45753076D01*
X91850030Y-45753076D02*
X91983958Y-45634028D01*
X91983958Y-45634028D02*
X92236934Y-45514980D01*
X92236934Y-45514980D02*
X92475030Y-45514980D01*
X95004792Y-47181647D02*
X95317292Y-44681647D01*
X95198244Y-45634028D02*
X95451220Y-45514980D01*
X95451220Y-45514980D02*
X95927411Y-45514980D01*
X95927411Y-45514980D02*
X96150625Y-45634028D01*
X96150625Y-45634028D02*
X96254792Y-45753076D01*
X96254792Y-45753076D02*
X96344077Y-45991171D01*
X96344077Y-45991171D02*
X96254792Y-46705457D01*
X96254792Y-46705457D02*
X96105982Y-46943552D01*
X96105982Y-46943552D02*
X95972054Y-47062600D01*
X95972054Y-47062600D02*
X95719077Y-47181647D01*
X95719077Y-47181647D02*
X95242887Y-47181647D01*
X95242887Y-47181647D02*
X95019673Y-47062600D01*
X97623840Y-47181647D02*
X97400625Y-47062600D01*
X97400625Y-47062600D02*
X97296459Y-46943552D01*
X97296459Y-46943552D02*
X97207173Y-46705457D01*
X97207173Y-46705457D02*
X97296459Y-45991171D01*
X97296459Y-45991171D02*
X97445268Y-45753076D01*
X97445268Y-45753076D02*
X97579197Y-45634028D01*
X97579197Y-45634028D02*
X97832173Y-45514980D01*
X97832173Y-45514980D02*
X98189316Y-45514980D01*
X98189316Y-45514980D02*
X98412530Y-45634028D01*
X98412530Y-45634028D02*
X98516697Y-45753076D01*
X98516697Y-45753076D02*
X98605982Y-45991171D01*
X98605982Y-45991171D02*
X98516697Y-46705457D01*
X98516697Y-46705457D02*
X98367887Y-46943552D01*
X98367887Y-46943552D02*
X98233959Y-47062600D01*
X98233959Y-47062600D02*
X97980982Y-47181647D01*
X97980982Y-47181647D02*
X97623840Y-47181647D01*
X100600030Y-47181647D02*
X100763721Y-45872123D01*
X100763721Y-45872123D02*
X100674435Y-45634028D01*
X100674435Y-45634028D02*
X100451221Y-45514980D01*
X100451221Y-45514980D02*
X99975030Y-45514980D01*
X99975030Y-45514980D02*
X99722054Y-45634028D01*
X100614911Y-47062600D02*
X100361935Y-47181647D01*
X100361935Y-47181647D02*
X99766697Y-47181647D01*
X99766697Y-47181647D02*
X99543483Y-47062600D01*
X99543483Y-47062600D02*
X99454197Y-46824504D01*
X99454197Y-46824504D02*
X99483959Y-46586409D01*
X99483959Y-46586409D02*
X99632768Y-46348314D01*
X99632768Y-46348314D02*
X99885745Y-46229266D01*
X99885745Y-46229266D02*
X100480983Y-46229266D01*
X100480983Y-46229266D02*
X100733959Y-46110219D01*
X101790507Y-47181647D02*
X101998840Y-45514980D01*
X101939316Y-45991171D02*
X102088126Y-45753076D01*
X102088126Y-45753076D02*
X102222054Y-45634028D01*
X102222054Y-45634028D02*
X102475030Y-45514980D01*
X102475030Y-45514980D02*
X102713126Y-45514980D01*
X104409554Y-47181647D02*
X104722054Y-44681647D01*
X104424435Y-47062600D02*
X104171459Y-47181647D01*
X104171459Y-47181647D02*
X103695269Y-47181647D01*
X103695269Y-47181647D02*
X103472054Y-47062600D01*
X103472054Y-47062600D02*
X103367888Y-46943552D01*
X103367888Y-46943552D02*
X103278602Y-46705457D01*
X103278602Y-46705457D02*
X103367888Y-45991171D01*
X103367888Y-45991171D02*
X103516697Y-45753076D01*
X103516697Y-45753076D02*
X103650626Y-45634028D01*
X103650626Y-45634028D02*
X103903602Y-45514980D01*
X103903602Y-45514980D02*
X104379792Y-45514980D01*
X104379792Y-45514980D02*
X104603007Y-45634028D01*
D12*
X77259580Y-59842857D02*
X77307200Y-59890476D01*
X77307200Y-59890476D02*
X77354819Y-60033333D01*
X77354819Y-60033333D02*
X77354819Y-60128571D01*
X77354819Y-60128571D02*
X77307200Y-60271428D01*
X77307200Y-60271428D02*
X77211961Y-60366666D01*
X77211961Y-60366666D02*
X77116723Y-60414285D01*
X77116723Y-60414285D02*
X76926247Y-60461904D01*
X76926247Y-60461904D02*
X76783390Y-60461904D01*
X76783390Y-60461904D02*
X76592914Y-60414285D01*
X76592914Y-60414285D02*
X76497676Y-60366666D01*
X76497676Y-60366666D02*
X76402438Y-60271428D01*
X76402438Y-60271428D02*
X76354819Y-60128571D01*
X76354819Y-60128571D02*
X76354819Y-60033333D01*
X76354819Y-60033333D02*
X76402438Y-59890476D01*
X76402438Y-59890476D02*
X76450057Y-59842857D01*
X77354819Y-58890476D02*
X77354819Y-59461904D01*
X77354819Y-59176190D02*
X76354819Y-59176190D01*
X76354819Y-59176190D02*
X76497676Y-59271428D01*
X76497676Y-59271428D02*
X76592914Y-59366666D01*
X76592914Y-59366666D02*
X76640533Y-59461904D01*
X76354819Y-57985714D02*
X76354819Y-58461904D01*
X76354819Y-58461904D02*
X76831009Y-58509523D01*
X76831009Y-58509523D02*
X76783390Y-58461904D01*
X76783390Y-58461904D02*
X76735771Y-58366666D01*
X76735771Y-58366666D02*
X76735771Y-58128571D01*
X76735771Y-58128571D02*
X76783390Y-58033333D01*
X76783390Y-58033333D02*
X76831009Y-57985714D01*
X76831009Y-57985714D02*
X76926247Y-57938095D01*
X76926247Y-57938095D02*
X77164342Y-57938095D01*
X77164342Y-57938095D02*
X77259580Y-57985714D01*
X77259580Y-57985714D02*
X77307200Y-58033333D01*
X77307200Y-58033333D02*
X77354819Y-58128571D01*
X77354819Y-58128571D02*
X77354819Y-58366666D01*
X77354819Y-58366666D02*
X77307200Y-58461904D01*
X77307200Y-58461904D02*
X77259580Y-58509523D01*
X51033333Y-63954819D02*
X50700000Y-63478628D01*
X50461905Y-63954819D02*
X50461905Y-62954819D01*
X50461905Y-62954819D02*
X50842857Y-62954819D01*
X50842857Y-62954819D02*
X50938095Y-63002438D01*
X50938095Y-63002438D02*
X50985714Y-63050057D01*
X50985714Y-63050057D02*
X51033333Y-63145295D01*
X51033333Y-63145295D02*
X51033333Y-63288152D01*
X51033333Y-63288152D02*
X50985714Y-63383390D01*
X50985714Y-63383390D02*
X50938095Y-63431009D01*
X50938095Y-63431009D02*
X50842857Y-63478628D01*
X50842857Y-63478628D02*
X50461905Y-63478628D01*
X51366667Y-62954819D02*
X52033333Y-62954819D01*
X52033333Y-62954819D02*
X51604762Y-63954819D01*
X90373333Y-66979580D02*
X90325714Y-67027200D01*
X90325714Y-67027200D02*
X90182857Y-67074819D01*
X90182857Y-67074819D02*
X90087619Y-67074819D01*
X90087619Y-67074819D02*
X89944762Y-67027200D01*
X89944762Y-67027200D02*
X89849524Y-66931961D01*
X89849524Y-66931961D02*
X89801905Y-66836723D01*
X89801905Y-66836723D02*
X89754286Y-66646247D01*
X89754286Y-66646247D02*
X89754286Y-66503390D01*
X89754286Y-66503390D02*
X89801905Y-66312914D01*
X89801905Y-66312914D02*
X89849524Y-66217676D01*
X89849524Y-66217676D02*
X89944762Y-66122438D01*
X89944762Y-66122438D02*
X90087619Y-66074819D01*
X90087619Y-66074819D02*
X90182857Y-66074819D01*
X90182857Y-66074819D02*
X90325714Y-66122438D01*
X90325714Y-66122438D02*
X90373333Y-66170057D01*
X90706667Y-66074819D02*
X91325714Y-66074819D01*
X91325714Y-66074819D02*
X90992381Y-66455771D01*
X90992381Y-66455771D02*
X91135238Y-66455771D01*
X91135238Y-66455771D02*
X91230476Y-66503390D01*
X91230476Y-66503390D02*
X91278095Y-66551009D01*
X91278095Y-66551009D02*
X91325714Y-66646247D01*
X91325714Y-66646247D02*
X91325714Y-66884342D01*
X91325714Y-66884342D02*
X91278095Y-66979580D01*
X91278095Y-66979580D02*
X91230476Y-67027200D01*
X91230476Y-67027200D02*
X91135238Y-67074819D01*
X91135238Y-67074819D02*
X90849524Y-67074819D01*
X90849524Y-67074819D02*
X90754286Y-67027200D01*
X90754286Y-67027200D02*
X90706667Y-66979580D01*
X92779761Y-49572057D02*
X92684523Y-49524438D01*
X92684523Y-49524438D02*
X92589285Y-49429200D01*
X92589285Y-49429200D02*
X92446428Y-49286342D01*
X92446428Y-49286342D02*
X92351190Y-49238723D01*
X92351190Y-49238723D02*
X92255952Y-49238723D01*
X92303571Y-49476819D02*
X92208333Y-49429200D01*
X92208333Y-49429200D02*
X92113095Y-49333961D01*
X92113095Y-49333961D02*
X92065476Y-49143485D01*
X92065476Y-49143485D02*
X92065476Y-48810152D01*
X92065476Y-48810152D02*
X92113095Y-48619676D01*
X92113095Y-48619676D02*
X92208333Y-48524438D01*
X92208333Y-48524438D02*
X92303571Y-48476819D01*
X92303571Y-48476819D02*
X92494047Y-48476819D01*
X92494047Y-48476819D02*
X92589285Y-48524438D01*
X92589285Y-48524438D02*
X92684523Y-48619676D01*
X92684523Y-48619676D02*
X92732142Y-48810152D01*
X92732142Y-48810152D02*
X92732142Y-49143485D01*
X92732142Y-49143485D02*
X92684523Y-49333961D01*
X92684523Y-49333961D02*
X92589285Y-49429200D01*
X92589285Y-49429200D02*
X92494047Y-49476819D01*
X92494047Y-49476819D02*
X92303571Y-49476819D01*
X93684523Y-49476819D02*
X93113095Y-49476819D01*
X93398809Y-49476819D02*
X93398809Y-48476819D01*
X93398809Y-48476819D02*
X93303571Y-48619676D01*
X93303571Y-48619676D02*
X93208333Y-48714914D01*
X93208333Y-48714914D02*
X93113095Y-48762533D01*
X83959580Y-59166666D02*
X84007200Y-59214285D01*
X84007200Y-59214285D02*
X84054819Y-59357142D01*
X84054819Y-59357142D02*
X84054819Y-59452380D01*
X84054819Y-59452380D02*
X84007200Y-59595237D01*
X84007200Y-59595237D02*
X83911961Y-59690475D01*
X83911961Y-59690475D02*
X83816723Y-59738094D01*
X83816723Y-59738094D02*
X83626247Y-59785713D01*
X83626247Y-59785713D02*
X83483390Y-59785713D01*
X83483390Y-59785713D02*
X83292914Y-59738094D01*
X83292914Y-59738094D02*
X83197676Y-59690475D01*
X83197676Y-59690475D02*
X83102438Y-59595237D01*
X83102438Y-59595237D02*
X83054819Y-59452380D01*
X83054819Y-59452380D02*
X83054819Y-59357142D01*
X83054819Y-59357142D02*
X83102438Y-59214285D01*
X83102438Y-59214285D02*
X83150057Y-59166666D01*
X83054819Y-58309523D02*
X83054819Y-58499999D01*
X83054819Y-58499999D02*
X83102438Y-58595237D01*
X83102438Y-58595237D02*
X83150057Y-58642856D01*
X83150057Y-58642856D02*
X83292914Y-58738094D01*
X83292914Y-58738094D02*
X83483390Y-58785713D01*
X83483390Y-58785713D02*
X83864342Y-58785713D01*
X83864342Y-58785713D02*
X83959580Y-58738094D01*
X83959580Y-58738094D02*
X84007200Y-58690475D01*
X84007200Y-58690475D02*
X84054819Y-58595237D01*
X84054819Y-58595237D02*
X84054819Y-58404761D01*
X84054819Y-58404761D02*
X84007200Y-58309523D01*
X84007200Y-58309523D02*
X83959580Y-58261904D01*
X83959580Y-58261904D02*
X83864342Y-58214285D01*
X83864342Y-58214285D02*
X83626247Y-58214285D01*
X83626247Y-58214285D02*
X83531009Y-58261904D01*
X83531009Y-58261904D02*
X83483390Y-58309523D01*
X83483390Y-58309523D02*
X83435771Y-58404761D01*
X83435771Y-58404761D02*
X83435771Y-58595237D01*
X83435771Y-58595237D02*
X83483390Y-58690475D01*
X83483390Y-58690475D02*
X83531009Y-58738094D01*
X83531009Y-58738094D02*
X83626247Y-58785713D01*
X109382142Y-56914580D02*
X109334523Y-56962200D01*
X109334523Y-56962200D02*
X109191666Y-57009819D01*
X109191666Y-57009819D02*
X109096428Y-57009819D01*
X109096428Y-57009819D02*
X108953571Y-56962200D01*
X108953571Y-56962200D02*
X108858333Y-56866961D01*
X108858333Y-56866961D02*
X108810714Y-56771723D01*
X108810714Y-56771723D02*
X108763095Y-56581247D01*
X108763095Y-56581247D02*
X108763095Y-56438390D01*
X108763095Y-56438390D02*
X108810714Y-56247914D01*
X108810714Y-56247914D02*
X108858333Y-56152676D01*
X108858333Y-56152676D02*
X108953571Y-56057438D01*
X108953571Y-56057438D02*
X109096428Y-56009819D01*
X109096428Y-56009819D02*
X109191666Y-56009819D01*
X109191666Y-56009819D02*
X109334523Y-56057438D01*
X109334523Y-56057438D02*
X109382142Y-56105057D01*
X110334523Y-57009819D02*
X109763095Y-57009819D01*
X110048809Y-57009819D02*
X110048809Y-56009819D01*
X110048809Y-56009819D02*
X109953571Y-56152676D01*
X109953571Y-56152676D02*
X109858333Y-56247914D01*
X109858333Y-56247914D02*
X109763095Y-56295533D01*
X110715476Y-56105057D02*
X110763095Y-56057438D01*
X110763095Y-56057438D02*
X110858333Y-56009819D01*
X110858333Y-56009819D02*
X111096428Y-56009819D01*
X111096428Y-56009819D02*
X111191666Y-56057438D01*
X111191666Y-56057438D02*
X111239285Y-56105057D01*
X111239285Y-56105057D02*
X111286904Y-56200295D01*
X111286904Y-56200295D02*
X111286904Y-56295533D01*
X111286904Y-56295533D02*
X111239285Y-56438390D01*
X111239285Y-56438390D02*
X110667857Y-57009819D01*
X110667857Y-57009819D02*
X111286904Y-57009819D01*
X88850057Y-56001488D02*
X88802438Y-56096726D01*
X88802438Y-56096726D02*
X88707200Y-56191964D01*
X88707200Y-56191964D02*
X88564342Y-56334821D01*
X88564342Y-56334821D02*
X88516723Y-56430059D01*
X88516723Y-56430059D02*
X88516723Y-56525297D01*
X88754819Y-56477678D02*
X88707200Y-56572916D01*
X88707200Y-56572916D02*
X88611961Y-56668154D01*
X88611961Y-56668154D02*
X88421485Y-56715773D01*
X88421485Y-56715773D02*
X88088152Y-56715773D01*
X88088152Y-56715773D02*
X87897676Y-56668154D01*
X87897676Y-56668154D02*
X87802438Y-56572916D01*
X87802438Y-56572916D02*
X87754819Y-56477678D01*
X87754819Y-56477678D02*
X87754819Y-56287202D01*
X87754819Y-56287202D02*
X87802438Y-56191964D01*
X87802438Y-56191964D02*
X87897676Y-56096726D01*
X87897676Y-56096726D02*
X88088152Y-56049107D01*
X88088152Y-56049107D02*
X88421485Y-56049107D01*
X88421485Y-56049107D02*
X88611961Y-56096726D01*
X88611961Y-56096726D02*
X88707200Y-56191964D01*
X88707200Y-56191964D02*
X88754819Y-56287202D01*
X88754819Y-56287202D02*
X88754819Y-56477678D01*
X87754819Y-55715773D02*
X87754819Y-55096726D01*
X87754819Y-55096726D02*
X88135771Y-55430059D01*
X88135771Y-55430059D02*
X88135771Y-55287202D01*
X88135771Y-55287202D02*
X88183390Y-55191964D01*
X88183390Y-55191964D02*
X88231009Y-55144345D01*
X88231009Y-55144345D02*
X88326247Y-55096726D01*
X88326247Y-55096726D02*
X88564342Y-55096726D01*
X88564342Y-55096726D02*
X88659580Y-55144345D01*
X88659580Y-55144345D02*
X88707200Y-55191964D01*
X88707200Y-55191964D02*
X88754819Y-55287202D01*
X88754819Y-55287202D02*
X88754819Y-55572916D01*
X88754819Y-55572916D02*
X88707200Y-55668154D01*
X88707200Y-55668154D02*
X88659580Y-55715773D01*
X106626819Y-55094094D02*
X105626819Y-55094094D01*
X105626819Y-55094094D02*
X105626819Y-54855999D01*
X105626819Y-54855999D02*
X105674438Y-54713142D01*
X105674438Y-54713142D02*
X105769676Y-54617904D01*
X105769676Y-54617904D02*
X105864914Y-54570285D01*
X105864914Y-54570285D02*
X106055390Y-54522666D01*
X106055390Y-54522666D02*
X106198247Y-54522666D01*
X106198247Y-54522666D02*
X106388723Y-54570285D01*
X106388723Y-54570285D02*
X106483961Y-54617904D01*
X106483961Y-54617904D02*
X106579200Y-54713142D01*
X106579200Y-54713142D02*
X106626819Y-54855999D01*
X106626819Y-54855999D02*
X106626819Y-55094094D01*
X105722057Y-54141713D02*
X105674438Y-54094094D01*
X105674438Y-54094094D02*
X105626819Y-53998856D01*
X105626819Y-53998856D02*
X105626819Y-53760761D01*
X105626819Y-53760761D02*
X105674438Y-53665523D01*
X105674438Y-53665523D02*
X105722057Y-53617904D01*
X105722057Y-53617904D02*
X105817295Y-53570285D01*
X105817295Y-53570285D02*
X105912533Y-53570285D01*
X105912533Y-53570285D02*
X106055390Y-53617904D01*
X106055390Y-53617904D02*
X106626819Y-54189332D01*
X106626819Y-54189332D02*
X106626819Y-53570285D01*
D13*
X65651442Y-58331705D02*
X65651442Y-58965012D01*
X65651442Y-58965012D02*
X65688696Y-59039518D01*
X65688696Y-59039518D02*
X65725949Y-59076772D01*
X65725949Y-59076772D02*
X65800456Y-59114025D01*
X65800456Y-59114025D02*
X65949469Y-59114025D01*
X65949469Y-59114025D02*
X66023976Y-59076772D01*
X66023976Y-59076772D02*
X66061229Y-59039518D01*
X66061229Y-59039518D02*
X66098482Y-58965012D01*
X66098482Y-58965012D02*
X66098482Y-58331705D01*
X66880802Y-59114025D02*
X66433762Y-59114025D01*
X66657282Y-59114025D02*
X66657282Y-58331705D01*
X66657282Y-58331705D02*
X66582775Y-58443465D01*
X66582775Y-58443465D02*
X66508269Y-58517972D01*
X66508269Y-58517972D02*
X66433762Y-58555225D01*
D12*
X95725595Y-67529819D02*
X95725595Y-68339342D01*
X95725595Y-68339342D02*
X95773214Y-68434580D01*
X95773214Y-68434580D02*
X95820833Y-68482200D01*
X95820833Y-68482200D02*
X95916071Y-68529819D01*
X95916071Y-68529819D02*
X96106547Y-68529819D01*
X96106547Y-68529819D02*
X96201785Y-68482200D01*
X96201785Y-68482200D02*
X96249404Y-68434580D01*
X96249404Y-68434580D02*
X96297023Y-68339342D01*
X96297023Y-68339342D02*
X96297023Y-67529819D01*
X96677976Y-67529819D02*
X97297023Y-67529819D01*
X97297023Y-67529819D02*
X96963690Y-67910771D01*
X96963690Y-67910771D02*
X97106547Y-67910771D01*
X97106547Y-67910771D02*
X97201785Y-67958390D01*
X97201785Y-67958390D02*
X97249404Y-68006009D01*
X97249404Y-68006009D02*
X97297023Y-68101247D01*
X97297023Y-68101247D02*
X97297023Y-68339342D01*
X97297023Y-68339342D02*
X97249404Y-68434580D01*
X97249404Y-68434580D02*
X97201785Y-68482200D01*
X97201785Y-68482200D02*
X97106547Y-68529819D01*
X97106547Y-68529819D02*
X96820833Y-68529819D01*
X96820833Y-68529819D02*
X96725595Y-68482200D01*
X96725595Y-68482200D02*
X96677976Y-68434580D01*
X112764819Y-62903333D02*
X113479104Y-62903333D01*
X113479104Y-62903333D02*
X113621961Y-62950952D01*
X113621961Y-62950952D02*
X113717200Y-63046190D01*
X113717200Y-63046190D02*
X113764819Y-63189047D01*
X113764819Y-63189047D02*
X113764819Y-63284285D01*
X113764819Y-61903333D02*
X113764819Y-62474761D01*
X113764819Y-62189047D02*
X112764819Y-62189047D01*
X112764819Y-62189047D02*
X112907676Y-62284285D01*
X112907676Y-62284285D02*
X113002914Y-62379523D01*
X113002914Y-62379523D02*
X113050533Y-62474761D01*
X109858333Y-61054580D02*
X109810714Y-61102200D01*
X109810714Y-61102200D02*
X109667857Y-61149819D01*
X109667857Y-61149819D02*
X109572619Y-61149819D01*
X109572619Y-61149819D02*
X109429762Y-61102200D01*
X109429762Y-61102200D02*
X109334524Y-61006961D01*
X109334524Y-61006961D02*
X109286905Y-60911723D01*
X109286905Y-60911723D02*
X109239286Y-60721247D01*
X109239286Y-60721247D02*
X109239286Y-60578390D01*
X109239286Y-60578390D02*
X109286905Y-60387914D01*
X109286905Y-60387914D02*
X109334524Y-60292676D01*
X109334524Y-60292676D02*
X109429762Y-60197438D01*
X109429762Y-60197438D02*
X109572619Y-60149819D01*
X109572619Y-60149819D02*
X109667857Y-60149819D01*
X109667857Y-60149819D02*
X109810714Y-60197438D01*
X109810714Y-60197438D02*
X109858333Y-60245057D01*
X110334524Y-61149819D02*
X110525000Y-61149819D01*
X110525000Y-61149819D02*
X110620238Y-61102200D01*
X110620238Y-61102200D02*
X110667857Y-61054580D01*
X110667857Y-61054580D02*
X110763095Y-60911723D01*
X110763095Y-60911723D02*
X110810714Y-60721247D01*
X110810714Y-60721247D02*
X110810714Y-60340295D01*
X110810714Y-60340295D02*
X110763095Y-60245057D01*
X110763095Y-60245057D02*
X110715476Y-60197438D01*
X110715476Y-60197438D02*
X110620238Y-60149819D01*
X110620238Y-60149819D02*
X110429762Y-60149819D01*
X110429762Y-60149819D02*
X110334524Y-60197438D01*
X110334524Y-60197438D02*
X110286905Y-60245057D01*
X110286905Y-60245057D02*
X110239286Y-60340295D01*
X110239286Y-60340295D02*
X110239286Y-60578390D01*
X110239286Y-60578390D02*
X110286905Y-60673628D01*
X110286905Y-60673628D02*
X110334524Y-60721247D01*
X110334524Y-60721247D02*
X110429762Y-60768866D01*
X110429762Y-60768866D02*
X110620238Y-60768866D01*
X110620238Y-60768866D02*
X110715476Y-60721247D01*
X110715476Y-60721247D02*
X110763095Y-60673628D01*
X110763095Y-60673628D02*
X110810714Y-60578390D01*
X109382142Y-54414580D02*
X109334523Y-54462200D01*
X109334523Y-54462200D02*
X109191666Y-54509819D01*
X109191666Y-54509819D02*
X109096428Y-54509819D01*
X109096428Y-54509819D02*
X108953571Y-54462200D01*
X108953571Y-54462200D02*
X108858333Y-54366961D01*
X108858333Y-54366961D02*
X108810714Y-54271723D01*
X108810714Y-54271723D02*
X108763095Y-54081247D01*
X108763095Y-54081247D02*
X108763095Y-53938390D01*
X108763095Y-53938390D02*
X108810714Y-53747914D01*
X108810714Y-53747914D02*
X108858333Y-53652676D01*
X108858333Y-53652676D02*
X108953571Y-53557438D01*
X108953571Y-53557438D02*
X109096428Y-53509819D01*
X109096428Y-53509819D02*
X109191666Y-53509819D01*
X109191666Y-53509819D02*
X109334523Y-53557438D01*
X109334523Y-53557438D02*
X109382142Y-53605057D01*
X110334523Y-54509819D02*
X109763095Y-54509819D01*
X110048809Y-54509819D02*
X110048809Y-53509819D01*
X110048809Y-53509819D02*
X109953571Y-53652676D01*
X109953571Y-53652676D02*
X109858333Y-53747914D01*
X109858333Y-53747914D02*
X109763095Y-53795533D01*
X110667857Y-53509819D02*
X111286904Y-53509819D01*
X111286904Y-53509819D02*
X110953571Y-53890771D01*
X110953571Y-53890771D02*
X111096428Y-53890771D01*
X111096428Y-53890771D02*
X111191666Y-53938390D01*
X111191666Y-53938390D02*
X111239285Y-53986009D01*
X111239285Y-53986009D02*
X111286904Y-54081247D01*
X111286904Y-54081247D02*
X111286904Y-54319342D01*
X111286904Y-54319342D02*
X111239285Y-54414580D01*
X111239285Y-54414580D02*
X111191666Y-54462200D01*
X111191666Y-54462200D02*
X111096428Y-54509819D01*
X111096428Y-54509819D02*
X110810714Y-54509819D01*
X110810714Y-54509819D02*
X110715476Y-54462200D01*
X110715476Y-54462200D02*
X110667857Y-54414580D01*
X90373333Y-64479580D02*
X90325714Y-64527200D01*
X90325714Y-64527200D02*
X90182857Y-64574819D01*
X90182857Y-64574819D02*
X90087619Y-64574819D01*
X90087619Y-64574819D02*
X89944762Y-64527200D01*
X89944762Y-64527200D02*
X89849524Y-64431961D01*
X89849524Y-64431961D02*
X89801905Y-64336723D01*
X89801905Y-64336723D02*
X89754286Y-64146247D01*
X89754286Y-64146247D02*
X89754286Y-64003390D01*
X89754286Y-64003390D02*
X89801905Y-63812914D01*
X89801905Y-63812914D02*
X89849524Y-63717676D01*
X89849524Y-63717676D02*
X89944762Y-63622438D01*
X89944762Y-63622438D02*
X90087619Y-63574819D01*
X90087619Y-63574819D02*
X90182857Y-63574819D01*
X90182857Y-63574819D02*
X90325714Y-63622438D01*
X90325714Y-63622438D02*
X90373333Y-63670057D01*
X90754286Y-63670057D02*
X90801905Y-63622438D01*
X90801905Y-63622438D02*
X90897143Y-63574819D01*
X90897143Y-63574819D02*
X91135238Y-63574819D01*
X91135238Y-63574819D02*
X91230476Y-63622438D01*
X91230476Y-63622438D02*
X91278095Y-63670057D01*
X91278095Y-63670057D02*
X91325714Y-63765295D01*
X91325714Y-63765295D02*
X91325714Y-63860533D01*
X91325714Y-63860533D02*
X91278095Y-64003390D01*
X91278095Y-64003390D02*
X90706667Y-64574819D01*
X90706667Y-64574819D02*
X91325714Y-64574819D01*
X102136905Y-60079819D02*
X102136905Y-59079819D01*
X102136905Y-59079819D02*
X102375000Y-59079819D01*
X102375000Y-59079819D02*
X102517857Y-59127438D01*
X102517857Y-59127438D02*
X102613095Y-59222676D01*
X102613095Y-59222676D02*
X102660714Y-59317914D01*
X102660714Y-59317914D02*
X102708333Y-59508390D01*
X102708333Y-59508390D02*
X102708333Y-59651247D01*
X102708333Y-59651247D02*
X102660714Y-59841723D01*
X102660714Y-59841723D02*
X102613095Y-59936961D01*
X102613095Y-59936961D02*
X102517857Y-60032200D01*
X102517857Y-60032200D02*
X102375000Y-60079819D01*
X102375000Y-60079819D02*
X102136905Y-60079819D01*
X103041667Y-59079819D02*
X103660714Y-59079819D01*
X103660714Y-59079819D02*
X103327381Y-59460771D01*
X103327381Y-59460771D02*
X103470238Y-59460771D01*
X103470238Y-59460771D02*
X103565476Y-59508390D01*
X103565476Y-59508390D02*
X103613095Y-59556009D01*
X103613095Y-59556009D02*
X103660714Y-59651247D01*
X103660714Y-59651247D02*
X103660714Y-59889342D01*
X103660714Y-59889342D02*
X103613095Y-59984580D01*
X103613095Y-59984580D02*
X103565476Y-60032200D01*
X103565476Y-60032200D02*
X103470238Y-60079819D01*
X103470238Y-60079819D02*
X103184524Y-60079819D01*
X103184524Y-60079819D02*
X103089286Y-60032200D01*
X103089286Y-60032200D02*
X103041667Y-59984580D01*
X109382142Y-61914580D02*
X109334523Y-61962200D01*
X109334523Y-61962200D02*
X109191666Y-62009819D01*
X109191666Y-62009819D02*
X109096428Y-62009819D01*
X109096428Y-62009819D02*
X108953571Y-61962200D01*
X108953571Y-61962200D02*
X108858333Y-61866961D01*
X108858333Y-61866961D02*
X108810714Y-61771723D01*
X108810714Y-61771723D02*
X108763095Y-61581247D01*
X108763095Y-61581247D02*
X108763095Y-61438390D01*
X108763095Y-61438390D02*
X108810714Y-61247914D01*
X108810714Y-61247914D02*
X108858333Y-61152676D01*
X108858333Y-61152676D02*
X108953571Y-61057438D01*
X108953571Y-61057438D02*
X109096428Y-61009819D01*
X109096428Y-61009819D02*
X109191666Y-61009819D01*
X109191666Y-61009819D02*
X109334523Y-61057438D01*
X109334523Y-61057438D02*
X109382142Y-61105057D01*
X110334523Y-62009819D02*
X109763095Y-62009819D01*
X110048809Y-62009819D02*
X110048809Y-61009819D01*
X110048809Y-61009819D02*
X109953571Y-61152676D01*
X109953571Y-61152676D02*
X109858333Y-61247914D01*
X109858333Y-61247914D02*
X109763095Y-61295533D01*
X110953571Y-61009819D02*
X111048809Y-61009819D01*
X111048809Y-61009819D02*
X111144047Y-61057438D01*
X111144047Y-61057438D02*
X111191666Y-61105057D01*
X111191666Y-61105057D02*
X111239285Y-61200295D01*
X111239285Y-61200295D02*
X111286904Y-61390771D01*
X111286904Y-61390771D02*
X111286904Y-61628866D01*
X111286904Y-61628866D02*
X111239285Y-61819342D01*
X111239285Y-61819342D02*
X111191666Y-61914580D01*
X111191666Y-61914580D02*
X111144047Y-61962200D01*
X111144047Y-61962200D02*
X111048809Y-62009819D01*
X111048809Y-62009819D02*
X110953571Y-62009819D01*
X110953571Y-62009819D02*
X110858333Y-61962200D01*
X110858333Y-61962200D02*
X110810714Y-61914580D01*
X110810714Y-61914580D02*
X110763095Y-61819342D01*
X110763095Y-61819342D02*
X110715476Y-61628866D01*
X110715476Y-61628866D02*
X110715476Y-61390771D01*
X110715476Y-61390771D02*
X110763095Y-61200295D01*
X110763095Y-61200295D02*
X110810714Y-61105057D01*
X110810714Y-61105057D02*
X110858333Y-61057438D01*
X110858333Y-61057438D02*
X110953571Y-61009819D01*
X90554819Y-54866666D02*
X90078628Y-55199999D01*
X90554819Y-55438094D02*
X89554819Y-55438094D01*
X89554819Y-55438094D02*
X89554819Y-55057142D01*
X89554819Y-55057142D02*
X89602438Y-54961904D01*
X89602438Y-54961904D02*
X89650057Y-54914285D01*
X89650057Y-54914285D02*
X89745295Y-54866666D01*
X89745295Y-54866666D02*
X89888152Y-54866666D01*
X89888152Y-54866666D02*
X89983390Y-54914285D01*
X89983390Y-54914285D02*
X90031009Y-54961904D01*
X90031009Y-54961904D02*
X90078628Y-55057142D01*
X90078628Y-55057142D02*
X90078628Y-55438094D01*
X89650057Y-54485713D02*
X89602438Y-54438094D01*
X89602438Y-54438094D02*
X89554819Y-54342856D01*
X89554819Y-54342856D02*
X89554819Y-54104761D01*
X89554819Y-54104761D02*
X89602438Y-54009523D01*
X89602438Y-54009523D02*
X89650057Y-53961904D01*
X89650057Y-53961904D02*
X89745295Y-53914285D01*
X89745295Y-53914285D02*
X89840533Y-53914285D01*
X89840533Y-53914285D02*
X89983390Y-53961904D01*
X89983390Y-53961904D02*
X90554819Y-54533332D01*
X90554819Y-54533332D02*
X90554819Y-53914285D01*
X96963333Y-52179819D02*
X96487143Y-52179819D01*
X96487143Y-52179819D02*
X96487143Y-51179819D01*
X97820476Y-52179819D02*
X97249048Y-52179819D01*
X97534762Y-52179819D02*
X97534762Y-51179819D01*
X97534762Y-51179819D02*
X97439524Y-51322676D01*
X97439524Y-51322676D02*
X97344286Y-51417914D01*
X97344286Y-51417914D02*
X97249048Y-51465533D01*
X97208333Y-55804580D02*
X97160714Y-55852200D01*
X97160714Y-55852200D02*
X97017857Y-55899819D01*
X97017857Y-55899819D02*
X96922619Y-55899819D01*
X96922619Y-55899819D02*
X96779762Y-55852200D01*
X96779762Y-55852200D02*
X96684524Y-55756961D01*
X96684524Y-55756961D02*
X96636905Y-55661723D01*
X96636905Y-55661723D02*
X96589286Y-55471247D01*
X96589286Y-55471247D02*
X96589286Y-55328390D01*
X96589286Y-55328390D02*
X96636905Y-55137914D01*
X96636905Y-55137914D02*
X96684524Y-55042676D01*
X96684524Y-55042676D02*
X96779762Y-54947438D01*
X96779762Y-54947438D02*
X96922619Y-54899819D01*
X96922619Y-54899819D02*
X97017857Y-54899819D01*
X97017857Y-54899819D02*
X97160714Y-54947438D01*
X97160714Y-54947438D02*
X97208333Y-54995057D01*
X98065476Y-55233152D02*
X98065476Y-55899819D01*
X97827381Y-54852200D02*
X97589286Y-55566485D01*
X97589286Y-55566485D02*
X98208333Y-55566485D01*
X109382142Y-51914580D02*
X109334523Y-51962200D01*
X109334523Y-51962200D02*
X109191666Y-52009819D01*
X109191666Y-52009819D02*
X109096428Y-52009819D01*
X109096428Y-52009819D02*
X108953571Y-51962200D01*
X108953571Y-51962200D02*
X108858333Y-51866961D01*
X108858333Y-51866961D02*
X108810714Y-51771723D01*
X108810714Y-51771723D02*
X108763095Y-51581247D01*
X108763095Y-51581247D02*
X108763095Y-51438390D01*
X108763095Y-51438390D02*
X108810714Y-51247914D01*
X108810714Y-51247914D02*
X108858333Y-51152676D01*
X108858333Y-51152676D02*
X108953571Y-51057438D01*
X108953571Y-51057438D02*
X109096428Y-51009819D01*
X109096428Y-51009819D02*
X109191666Y-51009819D01*
X109191666Y-51009819D02*
X109334523Y-51057438D01*
X109334523Y-51057438D02*
X109382142Y-51105057D01*
X110334523Y-52009819D02*
X109763095Y-52009819D01*
X110048809Y-52009819D02*
X110048809Y-51009819D01*
X110048809Y-51009819D02*
X109953571Y-51152676D01*
X109953571Y-51152676D02*
X109858333Y-51247914D01*
X109858333Y-51247914D02*
X109763095Y-51295533D01*
X111191666Y-51343152D02*
X111191666Y-52009819D01*
X110953571Y-50962200D02*
X110715476Y-51676485D01*
X110715476Y-51676485D02*
X111334523Y-51676485D01*
X86033333Y-62054819D02*
X85700000Y-61578628D01*
X85461905Y-62054819D02*
X85461905Y-61054819D01*
X85461905Y-61054819D02*
X85842857Y-61054819D01*
X85842857Y-61054819D02*
X85938095Y-61102438D01*
X85938095Y-61102438D02*
X85985714Y-61150057D01*
X85985714Y-61150057D02*
X86033333Y-61245295D01*
X86033333Y-61245295D02*
X86033333Y-61388152D01*
X86033333Y-61388152D02*
X85985714Y-61483390D01*
X85985714Y-61483390D02*
X85938095Y-61531009D01*
X85938095Y-61531009D02*
X85842857Y-61578628D01*
X85842857Y-61578628D02*
X85461905Y-61578628D01*
X86938095Y-61054819D02*
X86461905Y-61054819D01*
X86461905Y-61054819D02*
X86414286Y-61531009D01*
X86414286Y-61531009D02*
X86461905Y-61483390D01*
X86461905Y-61483390D02*
X86557143Y-61435771D01*
X86557143Y-61435771D02*
X86795238Y-61435771D01*
X86795238Y-61435771D02*
X86890476Y-61483390D01*
X86890476Y-61483390D02*
X86938095Y-61531009D01*
X86938095Y-61531009D02*
X86985714Y-61626247D01*
X86985714Y-61626247D02*
X86985714Y-61864342D01*
X86985714Y-61864342D02*
X86938095Y-61959580D01*
X86938095Y-61959580D02*
X86890476Y-62007200D01*
X86890476Y-62007200D02*
X86795238Y-62054819D01*
X86795238Y-62054819D02*
X86557143Y-62054819D01*
X86557143Y-62054819D02*
X86461905Y-62007200D01*
X86461905Y-62007200D02*
X86414286Y-61959580D01*
X51033333Y-62154819D02*
X50700000Y-61678628D01*
X50461905Y-62154819D02*
X50461905Y-61154819D01*
X50461905Y-61154819D02*
X50842857Y-61154819D01*
X50842857Y-61154819D02*
X50938095Y-61202438D01*
X50938095Y-61202438D02*
X50985714Y-61250057D01*
X50985714Y-61250057D02*
X51033333Y-61345295D01*
X51033333Y-61345295D02*
X51033333Y-61488152D01*
X51033333Y-61488152D02*
X50985714Y-61583390D01*
X50985714Y-61583390D02*
X50938095Y-61631009D01*
X50938095Y-61631009D02*
X50842857Y-61678628D01*
X50842857Y-61678628D02*
X50461905Y-61678628D01*
X51604762Y-61583390D02*
X51509524Y-61535771D01*
X51509524Y-61535771D02*
X51461905Y-61488152D01*
X51461905Y-61488152D02*
X51414286Y-61392914D01*
X51414286Y-61392914D02*
X51414286Y-61345295D01*
X51414286Y-61345295D02*
X51461905Y-61250057D01*
X51461905Y-61250057D02*
X51509524Y-61202438D01*
X51509524Y-61202438D02*
X51604762Y-61154819D01*
X51604762Y-61154819D02*
X51795238Y-61154819D01*
X51795238Y-61154819D02*
X51890476Y-61202438D01*
X51890476Y-61202438D02*
X51938095Y-61250057D01*
X51938095Y-61250057D02*
X51985714Y-61345295D01*
X51985714Y-61345295D02*
X51985714Y-61392914D01*
X51985714Y-61392914D02*
X51938095Y-61488152D01*
X51938095Y-61488152D02*
X51890476Y-61535771D01*
X51890476Y-61535771D02*
X51795238Y-61583390D01*
X51795238Y-61583390D02*
X51604762Y-61583390D01*
X51604762Y-61583390D02*
X51509524Y-61631009D01*
X51509524Y-61631009D02*
X51461905Y-61678628D01*
X51461905Y-61678628D02*
X51414286Y-61773866D01*
X51414286Y-61773866D02*
X51414286Y-61964342D01*
X51414286Y-61964342D02*
X51461905Y-62059580D01*
X51461905Y-62059580D02*
X51509524Y-62107200D01*
X51509524Y-62107200D02*
X51604762Y-62154819D01*
X51604762Y-62154819D02*
X51795238Y-62154819D01*
X51795238Y-62154819D02*
X51890476Y-62107200D01*
X51890476Y-62107200D02*
X51938095Y-62059580D01*
X51938095Y-62059580D02*
X51985714Y-61964342D01*
X51985714Y-61964342D02*
X51985714Y-61773866D01*
X51985714Y-61773866D02*
X51938095Y-61678628D01*
X51938095Y-61678628D02*
X51890476Y-61631009D01*
X51890476Y-61631009D02*
X51795238Y-61583390D01*
X106880819Y-51538094D02*
X105880819Y-51538094D01*
X105880819Y-51538094D02*
X105880819Y-51299999D01*
X105880819Y-51299999D02*
X105928438Y-51157142D01*
X105928438Y-51157142D02*
X106023676Y-51061904D01*
X106023676Y-51061904D02*
X106118914Y-51014285D01*
X106118914Y-51014285D02*
X106309390Y-50966666D01*
X106309390Y-50966666D02*
X106452247Y-50966666D01*
X106452247Y-50966666D02*
X106642723Y-51014285D01*
X106642723Y-51014285D02*
X106737961Y-51061904D01*
X106737961Y-51061904D02*
X106833200Y-51157142D01*
X106833200Y-51157142D02*
X106880819Y-51299999D01*
X106880819Y-51299999D02*
X106880819Y-51538094D01*
X106880819Y-50014285D02*
X106880819Y-50585713D01*
X106880819Y-50299999D02*
X105880819Y-50299999D01*
X105880819Y-50299999D02*
X106023676Y-50395237D01*
X106023676Y-50395237D02*
X106118914Y-50490475D01*
X106118914Y-50490475D02*
X106166533Y-50585713D01*
X79859580Y-62766666D02*
X79907200Y-62814285D01*
X79907200Y-62814285D02*
X79954819Y-62957142D01*
X79954819Y-62957142D02*
X79954819Y-63052380D01*
X79954819Y-63052380D02*
X79907200Y-63195237D01*
X79907200Y-63195237D02*
X79811961Y-63290475D01*
X79811961Y-63290475D02*
X79716723Y-63338094D01*
X79716723Y-63338094D02*
X79526247Y-63385713D01*
X79526247Y-63385713D02*
X79383390Y-63385713D01*
X79383390Y-63385713D02*
X79192914Y-63338094D01*
X79192914Y-63338094D02*
X79097676Y-63290475D01*
X79097676Y-63290475D02*
X79002438Y-63195237D01*
X79002438Y-63195237D02*
X78954819Y-63052380D01*
X78954819Y-63052380D02*
X78954819Y-62957142D01*
X78954819Y-62957142D02*
X79002438Y-62814285D01*
X79002438Y-62814285D02*
X79050057Y-62766666D01*
X79954819Y-61814285D02*
X79954819Y-62385713D01*
X79954819Y-62099999D02*
X78954819Y-62099999D01*
X78954819Y-62099999D02*
X79097676Y-62195237D01*
X79097676Y-62195237D02*
X79192914Y-62290475D01*
X79192914Y-62290475D02*
X79240533Y-62385713D01*
D14*
X81988415Y-63445434D02*
X81988415Y-63765086D01*
X81988415Y-63765086D02*
X82007218Y-63802692D01*
X82007218Y-63802692D02*
X82026021Y-63821496D01*
X82026021Y-63821496D02*
X82063627Y-63840299D01*
X82063627Y-63840299D02*
X82138840Y-63840299D01*
X82138840Y-63840299D02*
X82176446Y-63821496D01*
X82176446Y-63821496D02*
X82195249Y-63802692D01*
X82195249Y-63802692D02*
X82214052Y-63765086D01*
X82214052Y-63765086D02*
X82214052Y-63445434D01*
X82383280Y-63483040D02*
X82402083Y-63464237D01*
X82402083Y-63464237D02*
X82439689Y-63445434D01*
X82439689Y-63445434D02*
X82533705Y-63445434D01*
X82533705Y-63445434D02*
X82571311Y-63464237D01*
X82571311Y-63464237D02*
X82590114Y-63483040D01*
X82590114Y-63483040D02*
X82608917Y-63520646D01*
X82608917Y-63520646D02*
X82608917Y-63558252D01*
X82608917Y-63558252D02*
X82590114Y-63614661D01*
X82590114Y-63614661D02*
X82364477Y-63840299D01*
X82364477Y-63840299D02*
X82608917Y-63840299D01*
D12*
X80979819Y-51572916D02*
X80503628Y-51906249D01*
X80979819Y-52144344D02*
X79979819Y-52144344D01*
X79979819Y-52144344D02*
X79979819Y-51763392D01*
X79979819Y-51763392D02*
X80027438Y-51668154D01*
X80027438Y-51668154D02*
X80075057Y-51620535D01*
X80075057Y-51620535D02*
X80170295Y-51572916D01*
X80170295Y-51572916D02*
X80313152Y-51572916D01*
X80313152Y-51572916D02*
X80408390Y-51620535D01*
X80408390Y-51620535D02*
X80456009Y-51668154D01*
X80456009Y-51668154D02*
X80503628Y-51763392D01*
X80503628Y-51763392D02*
X80503628Y-52144344D01*
X79979819Y-50715773D02*
X79979819Y-50906249D01*
X79979819Y-50906249D02*
X80027438Y-51001487D01*
X80027438Y-51001487D02*
X80075057Y-51049106D01*
X80075057Y-51049106D02*
X80217914Y-51144344D01*
X80217914Y-51144344D02*
X80408390Y-51191963D01*
X80408390Y-51191963D02*
X80789342Y-51191963D01*
X80789342Y-51191963D02*
X80884580Y-51144344D01*
X80884580Y-51144344D02*
X80932200Y-51096725D01*
X80932200Y-51096725D02*
X80979819Y-51001487D01*
X80979819Y-51001487D02*
X80979819Y-50811011D01*
X80979819Y-50811011D02*
X80932200Y-50715773D01*
X80932200Y-50715773D02*
X80884580Y-50668154D01*
X80884580Y-50668154D02*
X80789342Y-50620535D01*
X80789342Y-50620535D02*
X80551247Y-50620535D01*
X80551247Y-50620535D02*
X80456009Y-50668154D01*
X80456009Y-50668154D02*
X80408390Y-50715773D01*
X80408390Y-50715773D02*
X80360771Y-50811011D01*
X80360771Y-50811011D02*
X80360771Y-51001487D01*
X80360771Y-51001487D02*
X80408390Y-51096725D01*
X80408390Y-51096725D02*
X80456009Y-51144344D01*
X80456009Y-51144344D02*
X80551247Y-51191963D01*
X109858333Y-66054580D02*
X109810714Y-66102200D01*
X109810714Y-66102200D02*
X109667857Y-66149819D01*
X109667857Y-66149819D02*
X109572619Y-66149819D01*
X109572619Y-66149819D02*
X109429762Y-66102200D01*
X109429762Y-66102200D02*
X109334524Y-66006961D01*
X109334524Y-66006961D02*
X109286905Y-65911723D01*
X109286905Y-65911723D02*
X109239286Y-65721247D01*
X109239286Y-65721247D02*
X109239286Y-65578390D01*
X109239286Y-65578390D02*
X109286905Y-65387914D01*
X109286905Y-65387914D02*
X109334524Y-65292676D01*
X109334524Y-65292676D02*
X109429762Y-65197438D01*
X109429762Y-65197438D02*
X109572619Y-65149819D01*
X109572619Y-65149819D02*
X109667857Y-65149819D01*
X109667857Y-65149819D02*
X109810714Y-65197438D01*
X109810714Y-65197438D02*
X109858333Y-65245057D01*
X110429762Y-65578390D02*
X110334524Y-65530771D01*
X110334524Y-65530771D02*
X110286905Y-65483152D01*
X110286905Y-65483152D02*
X110239286Y-65387914D01*
X110239286Y-65387914D02*
X110239286Y-65340295D01*
X110239286Y-65340295D02*
X110286905Y-65245057D01*
X110286905Y-65245057D02*
X110334524Y-65197438D01*
X110334524Y-65197438D02*
X110429762Y-65149819D01*
X110429762Y-65149819D02*
X110620238Y-65149819D01*
X110620238Y-65149819D02*
X110715476Y-65197438D01*
X110715476Y-65197438D02*
X110763095Y-65245057D01*
X110763095Y-65245057D02*
X110810714Y-65340295D01*
X110810714Y-65340295D02*
X110810714Y-65387914D01*
X110810714Y-65387914D02*
X110763095Y-65483152D01*
X110763095Y-65483152D02*
X110715476Y-65530771D01*
X110715476Y-65530771D02*
X110620238Y-65578390D01*
X110620238Y-65578390D02*
X110429762Y-65578390D01*
X110429762Y-65578390D02*
X110334524Y-65626009D01*
X110334524Y-65626009D02*
X110286905Y-65673628D01*
X110286905Y-65673628D02*
X110239286Y-65768866D01*
X110239286Y-65768866D02*
X110239286Y-65959342D01*
X110239286Y-65959342D02*
X110286905Y-66054580D01*
X110286905Y-66054580D02*
X110334524Y-66102200D01*
X110334524Y-66102200D02*
X110429762Y-66149819D01*
X110429762Y-66149819D02*
X110620238Y-66149819D01*
X110620238Y-66149819D02*
X110715476Y-66102200D01*
X110715476Y-66102200D02*
X110763095Y-66054580D01*
X110763095Y-66054580D02*
X110810714Y-65959342D01*
X110810714Y-65959342D02*
X110810714Y-65768866D01*
X110810714Y-65768866D02*
X110763095Y-65673628D01*
X110763095Y-65673628D02*
X110715476Y-65626009D01*
X110715476Y-65626009D02*
X110620238Y-65578390D01*
X109382142Y-59414580D02*
X109334523Y-59462200D01*
X109334523Y-59462200D02*
X109191666Y-59509819D01*
X109191666Y-59509819D02*
X109096428Y-59509819D01*
X109096428Y-59509819D02*
X108953571Y-59462200D01*
X108953571Y-59462200D02*
X108858333Y-59366961D01*
X108858333Y-59366961D02*
X108810714Y-59271723D01*
X108810714Y-59271723D02*
X108763095Y-59081247D01*
X108763095Y-59081247D02*
X108763095Y-58938390D01*
X108763095Y-58938390D02*
X108810714Y-58747914D01*
X108810714Y-58747914D02*
X108858333Y-58652676D01*
X108858333Y-58652676D02*
X108953571Y-58557438D01*
X108953571Y-58557438D02*
X109096428Y-58509819D01*
X109096428Y-58509819D02*
X109191666Y-58509819D01*
X109191666Y-58509819D02*
X109334523Y-58557438D01*
X109334523Y-58557438D02*
X109382142Y-58605057D01*
X110334523Y-59509819D02*
X109763095Y-59509819D01*
X110048809Y-59509819D02*
X110048809Y-58509819D01*
X110048809Y-58509819D02*
X109953571Y-58652676D01*
X109953571Y-58652676D02*
X109858333Y-58747914D01*
X109858333Y-58747914D02*
X109763095Y-58795533D01*
X111286904Y-59509819D02*
X110715476Y-59509819D01*
X111001190Y-59509819D02*
X111001190Y-58509819D01*
X111001190Y-58509819D02*
X110905952Y-58652676D01*
X110905952Y-58652676D02*
X110810714Y-58747914D01*
X110810714Y-58747914D02*
X110715476Y-58795533D01*
X80979819Y-55572916D02*
X80503628Y-55906249D01*
X80979819Y-56144344D02*
X79979819Y-56144344D01*
X79979819Y-56144344D02*
X79979819Y-55763392D01*
X79979819Y-55763392D02*
X80027438Y-55668154D01*
X80027438Y-55668154D02*
X80075057Y-55620535D01*
X80075057Y-55620535D02*
X80170295Y-55572916D01*
X80170295Y-55572916D02*
X80313152Y-55572916D01*
X80313152Y-55572916D02*
X80408390Y-55620535D01*
X80408390Y-55620535D02*
X80456009Y-55668154D01*
X80456009Y-55668154D02*
X80503628Y-55763392D01*
X80503628Y-55763392D02*
X80503628Y-56144344D01*
X80313152Y-54715773D02*
X80979819Y-54715773D01*
X79932200Y-54953868D02*
X80646485Y-55191963D01*
X80646485Y-55191963D02*
X80646485Y-54572916D01*
X109858333Y-63554580D02*
X109810714Y-63602200D01*
X109810714Y-63602200D02*
X109667857Y-63649819D01*
X109667857Y-63649819D02*
X109572619Y-63649819D01*
X109572619Y-63649819D02*
X109429762Y-63602200D01*
X109429762Y-63602200D02*
X109334524Y-63506961D01*
X109334524Y-63506961D02*
X109286905Y-63411723D01*
X109286905Y-63411723D02*
X109239286Y-63221247D01*
X109239286Y-63221247D02*
X109239286Y-63078390D01*
X109239286Y-63078390D02*
X109286905Y-62887914D01*
X109286905Y-62887914D02*
X109334524Y-62792676D01*
X109334524Y-62792676D02*
X109429762Y-62697438D01*
X109429762Y-62697438D02*
X109572619Y-62649819D01*
X109572619Y-62649819D02*
X109667857Y-62649819D01*
X109667857Y-62649819D02*
X109810714Y-62697438D01*
X109810714Y-62697438D02*
X109858333Y-62745057D01*
X110191667Y-62649819D02*
X110858333Y-62649819D01*
X110858333Y-62649819D02*
X110429762Y-63649819D01*
X92533333Y-59554819D02*
X92200000Y-59078628D01*
X91961905Y-59554819D02*
X91961905Y-58554819D01*
X91961905Y-58554819D02*
X92342857Y-58554819D01*
X92342857Y-58554819D02*
X92438095Y-58602438D01*
X92438095Y-58602438D02*
X92485714Y-58650057D01*
X92485714Y-58650057D02*
X92533333Y-58745295D01*
X92533333Y-58745295D02*
X92533333Y-58888152D01*
X92533333Y-58888152D02*
X92485714Y-58983390D01*
X92485714Y-58983390D02*
X92438095Y-59031009D01*
X92438095Y-59031009D02*
X92342857Y-59078628D01*
X92342857Y-59078628D02*
X91961905Y-59078628D01*
X93485714Y-59554819D02*
X92914286Y-59554819D01*
X93200000Y-59554819D02*
X93200000Y-58554819D01*
X93200000Y-58554819D02*
X93104762Y-58697676D01*
X93104762Y-58697676D02*
X93009524Y-58792914D01*
X93009524Y-58792914D02*
X92914286Y-58840533D01*
X50666666Y-45154819D02*
X50666666Y-45869104D01*
X50666666Y-45869104D02*
X50619047Y-46011961D01*
X50619047Y-46011961D02*
X50523809Y-46107200D01*
X50523809Y-46107200D02*
X50380952Y-46154819D01*
X50380952Y-46154819D02*
X50285714Y-46154819D01*
X51095238Y-45250057D02*
X51142857Y-45202438D01*
X51142857Y-45202438D02*
X51238095Y-45154819D01*
X51238095Y-45154819D02*
X51476190Y-45154819D01*
X51476190Y-45154819D02*
X51571428Y-45202438D01*
X51571428Y-45202438D02*
X51619047Y-45250057D01*
X51619047Y-45250057D02*
X51666666Y-45345295D01*
X51666666Y-45345295D02*
X51666666Y-45440533D01*
X51666666Y-45440533D02*
X51619047Y-45583390D01*
X51619047Y-45583390D02*
X51047619Y-46154819D01*
X51047619Y-46154819D02*
X51666666Y-46154819D01*
X39507200Y-61233332D02*
X39554819Y-61090475D01*
X39554819Y-61090475D02*
X39554819Y-60852380D01*
X39554819Y-60852380D02*
X39507200Y-60757142D01*
X39507200Y-60757142D02*
X39459580Y-60709523D01*
X39459580Y-60709523D02*
X39364342Y-60661904D01*
X39364342Y-60661904D02*
X39269104Y-60661904D01*
X39269104Y-60661904D02*
X39173866Y-60709523D01*
X39173866Y-60709523D02*
X39126247Y-60757142D01*
X39126247Y-60757142D02*
X39078628Y-60852380D01*
X39078628Y-60852380D02*
X39031009Y-61042856D01*
X39031009Y-61042856D02*
X38983390Y-61138094D01*
X38983390Y-61138094D02*
X38935771Y-61185713D01*
X38935771Y-61185713D02*
X38840533Y-61233332D01*
X38840533Y-61233332D02*
X38745295Y-61233332D01*
X38745295Y-61233332D02*
X38650057Y-61185713D01*
X38650057Y-61185713D02*
X38602438Y-61138094D01*
X38602438Y-61138094D02*
X38554819Y-61042856D01*
X38554819Y-61042856D02*
X38554819Y-60804761D01*
X38554819Y-60804761D02*
X38602438Y-60661904D01*
X38554819Y-60328570D02*
X39554819Y-60090475D01*
X39554819Y-60090475D02*
X38840533Y-59899999D01*
X38840533Y-59899999D02*
X39554819Y-59709523D01*
X39554819Y-59709523D02*
X38554819Y-59471428D01*
X39554819Y-58566666D02*
X39554819Y-59138094D01*
X39554819Y-58852380D02*
X38554819Y-58852380D01*
X38554819Y-58852380D02*
X38697676Y-58947618D01*
X38697676Y-58947618D02*
X38792914Y-59042856D01*
X38792914Y-59042856D02*
X38840533Y-59138094D01*
X97369333Y-49381580D02*
X97321714Y-49429200D01*
X97321714Y-49429200D02*
X97178857Y-49476819D01*
X97178857Y-49476819D02*
X97083619Y-49476819D01*
X97083619Y-49476819D02*
X96940762Y-49429200D01*
X96940762Y-49429200D02*
X96845524Y-49333961D01*
X96845524Y-49333961D02*
X96797905Y-49238723D01*
X96797905Y-49238723D02*
X96750286Y-49048247D01*
X96750286Y-49048247D02*
X96750286Y-48905390D01*
X96750286Y-48905390D02*
X96797905Y-48714914D01*
X96797905Y-48714914D02*
X96845524Y-48619676D01*
X96845524Y-48619676D02*
X96940762Y-48524438D01*
X96940762Y-48524438D02*
X97083619Y-48476819D01*
X97083619Y-48476819D02*
X97178857Y-48476819D01*
X97178857Y-48476819D02*
X97321714Y-48524438D01*
X97321714Y-48524438D02*
X97369333Y-48572057D01*
X98274095Y-48476819D02*
X97797905Y-48476819D01*
X97797905Y-48476819D02*
X97750286Y-48953009D01*
X97750286Y-48953009D02*
X97797905Y-48905390D01*
X97797905Y-48905390D02*
X97893143Y-48857771D01*
X97893143Y-48857771D02*
X98131238Y-48857771D01*
X98131238Y-48857771D02*
X98226476Y-48905390D01*
X98226476Y-48905390D02*
X98274095Y-48953009D01*
X98274095Y-48953009D02*
X98321714Y-49048247D01*
X98321714Y-49048247D02*
X98321714Y-49286342D01*
X98321714Y-49286342D02*
X98274095Y-49381580D01*
X98274095Y-49381580D02*
X98226476Y-49429200D01*
X98226476Y-49429200D02*
X98131238Y-49476819D01*
X98131238Y-49476819D02*
X97893143Y-49476819D01*
X97893143Y-49476819D02*
X97797905Y-49429200D01*
X97797905Y-49429200D02*
X97750286Y-49381580D01*
X88750057Y-51595238D02*
X88702438Y-51690476D01*
X88702438Y-51690476D02*
X88607200Y-51785714D01*
X88607200Y-51785714D02*
X88464342Y-51928571D01*
X88464342Y-51928571D02*
X88416723Y-52023809D01*
X88416723Y-52023809D02*
X88416723Y-52119047D01*
X88654819Y-52071428D02*
X88607200Y-52166666D01*
X88607200Y-52166666D02*
X88511961Y-52261904D01*
X88511961Y-52261904D02*
X88321485Y-52309523D01*
X88321485Y-52309523D02*
X87988152Y-52309523D01*
X87988152Y-52309523D02*
X87797676Y-52261904D01*
X87797676Y-52261904D02*
X87702438Y-52166666D01*
X87702438Y-52166666D02*
X87654819Y-52071428D01*
X87654819Y-52071428D02*
X87654819Y-51880952D01*
X87654819Y-51880952D02*
X87702438Y-51785714D01*
X87702438Y-51785714D02*
X87797676Y-51690476D01*
X87797676Y-51690476D02*
X87988152Y-51642857D01*
X87988152Y-51642857D02*
X88321485Y-51642857D01*
X88321485Y-51642857D02*
X88511961Y-51690476D01*
X88511961Y-51690476D02*
X88607200Y-51785714D01*
X88607200Y-51785714D02*
X88654819Y-51880952D01*
X88654819Y-51880952D02*
X88654819Y-52071428D01*
X87750057Y-51261904D02*
X87702438Y-51214285D01*
X87702438Y-51214285D02*
X87654819Y-51119047D01*
X87654819Y-51119047D02*
X87654819Y-50880952D01*
X87654819Y-50880952D02*
X87702438Y-50785714D01*
X87702438Y-50785714D02*
X87750057Y-50738095D01*
X87750057Y-50738095D02*
X87845295Y-50690476D01*
X87845295Y-50690476D02*
X87940533Y-50690476D01*
X87940533Y-50690476D02*
X88083390Y-50738095D01*
X88083390Y-50738095D02*
X88654819Y-51309523D01*
X88654819Y-51309523D02*
X88654819Y-50690476D01*
D15*
%TO.C,C15*%
X77640000Y-59113748D02*
X77640000Y-59636252D01*
X79110000Y-59113748D02*
X79110000Y-59636252D01*
%TO.C,R7*%
X54264564Y-59933750D02*
X53810436Y-59933750D01*
X54264564Y-61403750D02*
X53810436Y-61403750D01*
%TO.C,C3*%
X87278748Y-65895000D02*
X87801252Y-65895000D01*
X87278748Y-67365000D02*
X87801252Y-67365000D01*
%TO.C,Q1*%
X92875000Y-50065000D02*
X92225000Y-50065000D01*
X92875000Y-50065000D02*
X93525000Y-50065000D01*
X92875000Y-53185000D02*
X92225000Y-53185000D01*
X92875000Y-53185000D02*
X93525000Y-53185000D01*
X91712500Y-50115000D02*
X91472500Y-49785000D01*
X91952500Y-49785000D01*
X91712500Y-50115000D01*
G36*
X91712500Y-50115000D02*
G01*
X91472500Y-49785000D01*
X91952500Y-49785000D01*
X91712500Y-50115000D01*
G37*
%TO.C,C6*%
X81440000Y-59144998D02*
X81440000Y-59667502D01*
X82910000Y-59144998D02*
X82910000Y-59667502D01*
%TO.C,C12*%
X110286252Y-54140000D02*
X109763748Y-54140000D01*
X110286252Y-55610000D02*
X109763748Y-55610000D01*
%TO.C,Q3*%
X84115000Y-55906250D02*
X84115000Y-55256250D01*
X84115000Y-55906250D02*
X84115000Y-56556250D01*
X87235000Y-55906250D02*
X87235000Y-55256250D01*
X87235000Y-55906250D02*
X87235000Y-56556250D01*
X87515000Y-54983750D02*
X87185000Y-54743750D01*
X87515000Y-54503750D01*
X87515000Y-54983750D01*
G36*
X87515000Y-54983750D02*
G01*
X87185000Y-54743750D01*
X87515000Y-54503750D01*
X87515000Y-54983750D01*
G37*
%TO.C,D2*%
X100515000Y-53275000D02*
X100515000Y-55275000D01*
X100515000Y-53275000D02*
X104525000Y-53275000D01*
X100515000Y-55275000D02*
X104525000Y-55275000D01*
D10*
%TO.C,U1*%
X57991364Y-49815000D02*
X57991364Y-66960000D01*
X59896364Y-68865000D02*
X73866364Y-68865000D01*
D16*
X62377364Y-69875000D02*
X62377364Y-68865000D01*
X70872636Y-70375000D02*
X62877364Y-70375000D01*
X71376364Y-68865000D02*
X71372636Y-69875272D01*
D10*
X73866364Y-47910000D02*
X59896364Y-47910000D01*
X75771364Y-49815000D02*
X75771364Y-66960000D01*
X57991364Y-49815000D02*
G75*
G02*
X59896364Y-47909994I1904996J10D01*
G01*
X59896364Y-68865000D02*
G75*
G02*
X57991360Y-66960000I6J1905010D01*
G01*
D16*
X62877364Y-70375000D02*
G75*
G02*
X62377370Y-69875000I-4J499990D01*
G01*
X71372636Y-69875272D02*
G75*
G02*
X70872636Y-70374999I-500018J291D01*
G01*
D10*
X73866364Y-47910000D02*
G75*
G02*
X75771364Y-49815000I-1J-1905001D01*
G01*
X75771364Y-66964000D02*
G75*
G02*
X73866364Y-68869000I-1905001J1D01*
G01*
D17*
X75016364Y-67726000D02*
G75*
G02*
X74512364Y-67726000I-252000J0D01*
G01*
X74512364Y-67726000D02*
G75*
G02*
X75016364Y-67726000I252000J0D01*
G01*
X76233364Y-68449000D02*
G75*
G02*
X75729364Y-68449000I-252000J0D01*
G01*
X75729364Y-68449000D02*
G75*
G02*
X76233364Y-68449000I252000J0D01*
G01*
D15*
%TO.C,U3*%
X96487500Y-60490000D02*
X94287500Y-60490000D01*
X96487500Y-60490000D02*
X98687500Y-60490000D01*
X96487500Y-67260000D02*
X94287500Y-67260000D01*
X96487500Y-67260000D02*
X98687500Y-67260000D01*
X100677500Y-67040000D02*
X100347500Y-66800000D01*
X100677500Y-66560000D01*
X100677500Y-67040000D01*
G36*
X100677500Y-67040000D02*
G01*
X100347500Y-66800000D01*
X100677500Y-66560000D01*
X100677500Y-67040000D01*
G37*
D16*
%TO.C,J1*%
X115075000Y-50875000D02*
X115375000Y-50625000D01*
X115075000Y-51375000D02*
X115075000Y-50875000D01*
X115075000Y-65375000D02*
X115075000Y-65875000D01*
X115075000Y-65875000D02*
X115375000Y-66125000D01*
X115375000Y-50625000D02*
X118025000Y-50625000D01*
X115375000Y-66125000D02*
X117975000Y-66125000D01*
X115575000Y-51375000D02*
X115075000Y-51375000D01*
X115575000Y-52175000D02*
X115575000Y-51375000D01*
X115575000Y-64575000D02*
X115575000Y-65375000D01*
X115575000Y-65375000D02*
X115075000Y-65375000D01*
X119995000Y-66125000D02*
X119995000Y-50625000D01*
X114475000Y-64475000D02*
G75*
G02*
X114275000Y-64475000I-100000J0D01*
G01*
X114275000Y-64475000D02*
G75*
G02*
X114475000Y-64475000I100000J0D01*
G01*
D15*
%TO.C,C9*%
X109763748Y-61640000D02*
X110286252Y-61640000D01*
X109763748Y-63110000D02*
X110286252Y-63110000D01*
%TO.C,C13*%
X110286252Y-51640000D02*
X109763748Y-51640000D01*
X110286252Y-53110000D02*
X109763748Y-53110000D01*
%TO.C,C2*%
X87278748Y-63385000D02*
X87801252Y-63385000D01*
X87278748Y-64855000D02*
X87801252Y-64855000D01*
%TO.C,D3*%
X105235000Y-56625000D02*
X101225000Y-56625000D01*
X105235000Y-58625000D02*
X101225000Y-58625000D01*
X105235000Y-58625000D02*
X105235000Y-56625000D01*
%TO.C,C10*%
X110286252Y-59140000D02*
X109763748Y-59140000D01*
X110286252Y-60610000D02*
X109763748Y-60610000D01*
%TO.C,R2*%
X92147936Y-53890000D02*
X92602064Y-53890000D01*
X92147936Y-55360000D02*
X92602064Y-55360000D01*
D16*
%TO.C,L1*%
X98852500Y-52855000D02*
X95652500Y-52855000D01*
X98852500Y-55495000D02*
X95652500Y-55495000D01*
D15*
%TO.C,C4*%
X97113748Y-56390000D02*
X97636252Y-56390000D01*
X97113748Y-57860000D02*
X97636252Y-57860000D01*
%TO.C,C14*%
X110286252Y-49140000D02*
X109763748Y-49140000D01*
X110286252Y-50610000D02*
X109763748Y-50610000D01*
%TO.C,R5*%
X85447936Y-59171250D02*
X85902064Y-59171250D01*
X85447936Y-60641250D02*
X85902064Y-60641250D01*
%TO.C,R8*%
X53722936Y-63433750D02*
X54177064Y-63433750D01*
X53722936Y-64903750D02*
X54177064Y-64903750D01*
%TO.C,D1*%
X105235000Y-49925000D02*
X101225000Y-49925000D01*
X105235000Y-51925000D02*
X101225000Y-51925000D01*
X105235000Y-51925000D02*
X105235000Y-49925000D01*
%TO.C,C1*%
X81778748Y-61885000D02*
X82301252Y-61885000D01*
X81778748Y-63355000D02*
X82301252Y-63355000D01*
D18*
%TO.C,U2*%
X81210000Y-64520000D02*
G75*
G02*
X81070000Y-64520000I-70000J0D01*
G01*
X81070000Y-64520000D02*
G75*
G02*
X81210000Y-64520000I70000J0D01*
G01*
D15*
%TO.C,R6*%
X81440000Y-51633314D02*
X81440000Y-51179186D01*
X82910000Y-51633314D02*
X82910000Y-51179186D01*
%TO.C,C8*%
X109763748Y-66640000D02*
X110286252Y-66640000D01*
X109763748Y-68110000D02*
X110286252Y-68110000D01*
%TO.C,C11*%
X110286252Y-56640000D02*
X109763748Y-56640000D01*
X110286252Y-58110000D02*
X109763748Y-58110000D01*
%TO.C,R4*%
X81440000Y-55633314D02*
X81440000Y-55179186D01*
X82910000Y-55633314D02*
X82910000Y-55179186D01*
%TO.C,C7*%
X109763748Y-64140000D02*
X110286252Y-64140000D01*
X109763748Y-65610000D02*
X110286252Y-65610000D01*
%TO.C,R1*%
X92602064Y-56390000D02*
X92147936Y-56390000D01*
X92602064Y-57860000D02*
X92147936Y-57860000D01*
%TO.C,J2*%
X47140000Y-44722500D02*
X54860000Y-44722500D01*
X47140000Y-45942500D02*
X48360000Y-45942500D01*
X47140000Y-53142500D02*
X47140000Y-44722500D01*
X48360000Y-45942500D02*
X48360000Y-50942500D01*
X48360000Y-49942500D02*
X53640000Y-49942500D01*
X48360000Y-50942500D02*
X47140000Y-50942500D01*
X48360000Y-50942500D02*
X48360000Y-53142500D01*
X48360000Y-53142500D02*
X47140000Y-53142500D01*
X49430000Y-46522500D02*
X49750000Y-46442500D01*
X49430000Y-49942500D02*
X49430000Y-46522500D01*
X49450000Y-53632500D02*
X50050000Y-53632500D01*
X49750000Y-46442500D02*
X50070000Y-46522500D01*
X49750000Y-49942500D02*
X49430000Y-49942500D01*
X49750000Y-53032500D02*
X49450000Y-53632500D01*
X50050000Y-53632500D02*
X49750000Y-53032500D01*
X50070000Y-46522500D02*
X50070000Y-49942500D01*
X50070000Y-49942500D02*
X49750000Y-49942500D01*
X50920000Y-50942500D02*
X51080000Y-50942500D01*
X51930000Y-46522500D02*
X52250000Y-46442500D01*
X51930000Y-49942500D02*
X51930000Y-46522500D01*
X52250000Y-46442500D02*
X52570000Y-46522500D01*
X52250000Y-49942500D02*
X51930000Y-49942500D01*
X52570000Y-46522500D02*
X52570000Y-49942500D01*
X52570000Y-49942500D02*
X52250000Y-49942500D01*
X53640000Y-45942500D02*
X53640000Y-50942500D01*
X53640000Y-50942500D02*
X54860000Y-50942500D01*
X53640000Y-53142500D02*
X53640000Y-50942500D01*
X54860000Y-44722500D02*
X54860000Y-53142500D01*
X54860000Y-45942500D02*
X53640000Y-45942500D01*
X54860000Y-53142500D02*
X53640000Y-53142500D01*
%TO.C,SW1*%
X39000000Y-55400000D02*
X41300000Y-55400000D01*
X41300000Y-55400000D02*
X41300000Y-56600000D01*
X41300000Y-59100000D02*
X41300000Y-58400000D01*
X41300000Y-61600000D02*
X41300000Y-60900000D01*
X41300000Y-63400000D02*
X41300000Y-64600000D01*
X41300000Y-64600000D02*
X39000000Y-64600000D01*
%TO.C,C5*%
X97113748Y-50390000D02*
X97636252Y-50390000D01*
X97113748Y-51860000D02*
X97636252Y-51860000D01*
%TO.C,Q2*%
X84065000Y-51843750D02*
X84065000Y-51193750D01*
X84065000Y-51843750D02*
X84065000Y-52493750D01*
X87185000Y-51843750D02*
X87185000Y-51193750D01*
X87185000Y-51843750D02*
X87185000Y-52493750D01*
X87465000Y-50921250D02*
X87135000Y-50681250D01*
X87465000Y-50441250D01*
X87465000Y-50921250D01*
G36*
X87465000Y-50921250D02*
G01*
X87135000Y-50681250D01*
X87465000Y-50441250D01*
X87465000Y-50921250D01*
G37*
%TD*%
M02*
