%TF.GenerationSoftware,KiCad,Pcbnew,8.0.7*%
%TF.CreationDate,2025-01-13T19:39:37-06:00*%
%TF.ProjectId,love-letters,6c6f7665-2d6c-4657-9474-6572732e6b69,rev?*%
%TF.SameCoordinates,Original*%
%TF.FileFunction,Copper,L2,Bot*%
%TF.FilePolarity,Positive*%
%FSLAX46Y46*%
G04 Gerber Fmt 4.6, Leading zero omitted, Abs format (unit mm)*
G04 Created by KiCad (PCBNEW 8.0.7) date 2025-01-13 19:39:37*
%MOMM*%
%LPD*%
G01*
G04 APERTURE LIST*
G04 Aperture macros list*
%AMRoundRect*
0 Rectangle with rounded corners*
0 $1 Rounding radius*
0 $2 $3 $4 $5 $6 $7 $8 $9 X,Y pos of 4 corners*
0 Add a 4 corners polygon primitive as box body*
4,1,4,$2,$3,$4,$5,$6,$7,$8,$9,$2,$3,0*
0 Add four circle primitives for the rounded corners*
1,1,$1+$1,$2,$3*
1,1,$1+$1,$4,$5*
1,1,$1+$1,$6,$7*
1,1,$1+$1,$8,$9*
0 Add four rect primitives between the rounded corners*
20,1,$1+$1,$2,$3,$4,$5,0*
20,1,$1+$1,$4,$5,$6,$7,0*
20,1,$1+$1,$6,$7,$8,$9,0*
20,1,$1+$1,$8,$9,$2,$3,0*%
G04 Aperture macros list end*
%TA.AperFunction,ComponentPad*%
%ADD10C,4.400000*%
%TD*%
%TA.AperFunction,ComponentPad*%
%ADD11RoundRect,0.250000X-0.600000X-0.750000X0.600000X-0.750000X0.600000X0.750000X-0.600000X0.750000X0*%
%TD*%
%TA.AperFunction,ComponentPad*%
%ADD12O,1.700000X2.000000*%
%TD*%
%TA.AperFunction,ViaPad*%
%ADD13C,0.600000*%
%TD*%
%TA.AperFunction,Conductor*%
%ADD14C,0.300000*%
%TD*%
%TA.AperFunction,Conductor*%
%ADD15C,0.500000*%
%TD*%
G04 APERTURE END LIST*
D10*
%TO.P,H4,1,1*%
%TO.N,GND*%
X112000000Y-53000000D03*
%TD*%
%TO.P,H2,1,1*%
%TO.N,GND*%
X53000000Y-82000000D03*
%TD*%
D11*
%TO.P,J2,1,Pin_1*%
%TO.N,Net-(J2-Pin_1)*%
X64265318Y-57905500D03*
D12*
%TO.P,J2,2,Pin_2*%
%TO.N,GND*%
X66765318Y-57905500D03*
%TD*%
D10*
%TO.P,H3,1,1*%
%TO.N,GND*%
X112000000Y-82000000D03*
%TD*%
%TO.P,H1,1,1*%
%TO.N,GND*%
X53000000Y-53000000D03*
%TD*%
D13*
%TO.N,VCC*%
X90661318Y-73915000D03*
X90846319Y-70897274D03*
X95487318Y-71375000D03*
%TO.N,3V3_OUT*%
X104631318Y-65025000D03*
X94979318Y-57913000D03*
X100558560Y-70875758D03*
X92947318Y-70094000D03*
X102235566Y-69772872D03*
X108695318Y-70105000D03*
%TO.N,/DIN*%
X79056925Y-68570587D03*
X69071318Y-68561508D03*
%TO.N,GND*%
X62721318Y-76963000D03*
X86343318Y-71629000D03*
X85073318Y-76201000D03*
X106663318Y-59183000D03*
X71611318Y-60453000D03*
X102853318Y-54865000D03*
X96503318Y-56389000D03*
X95487318Y-70105000D03*
X96757318Y-62485000D03*
X96757318Y-64263000D03*
X105647318Y-65025000D03*
X105647318Y-61977000D03*
X71103318Y-74169000D03*
%TO.N,/SCK'*%
X105393318Y-66803000D03*
X113750000Y-67250000D03*
%TO.N,/RST'*%
X105255076Y-69301518D03*
X112732969Y-69533898D03*
%TO.N,/DC'*%
X113014305Y-68784997D03*
X105217938Y-68502380D03*
%TO.N,/BUSY'*%
X112250000Y-70500000D03*
X105139318Y-70867000D03*
%TO.N,/RESE*%
X92947318Y-59691000D03*
X103869318Y-72343000D03*
X92693318Y-61977000D03*
X98642318Y-73872000D03*
%TO.N,/CS'*%
X114002983Y-68008949D03*
X104898207Y-67524219D03*
%TO.N,/DIN'*%
X112251318Y-65748997D03*
X105139318Y-66041000D03*
%TO.N,Net-(SW1-A)*%
X99423994Y-62612324D03*
X98027318Y-57913000D03*
%TD*%
D14*
%TO.N,/DC'*%
X105469324Y-68250994D02*
X105217938Y-68502380D01*
X112694212Y-68481755D02*
X112463451Y-68250994D01*
X112711063Y-68481755D02*
X112694212Y-68481755D01*
X112463451Y-68250994D02*
X105469324Y-68250994D01*
X113014305Y-68784997D02*
X112711063Y-68481755D01*
%TO.N,/RST'*%
X112732969Y-69533898D02*
X112400071Y-69201000D01*
X112400071Y-69201000D02*
X105355594Y-69201000D01*
X105355594Y-69201000D02*
X105255076Y-69301518D01*
%TO.N,/BUSY'*%
X111883000Y-70867000D02*
X105139318Y-70867000D01*
X112250000Y-70500000D02*
X111883000Y-70867000D01*
%TO.N,/CS'*%
X112443782Y-67524219D02*
X104898207Y-67524219D01*
X112901318Y-67981755D02*
X112443782Y-67524219D01*
X113975789Y-67981755D02*
X112901318Y-67981755D01*
X114002983Y-68008949D02*
X113975789Y-67981755D01*
%TO.N,/SCK'*%
X113250000Y-66750000D02*
X105446318Y-66750000D01*
X113750000Y-67250000D02*
X113250000Y-66750000D01*
X105446318Y-66750000D02*
X105393318Y-66803000D01*
%TO.N,VCC*%
X91324045Y-71375000D02*
X90846319Y-70897274D01*
D15*
X90661318Y-71082275D02*
X90846319Y-70897274D01*
X90661318Y-73915000D02*
X90661318Y-71082275D01*
D14*
X95487318Y-71375000D02*
X91324045Y-71375000D01*
%TO.N,3V3_OUT*%
X101132680Y-70875758D02*
X102235566Y-69772872D01*
D15*
X94979318Y-57913000D02*
X94979318Y-68062000D01*
D14*
X102567694Y-70105000D02*
X102235566Y-69772872D01*
X100558560Y-70875758D02*
X101132680Y-70875758D01*
X108695318Y-70105000D02*
X102567694Y-70105000D01*
D15*
X94979318Y-68062000D02*
X92947318Y-70094000D01*
D14*
%TO.N,/DIN*%
X79046512Y-68581000D02*
X79056925Y-68570587D01*
X69090810Y-68581000D02*
X79046512Y-68581000D01*
X69071318Y-68561508D02*
X69090810Y-68581000D01*
%TO.N,GND*%
X106663318Y-59183000D02*
X105647318Y-60199000D01*
D15*
X68563318Y-54103000D02*
X68563318Y-53436682D01*
D14*
X85073318Y-72899000D02*
X86343318Y-71629000D01*
D15*
X53000000Y-82000000D02*
X112000000Y-82000000D01*
D14*
X96757318Y-56643000D02*
X96503318Y-56389000D01*
D15*
X62721318Y-76963000D02*
X69560659Y-70123659D01*
X71103318Y-71666318D02*
X69560659Y-70123659D01*
D14*
X106663318Y-59183000D02*
X105901318Y-59183000D01*
D15*
X66765318Y-57905500D02*
X69063818Y-57905500D01*
X68563318Y-53436682D02*
X69000000Y-53000000D01*
D14*
X105647318Y-61977000D02*
X105647318Y-65025000D01*
D15*
X69063818Y-57905500D02*
X71611318Y-60453000D01*
D14*
X102853318Y-54865000D02*
X101329318Y-56389000D01*
X96757318Y-62485000D02*
X96757318Y-56643000D01*
D15*
X66765318Y-57905500D02*
X66765318Y-55901000D01*
X59673318Y-76963000D02*
X62721318Y-76963000D01*
D14*
X96757318Y-64263000D02*
X96757318Y-62485000D01*
D15*
X69560659Y-70123659D02*
X69052659Y-69615659D01*
X71103318Y-74169000D02*
X71103318Y-71666318D01*
D14*
X85073318Y-76201000D02*
X85073318Y-72899000D01*
X105647318Y-60199000D02*
X105647318Y-61977000D01*
D15*
X54593318Y-82043000D02*
X59673318Y-76963000D01*
X69000000Y-53000000D02*
X112000000Y-53000000D01*
X66765318Y-67328318D02*
X66765318Y-57905500D01*
D14*
X101329318Y-56389000D02*
X96503318Y-56389000D01*
D15*
X69052659Y-69615659D02*
X66765318Y-67328318D01*
X53000000Y-82000000D02*
X53000000Y-53000000D01*
X66765318Y-55901000D02*
X68563318Y-54103000D01*
D14*
X95487318Y-70105000D02*
X96249318Y-69343000D01*
X96249318Y-64771000D02*
X96757318Y-64263000D01*
X102853318Y-56135000D02*
X102853318Y-54865000D01*
X105901318Y-59183000D02*
X102853318Y-56135000D01*
X96249318Y-69343000D02*
X96249318Y-64771000D01*
D15*
X53000000Y-53000000D02*
X69000000Y-53000000D01*
D14*
%TO.N,/RESE*%
X92693318Y-61977000D02*
X92693318Y-59945000D01*
X92693318Y-59945000D02*
X92947318Y-59691000D01*
X101123318Y-72343000D02*
X99594318Y-73872000D01*
X99594318Y-73872000D02*
X98642318Y-73872000D01*
X103869318Y-72343000D02*
X101123318Y-72343000D01*
%TO.N,Net-(SW1-A)*%
X98027318Y-61215648D02*
X98027318Y-57913000D01*
X99423994Y-62612324D02*
X98027318Y-61215648D01*
%TO.N,/DIN'*%
X105139318Y-66041000D02*
X105393318Y-66041000D01*
X105393318Y-66041000D02*
X105685321Y-65748997D01*
X112251318Y-65748997D02*
X105685321Y-65748997D01*
%TD*%
M02*
