%TF.GenerationSoftware,KiCad,Pcbnew,8.0.7*%
%TF.CreationDate,2025-04-02T16:36:21-05:00*%
%TF.ProjectId,love-letters,6c6f7665-2d6c-4657-9474-6572732e6b69,rev?*%
%TF.SameCoordinates,Original*%
%TF.FileFunction,Drillmap*%
%TF.FilePolarity,Positive*%
%FSLAX45Y45*%
G04 Gerber Fmt 4.5, Leading zero omitted, Abs format (unit mm)*
G04 Created by KiCad (PCBNEW 8.0.7) date 2025-04-02 16:36:21*
%MOMM*%
%LPD*%
G01*
G04 APERTURE LIST*
%ADD10C,0.050000*%
%ADD11C,0.200000*%
%ADD12C,0.100000*%
G04 APERTURE END LIST*
D10*
X7724264Y-7300000D02*
X11800000Y-7300000D01*
X6012132Y-7087868D02*
X5887868Y-7212132D01*
X6224264Y-7000000D02*
X7175736Y-7000000D01*
X7175736Y-7000000D02*
G75*
G02*
X7387866Y-7087870I4J-299980D01*
G01*
X7387868Y-7087868D02*
X7512132Y-7212132D01*
X6012132Y-7087868D02*
G75*
G02*
X6224264Y-7000003I212128J-212132D01*
G01*
X12100000Y-7000000D02*
G75*
G02*
X11800000Y-7300000I-300000J0D01*
G01*
X4100000Y-7300000D02*
G75*
G02*
X3800000Y-7000000I0J300000D01*
G01*
X11800000Y-4400000D02*
G75*
G02*
X12100000Y-4700000I0J-300000D01*
G01*
X7724264Y-7300000D02*
G75*
G02*
X7512134Y-7212130I-4J299980D01*
G01*
X3800000Y-4700000D02*
G75*
G02*
X4100000Y-4400000I300000J0D01*
G01*
X12100000Y-4700000D02*
X12100000Y-7000000D01*
X4100000Y-4400000D02*
X11800000Y-4400000D01*
X5675736Y-7300000D02*
X4100000Y-7300000D01*
X5887868Y-7212132D02*
G75*
G02*
X5675736Y-7299998I-212138J212152D01*
G01*
X3800000Y-7000000D02*
X3800000Y-4700000D01*
D11*
D12*
X3895000Y-5615000D02*
X3985000Y-5705000D01*
X3985000Y-5615000D02*
X3895000Y-5705000D01*
X3895000Y-6295000D02*
X3985000Y-6385000D01*
X3985000Y-6295000D02*
X3895000Y-6385000D01*
D11*
X4058277Y-7613984D02*
X4058277Y-7413984D01*
X4058277Y-7413984D02*
X4105896Y-7413984D01*
X4105896Y-7413984D02*
X4134467Y-7423508D01*
X4134467Y-7423508D02*
X4153515Y-7442555D01*
X4153515Y-7442555D02*
X4163039Y-7461603D01*
X4163039Y-7461603D02*
X4172562Y-7499698D01*
X4172562Y-7499698D02*
X4172562Y-7528269D01*
X4172562Y-7528269D02*
X4163039Y-7566365D01*
X4163039Y-7566365D02*
X4153515Y-7585412D01*
X4153515Y-7585412D02*
X4134467Y-7604460D01*
X4134467Y-7604460D02*
X4105896Y-7613984D01*
X4105896Y-7613984D02*
X4058277Y-7613984D01*
X4258277Y-7613984D02*
X4258277Y-7480650D01*
X4258277Y-7518746D02*
X4267801Y-7499698D01*
X4267801Y-7499698D02*
X4277324Y-7490174D01*
X4277324Y-7490174D02*
X4296372Y-7480650D01*
X4296372Y-7480650D02*
X4315420Y-7480650D01*
X4382086Y-7613984D02*
X4382086Y-7480650D01*
X4382086Y-7413984D02*
X4372563Y-7423508D01*
X4372563Y-7423508D02*
X4382086Y-7433031D01*
X4382086Y-7433031D02*
X4391610Y-7423508D01*
X4391610Y-7423508D02*
X4382086Y-7413984D01*
X4382086Y-7413984D02*
X4382086Y-7433031D01*
X4505896Y-7613984D02*
X4486848Y-7604460D01*
X4486848Y-7604460D02*
X4477324Y-7585412D01*
X4477324Y-7585412D02*
X4477324Y-7413984D01*
X4610658Y-7613984D02*
X4591610Y-7604460D01*
X4591610Y-7604460D02*
X4582086Y-7585412D01*
X4582086Y-7585412D02*
X4582086Y-7413984D01*
X4839229Y-7613984D02*
X4839229Y-7413984D01*
X4839229Y-7413984D02*
X4905896Y-7556841D01*
X4905896Y-7556841D02*
X4972563Y-7413984D01*
X4972563Y-7413984D02*
X4972563Y-7613984D01*
X5153515Y-7613984D02*
X5153515Y-7509222D01*
X5153515Y-7509222D02*
X5143991Y-7490174D01*
X5143991Y-7490174D02*
X5124944Y-7480650D01*
X5124944Y-7480650D02*
X5086848Y-7480650D01*
X5086848Y-7480650D02*
X5067801Y-7490174D01*
X5153515Y-7604460D02*
X5134467Y-7613984D01*
X5134467Y-7613984D02*
X5086848Y-7613984D01*
X5086848Y-7613984D02*
X5067801Y-7604460D01*
X5067801Y-7604460D02*
X5058277Y-7585412D01*
X5058277Y-7585412D02*
X5058277Y-7566365D01*
X5058277Y-7566365D02*
X5067801Y-7547317D01*
X5067801Y-7547317D02*
X5086848Y-7537793D01*
X5086848Y-7537793D02*
X5134467Y-7537793D01*
X5134467Y-7537793D02*
X5153515Y-7528269D01*
X5248753Y-7480650D02*
X5248753Y-7680650D01*
X5248753Y-7490174D02*
X5267801Y-7480650D01*
X5267801Y-7480650D02*
X5305896Y-7480650D01*
X5305896Y-7480650D02*
X5324944Y-7490174D01*
X5324944Y-7490174D02*
X5334467Y-7499698D01*
X5334467Y-7499698D02*
X5343991Y-7518746D01*
X5343991Y-7518746D02*
X5343991Y-7575888D01*
X5343991Y-7575888D02*
X5334467Y-7594936D01*
X5334467Y-7594936D02*
X5324944Y-7604460D01*
X5324944Y-7604460D02*
X5305896Y-7613984D01*
X5305896Y-7613984D02*
X5267801Y-7613984D01*
X5267801Y-7613984D02*
X5248753Y-7604460D01*
X5429705Y-7594936D02*
X5439229Y-7604460D01*
X5439229Y-7604460D02*
X5429705Y-7613984D01*
X5429705Y-7613984D02*
X5420182Y-7604460D01*
X5420182Y-7604460D02*
X5429705Y-7594936D01*
X5429705Y-7594936D02*
X5429705Y-7613984D01*
X5429705Y-7490174D02*
X5439229Y-7499698D01*
X5439229Y-7499698D02*
X5429705Y-7509222D01*
X5429705Y-7509222D02*
X5420182Y-7499698D01*
X5420182Y-7499698D02*
X5429705Y-7490174D01*
X5429705Y-7490174D02*
X5429705Y-7509222D01*
D12*
X3707500Y-7897500D02*
X3797500Y-7987500D01*
X3797500Y-7897500D02*
X3707500Y-7987500D01*
D11*
X4096372Y-7833984D02*
X4115420Y-7833984D01*
X4115420Y-7833984D02*
X4134467Y-7843508D01*
X4134467Y-7843508D02*
X4143991Y-7853031D01*
X4143991Y-7853031D02*
X4153515Y-7872079D01*
X4153515Y-7872079D02*
X4163039Y-7910174D01*
X4163039Y-7910174D02*
X4163039Y-7957793D01*
X4163039Y-7957793D02*
X4153515Y-7995888D01*
X4153515Y-7995888D02*
X4143991Y-8014936D01*
X4143991Y-8014936D02*
X4134467Y-8024460D01*
X4134467Y-8024460D02*
X4115420Y-8033984D01*
X4115420Y-8033984D02*
X4096372Y-8033984D01*
X4096372Y-8033984D02*
X4077324Y-8024460D01*
X4077324Y-8024460D02*
X4067801Y-8014936D01*
X4067801Y-8014936D02*
X4058277Y-7995888D01*
X4058277Y-7995888D02*
X4048753Y-7957793D01*
X4048753Y-7957793D02*
X4048753Y-7910174D01*
X4048753Y-7910174D02*
X4058277Y-7872079D01*
X4058277Y-7872079D02*
X4067801Y-7853031D01*
X4067801Y-7853031D02*
X4077324Y-7843508D01*
X4077324Y-7843508D02*
X4096372Y-7833984D01*
X4248753Y-8014936D02*
X4258277Y-8024460D01*
X4258277Y-8024460D02*
X4248753Y-8033984D01*
X4248753Y-8033984D02*
X4239229Y-8024460D01*
X4239229Y-8024460D02*
X4248753Y-8014936D01*
X4248753Y-8014936D02*
X4248753Y-8033984D01*
X4353515Y-8033984D02*
X4391610Y-8033984D01*
X4391610Y-8033984D02*
X4410658Y-8024460D01*
X4410658Y-8024460D02*
X4420182Y-8014936D01*
X4420182Y-8014936D02*
X4439229Y-7986365D01*
X4439229Y-7986365D02*
X4448753Y-7948269D01*
X4448753Y-7948269D02*
X4448753Y-7872079D01*
X4448753Y-7872079D02*
X4439229Y-7853031D01*
X4439229Y-7853031D02*
X4429705Y-7843508D01*
X4429705Y-7843508D02*
X4410658Y-7833984D01*
X4410658Y-7833984D02*
X4372563Y-7833984D01*
X4372563Y-7833984D02*
X4353515Y-7843508D01*
X4353515Y-7843508D02*
X4343991Y-7853031D01*
X4343991Y-7853031D02*
X4334467Y-7872079D01*
X4334467Y-7872079D02*
X4334467Y-7919698D01*
X4334467Y-7919698D02*
X4343991Y-7938746D01*
X4343991Y-7938746D02*
X4353515Y-7948269D01*
X4353515Y-7948269D02*
X4372563Y-7957793D01*
X4372563Y-7957793D02*
X4410658Y-7957793D01*
X4410658Y-7957793D02*
X4429705Y-7948269D01*
X4429705Y-7948269D02*
X4439229Y-7938746D01*
X4439229Y-7938746D02*
X4448753Y-7919698D01*
X4572563Y-7833984D02*
X4591610Y-7833984D01*
X4591610Y-7833984D02*
X4610658Y-7843508D01*
X4610658Y-7843508D02*
X4620182Y-7853031D01*
X4620182Y-7853031D02*
X4629705Y-7872079D01*
X4629705Y-7872079D02*
X4639229Y-7910174D01*
X4639229Y-7910174D02*
X4639229Y-7957793D01*
X4639229Y-7957793D02*
X4629705Y-7995888D01*
X4629705Y-7995888D02*
X4620182Y-8014936D01*
X4620182Y-8014936D02*
X4610658Y-8024460D01*
X4610658Y-8024460D02*
X4591610Y-8033984D01*
X4591610Y-8033984D02*
X4572563Y-8033984D01*
X4572563Y-8033984D02*
X4553515Y-8024460D01*
X4553515Y-8024460D02*
X4543991Y-8014936D01*
X4543991Y-8014936D02*
X4534467Y-7995888D01*
X4534467Y-7995888D02*
X4524944Y-7957793D01*
X4524944Y-7957793D02*
X4524944Y-7910174D01*
X4524944Y-7910174D02*
X4534467Y-7872079D01*
X4534467Y-7872079D02*
X4543991Y-7853031D01*
X4543991Y-7853031D02*
X4553515Y-7843508D01*
X4553515Y-7843508D02*
X4572563Y-7833984D01*
X4763039Y-7833984D02*
X4782086Y-7833984D01*
X4782086Y-7833984D02*
X4801134Y-7843508D01*
X4801134Y-7843508D02*
X4810658Y-7853031D01*
X4810658Y-7853031D02*
X4820182Y-7872079D01*
X4820182Y-7872079D02*
X4829705Y-7910174D01*
X4829705Y-7910174D02*
X4829705Y-7957793D01*
X4829705Y-7957793D02*
X4820182Y-7995888D01*
X4820182Y-7995888D02*
X4810658Y-8014936D01*
X4810658Y-8014936D02*
X4801134Y-8024460D01*
X4801134Y-8024460D02*
X4782086Y-8033984D01*
X4782086Y-8033984D02*
X4763039Y-8033984D01*
X4763039Y-8033984D02*
X4743991Y-8024460D01*
X4743991Y-8024460D02*
X4734467Y-8014936D01*
X4734467Y-8014936D02*
X4724944Y-7995888D01*
X4724944Y-7995888D02*
X4715420Y-7957793D01*
X4715420Y-7957793D02*
X4715420Y-7910174D01*
X4715420Y-7910174D02*
X4724944Y-7872079D01*
X4724944Y-7872079D02*
X4734467Y-7853031D01*
X4734467Y-7853031D02*
X4743991Y-7843508D01*
X4743991Y-7843508D02*
X4763039Y-7833984D01*
X4915420Y-8033984D02*
X4915420Y-7900650D01*
X4915420Y-7919698D02*
X4924944Y-7910174D01*
X4924944Y-7910174D02*
X4943991Y-7900650D01*
X4943991Y-7900650D02*
X4972563Y-7900650D01*
X4972563Y-7900650D02*
X4991610Y-7910174D01*
X4991610Y-7910174D02*
X5001134Y-7929222D01*
X5001134Y-7929222D02*
X5001134Y-8033984D01*
X5001134Y-7929222D02*
X5010658Y-7910174D01*
X5010658Y-7910174D02*
X5029705Y-7900650D01*
X5029705Y-7900650D02*
X5058277Y-7900650D01*
X5058277Y-7900650D02*
X5077325Y-7910174D01*
X5077325Y-7910174D02*
X5086848Y-7929222D01*
X5086848Y-7929222D02*
X5086848Y-8033984D01*
X5182086Y-8033984D02*
X5182086Y-7900650D01*
X5182086Y-7919698D02*
X5191610Y-7910174D01*
X5191610Y-7910174D02*
X5210658Y-7900650D01*
X5210658Y-7900650D02*
X5239229Y-7900650D01*
X5239229Y-7900650D02*
X5258277Y-7910174D01*
X5258277Y-7910174D02*
X5267801Y-7929222D01*
X5267801Y-7929222D02*
X5267801Y-8033984D01*
X5267801Y-7929222D02*
X5277325Y-7910174D01*
X5277325Y-7910174D02*
X5296372Y-7900650D01*
X5296372Y-7900650D02*
X5324944Y-7900650D01*
X5324944Y-7900650D02*
X5343991Y-7910174D01*
X5343991Y-7910174D02*
X5353515Y-7929222D01*
X5353515Y-7929222D02*
X5353515Y-8033984D01*
X5743991Y-7824460D02*
X5572563Y-8081603D01*
X6001134Y-7833984D02*
X6020182Y-7833984D01*
X6020182Y-7833984D02*
X6039229Y-7843508D01*
X6039229Y-7843508D02*
X6048753Y-7853031D01*
X6048753Y-7853031D02*
X6058277Y-7872079D01*
X6058277Y-7872079D02*
X6067801Y-7910174D01*
X6067801Y-7910174D02*
X6067801Y-7957793D01*
X6067801Y-7957793D02*
X6058277Y-7995888D01*
X6058277Y-7995888D02*
X6048753Y-8014936D01*
X6048753Y-8014936D02*
X6039229Y-8024460D01*
X6039229Y-8024460D02*
X6020182Y-8033984D01*
X6020182Y-8033984D02*
X6001134Y-8033984D01*
X6001134Y-8033984D02*
X5982086Y-8024460D01*
X5982086Y-8024460D02*
X5972563Y-8014936D01*
X5972563Y-8014936D02*
X5963039Y-7995888D01*
X5963039Y-7995888D02*
X5953515Y-7957793D01*
X5953515Y-7957793D02*
X5953515Y-7910174D01*
X5953515Y-7910174D02*
X5963039Y-7872079D01*
X5963039Y-7872079D02*
X5972563Y-7853031D01*
X5972563Y-7853031D02*
X5982086Y-7843508D01*
X5982086Y-7843508D02*
X6001134Y-7833984D01*
X6153515Y-8014936D02*
X6163039Y-8024460D01*
X6163039Y-8024460D02*
X6153515Y-8033984D01*
X6153515Y-8033984D02*
X6143991Y-8024460D01*
X6143991Y-8024460D02*
X6153515Y-8014936D01*
X6153515Y-8014936D02*
X6153515Y-8033984D01*
X6286848Y-7833984D02*
X6305896Y-7833984D01*
X6305896Y-7833984D02*
X6324944Y-7843508D01*
X6324944Y-7843508D02*
X6334467Y-7853031D01*
X6334467Y-7853031D02*
X6343991Y-7872079D01*
X6343991Y-7872079D02*
X6353515Y-7910174D01*
X6353515Y-7910174D02*
X6353515Y-7957793D01*
X6353515Y-7957793D02*
X6343991Y-7995888D01*
X6343991Y-7995888D02*
X6334467Y-8014936D01*
X6334467Y-8014936D02*
X6324944Y-8024460D01*
X6324944Y-8024460D02*
X6305896Y-8033984D01*
X6305896Y-8033984D02*
X6286848Y-8033984D01*
X6286848Y-8033984D02*
X6267801Y-8024460D01*
X6267801Y-8024460D02*
X6258277Y-8014936D01*
X6258277Y-8014936D02*
X6248753Y-7995888D01*
X6248753Y-7995888D02*
X6239229Y-7957793D01*
X6239229Y-7957793D02*
X6239229Y-7910174D01*
X6239229Y-7910174D02*
X6248753Y-7872079D01*
X6248753Y-7872079D02*
X6258277Y-7853031D01*
X6258277Y-7853031D02*
X6267801Y-7843508D01*
X6267801Y-7843508D02*
X6286848Y-7833984D01*
X6420182Y-7833984D02*
X6543991Y-7833984D01*
X6543991Y-7833984D02*
X6477325Y-7910174D01*
X6477325Y-7910174D02*
X6505896Y-7910174D01*
X6505896Y-7910174D02*
X6524944Y-7919698D01*
X6524944Y-7919698D02*
X6534467Y-7929222D01*
X6534467Y-7929222D02*
X6543991Y-7948269D01*
X6543991Y-7948269D02*
X6543991Y-7995888D01*
X6543991Y-7995888D02*
X6534467Y-8014936D01*
X6534467Y-8014936D02*
X6524944Y-8024460D01*
X6524944Y-8024460D02*
X6505896Y-8033984D01*
X6505896Y-8033984D02*
X6448753Y-8033984D01*
X6448753Y-8033984D02*
X6429706Y-8024460D01*
X6429706Y-8024460D02*
X6420182Y-8014936D01*
X6724944Y-7833984D02*
X6629706Y-7833984D01*
X6629706Y-7833984D02*
X6620182Y-7929222D01*
X6620182Y-7929222D02*
X6629706Y-7919698D01*
X6629706Y-7919698D02*
X6648753Y-7910174D01*
X6648753Y-7910174D02*
X6696372Y-7910174D01*
X6696372Y-7910174D02*
X6715420Y-7919698D01*
X6715420Y-7919698D02*
X6724944Y-7929222D01*
X6724944Y-7929222D02*
X6734467Y-7948269D01*
X6734467Y-7948269D02*
X6734467Y-7995888D01*
X6734467Y-7995888D02*
X6724944Y-8014936D01*
X6724944Y-8014936D02*
X6715420Y-8024460D01*
X6715420Y-8024460D02*
X6696372Y-8033984D01*
X6696372Y-8033984D02*
X6648753Y-8033984D01*
X6648753Y-8033984D02*
X6629706Y-8024460D01*
X6629706Y-8024460D02*
X6620182Y-8014936D01*
X6905896Y-7900650D02*
X6905896Y-8033984D01*
X6858277Y-7824460D02*
X6810658Y-7967317D01*
X6810658Y-7967317D02*
X6934467Y-7967317D01*
X7001134Y-7833984D02*
X7001134Y-7872079D01*
X7077325Y-7833984D02*
X7077325Y-7872079D01*
X7372563Y-8110174D02*
X7363039Y-8100650D01*
X7363039Y-8100650D02*
X7343991Y-8072079D01*
X7343991Y-8072079D02*
X7334468Y-8053031D01*
X7334468Y-8053031D02*
X7324944Y-8024460D01*
X7324944Y-8024460D02*
X7315420Y-7976841D01*
X7315420Y-7976841D02*
X7315420Y-7938746D01*
X7315420Y-7938746D02*
X7324944Y-7891127D01*
X7324944Y-7891127D02*
X7334468Y-7862555D01*
X7334468Y-7862555D02*
X7343991Y-7843508D01*
X7343991Y-7843508D02*
X7363039Y-7814936D01*
X7363039Y-7814936D02*
X7372563Y-7805412D01*
X7439229Y-7853031D02*
X7448753Y-7843508D01*
X7448753Y-7843508D02*
X7467801Y-7833984D01*
X7467801Y-7833984D02*
X7515420Y-7833984D01*
X7515420Y-7833984D02*
X7534468Y-7843508D01*
X7534468Y-7843508D02*
X7543991Y-7853031D01*
X7543991Y-7853031D02*
X7553515Y-7872079D01*
X7553515Y-7872079D02*
X7553515Y-7891127D01*
X7553515Y-7891127D02*
X7543991Y-7919698D01*
X7543991Y-7919698D02*
X7429706Y-8033984D01*
X7429706Y-8033984D02*
X7553515Y-8033984D01*
X7791610Y-8033984D02*
X7791610Y-7833984D01*
X7877325Y-8033984D02*
X7877325Y-7929222D01*
X7877325Y-7929222D02*
X7867801Y-7910174D01*
X7867801Y-7910174D02*
X7848753Y-7900650D01*
X7848753Y-7900650D02*
X7820182Y-7900650D01*
X7820182Y-7900650D02*
X7801134Y-7910174D01*
X7801134Y-7910174D02*
X7791610Y-7919698D01*
X8001134Y-8033984D02*
X7982087Y-8024460D01*
X7982087Y-8024460D02*
X7972563Y-8014936D01*
X7972563Y-8014936D02*
X7963039Y-7995888D01*
X7963039Y-7995888D02*
X7963039Y-7938746D01*
X7963039Y-7938746D02*
X7972563Y-7919698D01*
X7972563Y-7919698D02*
X7982087Y-7910174D01*
X7982087Y-7910174D02*
X8001134Y-7900650D01*
X8001134Y-7900650D02*
X8029706Y-7900650D01*
X8029706Y-7900650D02*
X8048753Y-7910174D01*
X8048753Y-7910174D02*
X8058277Y-7919698D01*
X8058277Y-7919698D02*
X8067801Y-7938746D01*
X8067801Y-7938746D02*
X8067801Y-7995888D01*
X8067801Y-7995888D02*
X8058277Y-8014936D01*
X8058277Y-8014936D02*
X8048753Y-8024460D01*
X8048753Y-8024460D02*
X8029706Y-8033984D01*
X8029706Y-8033984D02*
X8001134Y-8033984D01*
X8182087Y-8033984D02*
X8163039Y-8024460D01*
X8163039Y-8024460D02*
X8153515Y-8005412D01*
X8153515Y-8005412D02*
X8153515Y-7833984D01*
X8334468Y-8024460D02*
X8315420Y-8033984D01*
X8315420Y-8033984D02*
X8277325Y-8033984D01*
X8277325Y-8033984D02*
X8258277Y-8024460D01*
X8258277Y-8024460D02*
X8248753Y-8005412D01*
X8248753Y-8005412D02*
X8248753Y-7929222D01*
X8248753Y-7929222D02*
X8258277Y-7910174D01*
X8258277Y-7910174D02*
X8277325Y-7900650D01*
X8277325Y-7900650D02*
X8315420Y-7900650D01*
X8315420Y-7900650D02*
X8334468Y-7910174D01*
X8334468Y-7910174D02*
X8343991Y-7929222D01*
X8343991Y-7929222D02*
X8343991Y-7948269D01*
X8343991Y-7948269D02*
X8248753Y-7967317D01*
X8420182Y-8024460D02*
X8439230Y-8033984D01*
X8439230Y-8033984D02*
X8477325Y-8033984D01*
X8477325Y-8033984D02*
X8496373Y-8024460D01*
X8496373Y-8024460D02*
X8505896Y-8005412D01*
X8505896Y-8005412D02*
X8505896Y-7995888D01*
X8505896Y-7995888D02*
X8496373Y-7976841D01*
X8496373Y-7976841D02*
X8477325Y-7967317D01*
X8477325Y-7967317D02*
X8448753Y-7967317D01*
X8448753Y-7967317D02*
X8429706Y-7957793D01*
X8429706Y-7957793D02*
X8420182Y-7938746D01*
X8420182Y-7938746D02*
X8420182Y-7929222D01*
X8420182Y-7929222D02*
X8429706Y-7910174D01*
X8429706Y-7910174D02*
X8448753Y-7900650D01*
X8448753Y-7900650D02*
X8477325Y-7900650D01*
X8477325Y-7900650D02*
X8496373Y-7910174D01*
X8572563Y-8110174D02*
X8582087Y-8100650D01*
X8582087Y-8100650D02*
X8601134Y-8072079D01*
X8601134Y-8072079D02*
X8610658Y-8053031D01*
X8610658Y-8053031D02*
X8620182Y-8024460D01*
X8620182Y-8024460D02*
X8629706Y-7976841D01*
X8629706Y-7976841D02*
X8629706Y-7938746D01*
X8629706Y-7938746D02*
X8620182Y-7891127D01*
X8620182Y-7891127D02*
X8610658Y-7862555D01*
X8610658Y-7862555D02*
X8601134Y-7843508D01*
X8601134Y-7843508D02*
X8582087Y-7814936D01*
X8582087Y-7814936D02*
X8572563Y-7805412D01*
X8934468Y-8110174D02*
X8924944Y-8100650D01*
X8924944Y-8100650D02*
X8905896Y-8072079D01*
X8905896Y-8072079D02*
X8896373Y-8053031D01*
X8896373Y-8053031D02*
X8886849Y-8024460D01*
X8886849Y-8024460D02*
X8877325Y-7976841D01*
X8877325Y-7976841D02*
X8877325Y-7938746D01*
X8877325Y-7938746D02*
X8886849Y-7891127D01*
X8886849Y-7891127D02*
X8896373Y-7862555D01*
X8896373Y-7862555D02*
X8905896Y-7843508D01*
X8905896Y-7843508D02*
X8924944Y-7814936D01*
X8924944Y-7814936D02*
X8934468Y-7805412D01*
X9010658Y-7900650D02*
X9010658Y-8033984D01*
X9010658Y-7919698D02*
X9020182Y-7910174D01*
X9020182Y-7910174D02*
X9039230Y-7900650D01*
X9039230Y-7900650D02*
X9067801Y-7900650D01*
X9067801Y-7900650D02*
X9086849Y-7910174D01*
X9086849Y-7910174D02*
X9096373Y-7929222D01*
X9096373Y-7929222D02*
X9096373Y-8033984D01*
X9220182Y-8033984D02*
X9201134Y-8024460D01*
X9201134Y-8024460D02*
X9191611Y-8014936D01*
X9191611Y-8014936D02*
X9182087Y-7995888D01*
X9182087Y-7995888D02*
X9182087Y-7938746D01*
X9182087Y-7938746D02*
X9191611Y-7919698D01*
X9191611Y-7919698D02*
X9201134Y-7910174D01*
X9201134Y-7910174D02*
X9220182Y-7900650D01*
X9220182Y-7900650D02*
X9248754Y-7900650D01*
X9248754Y-7900650D02*
X9267801Y-7910174D01*
X9267801Y-7910174D02*
X9277325Y-7919698D01*
X9277325Y-7919698D02*
X9286849Y-7938746D01*
X9286849Y-7938746D02*
X9286849Y-7995888D01*
X9286849Y-7995888D02*
X9277325Y-8014936D01*
X9277325Y-8014936D02*
X9267801Y-8024460D01*
X9267801Y-8024460D02*
X9248754Y-8033984D01*
X9248754Y-8033984D02*
X9220182Y-8033984D01*
X9343992Y-7900650D02*
X9420182Y-7900650D01*
X9372563Y-7833984D02*
X9372563Y-8005412D01*
X9372563Y-8005412D02*
X9382087Y-8024460D01*
X9382087Y-8024460D02*
X9401134Y-8033984D01*
X9401134Y-8033984D02*
X9420182Y-8033984D01*
X9639230Y-7900650D02*
X9639230Y-8100650D01*
X9639230Y-7910174D02*
X9658277Y-7900650D01*
X9658277Y-7900650D02*
X9696373Y-7900650D01*
X9696373Y-7900650D02*
X9715420Y-7910174D01*
X9715420Y-7910174D02*
X9724944Y-7919698D01*
X9724944Y-7919698D02*
X9734468Y-7938746D01*
X9734468Y-7938746D02*
X9734468Y-7995888D01*
X9734468Y-7995888D02*
X9724944Y-8014936D01*
X9724944Y-8014936D02*
X9715420Y-8024460D01*
X9715420Y-8024460D02*
X9696373Y-8033984D01*
X9696373Y-8033984D02*
X9658277Y-8033984D01*
X9658277Y-8033984D02*
X9639230Y-8024460D01*
X9848754Y-8033984D02*
X9829706Y-8024460D01*
X9829706Y-8024460D02*
X9820182Y-8005412D01*
X9820182Y-8005412D02*
X9820182Y-7833984D01*
X10010658Y-8033984D02*
X10010658Y-7929222D01*
X10010658Y-7929222D02*
X10001135Y-7910174D01*
X10001135Y-7910174D02*
X9982087Y-7900650D01*
X9982087Y-7900650D02*
X9943992Y-7900650D01*
X9943992Y-7900650D02*
X9924944Y-7910174D01*
X10010658Y-8024460D02*
X9991611Y-8033984D01*
X9991611Y-8033984D02*
X9943992Y-8033984D01*
X9943992Y-8033984D02*
X9924944Y-8024460D01*
X9924944Y-8024460D02*
X9915420Y-8005412D01*
X9915420Y-8005412D02*
X9915420Y-7986365D01*
X9915420Y-7986365D02*
X9924944Y-7967317D01*
X9924944Y-7967317D02*
X9943992Y-7957793D01*
X9943992Y-7957793D02*
X9991611Y-7957793D01*
X9991611Y-7957793D02*
X10010658Y-7948269D01*
X10077325Y-7900650D02*
X10153515Y-7900650D01*
X10105896Y-7833984D02*
X10105896Y-8005412D01*
X10105896Y-8005412D02*
X10115420Y-8024460D01*
X10115420Y-8024460D02*
X10134468Y-8033984D01*
X10134468Y-8033984D02*
X10153515Y-8033984D01*
X10296373Y-8024460D02*
X10277325Y-8033984D01*
X10277325Y-8033984D02*
X10239230Y-8033984D01*
X10239230Y-8033984D02*
X10220182Y-8024460D01*
X10220182Y-8024460D02*
X10210658Y-8005412D01*
X10210658Y-8005412D02*
X10210658Y-7929222D01*
X10210658Y-7929222D02*
X10220182Y-7910174D01*
X10220182Y-7910174D02*
X10239230Y-7900650D01*
X10239230Y-7900650D02*
X10277325Y-7900650D01*
X10277325Y-7900650D02*
X10296373Y-7910174D01*
X10296373Y-7910174D02*
X10305896Y-7929222D01*
X10305896Y-7929222D02*
X10305896Y-7948269D01*
X10305896Y-7948269D02*
X10210658Y-7967317D01*
X10477325Y-8033984D02*
X10477325Y-7833984D01*
X10477325Y-8024460D02*
X10458277Y-8033984D01*
X10458277Y-8033984D02*
X10420182Y-8033984D01*
X10420182Y-8033984D02*
X10401135Y-8024460D01*
X10401135Y-8024460D02*
X10391611Y-8014936D01*
X10391611Y-8014936D02*
X10382087Y-7995888D01*
X10382087Y-7995888D02*
X10382087Y-7938746D01*
X10382087Y-7938746D02*
X10391611Y-7919698D01*
X10391611Y-7919698D02*
X10401135Y-7910174D01*
X10401135Y-7910174D02*
X10420182Y-7900650D01*
X10420182Y-7900650D02*
X10458277Y-7900650D01*
X10458277Y-7900650D02*
X10477325Y-7910174D01*
X10553516Y-8110174D02*
X10563039Y-8100650D01*
X10563039Y-8100650D02*
X10582087Y-8072079D01*
X10582087Y-8072079D02*
X10591611Y-8053031D01*
X10591611Y-8053031D02*
X10601135Y-8024460D01*
X10601135Y-8024460D02*
X10610658Y-7976841D01*
X10610658Y-7976841D02*
X10610658Y-7938746D01*
X10610658Y-7938746D02*
X10601135Y-7891127D01*
X10601135Y-7891127D02*
X10591611Y-7862555D01*
X10591611Y-7862555D02*
X10582087Y-7843508D01*
X10582087Y-7843508D02*
X10563039Y-7814936D01*
X10563039Y-7814936D02*
X10553516Y-7805412D01*
M02*
