M48
; DRILL file {KiCad 8.0.7} date 2025-01-13T19:39:47-0600
; FORMAT={-:-/ absolute / inch / decimal}
; #@! TF.CreationDate,2025-01-13T19:39:47-06:00
; #@! TF.GenerationSoftware,Kicad,Pcbnew,8.0.7
; #@! TF.FileFunction,Plated,1,2,PTH
FMAT,2
INCH
; #@! TA.AperFunction,Plated,PTH,ViaDrill
T1C0.0118
; #@! TA.AperFunction,Plated,PTH,ComponentDrill
T2C0.0394
; #@! TA.AperFunction,Plated,PTH,ComponentDrill
T3C0.0866
%
G90
G05
T1
X2.4693Y-3.03
X2.7193Y-2.6993
X2.7993Y-2.92
X2.8193Y-2.38
X3.1125Y-2.6996
X3.3493Y-3.0
X3.3993Y-2.82
X3.5693Y-2.91
X3.5766Y-2.7912
X3.6493Y-2.44
X3.6593Y-2.35
X3.6593Y-2.7596
X3.7393Y-2.28
X3.7593Y-2.76
X3.7593Y-2.81
X3.7993Y-2.22
X3.8093Y-2.46
X3.8093Y-2.53
X3.8593Y-2.28
X3.8836Y-2.9083
X3.9143Y-2.4651
X3.959Y-2.7904
X4.025Y-2.747
X4.0493Y-2.16
X4.0893Y-2.8481
X4.1193Y-2.56
X4.1299Y-2.6584
X4.1393Y-2.6
X4.1393Y-2.79
X4.1424Y-2.6969
X4.1439Y-2.7284
X4.1493Y-2.63
X4.1593Y-2.44
X4.1593Y-2.56
X4.1993Y-2.33
X4.2793Y-2.76
X4.4193Y-2.7756
X4.4193Y-2.5885
X4.4383Y-2.7376
X4.4494Y-2.7081
X4.4783Y-2.6476
X4.4883Y-2.6775
T2
X2.5301Y-2.2797
X2.6286Y-2.2797
T3
X2.0866Y-2.0866
X2.0866Y-3.2283
X4.4094Y-2.0866
X4.4094Y-3.2283
M30
