%TF.GenerationSoftware,KiCad,Pcbnew,8.0.7*%
%TF.CreationDate,2025-04-02T16:36:19-05:00*%
%TF.ProjectId,love-letters,6c6f7665-2d6c-4657-9474-6572732e6b69,rev?*%
%TF.SameCoordinates,Original*%
%TF.FileFunction,Copper,L2,Bot*%
%TF.FilePolarity,Positive*%
%FSLAX46Y46*%
G04 Gerber Fmt 4.6, Leading zero omitted, Abs format (unit mm)*
G04 Created by KiCad (PCBNEW 8.0.7) date 2025-04-02 16:36:19*
%MOMM*%
%LPD*%
G01*
G04 APERTURE LIST*
G04 Aperture macros list*
%AMRoundRect*
0 Rectangle with rounded corners*
0 $1 Rounding radius*
0 $2 $3 $4 $5 $6 $7 $8 $9 X,Y pos of 4 corners*
0 Add a 4 corners polygon primitive as box body*
4,1,4,$2,$3,$4,$5,$6,$7,$8,$9,$2,$3,0*
0 Add four circle primitives for the rounded corners*
1,1,$1+$1,$2,$3*
1,1,$1+$1,$4,$5*
1,1,$1+$1,$6,$7*
1,1,$1+$1,$8,$9*
0 Add four rect primitives between the rounded corners*
20,1,$1+$1,$2,$3,$4,$5,0*
20,1,$1+$1,$4,$5,$6,$7,0*
20,1,$1+$1,$6,$7,$8,$9,0*
20,1,$1+$1,$8,$9,$2,$3,0*%
G04 Aperture macros list end*
%TA.AperFunction,ComponentPad*%
%ADD10C,4.400000*%
%TD*%
%TA.AperFunction,ComponentPad*%
%ADD11RoundRect,0.250000X-0.600000X-0.750000X0.600000X-0.750000X0.600000X0.750000X-0.600000X0.750000X0*%
%TD*%
%TA.AperFunction,ComponentPad*%
%ADD12O,1.700000X2.000000*%
%TD*%
%TA.AperFunction,ViaPad*%
%ADD13C,0.600000*%
%TD*%
%TA.AperFunction,ViaPad*%
%ADD14C,0.800000*%
%TD*%
%TA.AperFunction,Conductor*%
%ADD15C,0.500000*%
%TD*%
%TA.AperFunction,Conductor*%
%ADD16C,0.800000*%
%TD*%
%TA.AperFunction,Conductor*%
%ADD17C,0.300000*%
%TD*%
G04 APERTURE END LIST*
D10*
%TO.P,H3,1,1*%
%TO.N,GND*%
X118000000Y-70000000D03*
%TD*%
%TO.P,H4,1,1*%
%TO.N,GND*%
X118000000Y-47000000D03*
%TD*%
%TO.P,H1,1,1*%
%TO.N,GND*%
X41000000Y-47000000D03*
%TD*%
D11*
%TO.P,J2,1,Pin_1*%
%TO.N,Net-(J2-Pin_1)*%
X49750000Y-51532500D03*
D12*
%TO.P,J2,2,Pin_2*%
%TO.N,GND*%
X52250000Y-51532500D03*
%TD*%
D10*
%TO.P,H2,1,1*%
%TO.N,GND*%
X41000000Y-70000000D03*
%TD*%
D13*
%TO.N,GND*%
X83566000Y-50800000D03*
X97536000Y-51054000D03*
%TO.N,3V3_OUT*%
X110075000Y-64725000D03*
D14*
%TO.N,/RST*%
X90875000Y-60125000D03*
X89125000Y-59875000D03*
%TO.N,VCC*%
X84125000Y-57625000D03*
X81875000Y-64125000D03*
X84625000Y-64125000D03*
X80875000Y-57625000D03*
%TO.N,/DC*%
X91875000Y-58625000D03*
X88375000Y-58625000D03*
%TO.N,3V3_OUT*%
X97875000Y-66875000D03*
X99800000Y-54700000D03*
X98110837Y-61140856D03*
X95375000Y-66875000D03*
%TO.N,GND*%
X84012500Y-62300000D03*
X93088419Y-59811581D03*
X109225000Y-47375000D03*
X79875000Y-66125000D03*
X113975000Y-60875000D03*
X87500000Y-62950000D03*
X107975000Y-67625000D03*
X60875000Y-66125000D03*
X79625000Y-60375000D03*
X83375000Y-60375000D03*
X89800000Y-66700000D03*
X116475000Y-54875000D03*
X94100000Y-58600000D03*
X71375000Y-61875000D03*
X54875000Y-66125000D03*
%TO.N,VCC_INT*%
X78125000Y-55625000D03*
X71875000Y-55625000D03*
%TO.N,/CS*%
X95375000Y-65625000D03*
X97456165Y-65706165D03*
%TO.N,/VGH*%
X112025000Y-57625000D03*
X107625000Y-57625000D03*
%TO.N,/VGL*%
X106125000Y-52625000D03*
X112125000Y-52375000D03*
%TO.N,/GDR*%
X113875000Y-64125000D03*
X107625000Y-59875000D03*
%TO.N,/SCK'*%
X117426314Y-56808772D03*
X117082109Y-61625000D03*
%TO.N,/RST'*%
X119375000Y-58875000D03*
X101707053Y-66125000D03*
%TO.N,/DC'*%
X118820298Y-58042947D03*
X102375000Y-65375000D03*
%TO.N,/BUSY'*%
X119582109Y-60082109D03*
X100875000Y-66875000D03*
%TO.N,/RESE*%
X94171582Y-56088290D03*
X92375000Y-56121496D03*
X107625000Y-58875000D03*
X113875000Y-63125000D03*
%TO.N,/CS'*%
X118375000Y-57125000D03*
X103125000Y-64625000D03*
%TO.N,/DIN'*%
X116267952Y-60908292D03*
X117215563Y-55831230D03*
%TO.N,+BATT*%
X71375000Y-57375000D03*
X54875000Y-58375000D03*
X78375000Y-57375000D03*
%TO.N,/SCK*%
X95936580Y-64063420D03*
X97436580Y-64118908D03*
%TO.N,/BAT_MEAS*%
X61375000Y-67125000D03*
X55125000Y-67125000D03*
%TO.N,Net-(J2-Pin_1)*%
X48000000Y-60000000D03*
%TD*%
D15*
%TO.N,GND*%
X83566000Y-50800000D02*
X83566000Y-47000000D01*
D16*
X41000000Y-47000000D02*
X83566000Y-47000000D01*
X83566000Y-47000000D02*
X97282000Y-47000000D01*
X97282000Y-47000000D02*
X118000000Y-47000000D01*
D15*
X97536000Y-51054000D02*
X97282000Y-50800000D01*
X97282000Y-50800000D02*
X97282000Y-47000000D01*
D17*
%TO.N,3V3_OUT*%
X102616000Y-61468000D02*
X98437981Y-61468000D01*
X105873000Y-64725000D02*
X102616000Y-61468000D01*
X98437981Y-61468000D02*
X98110837Y-61140856D01*
X110075000Y-64725000D02*
X105873000Y-64725000D01*
%TO.N,/RST*%
X89125000Y-59875000D02*
X90625000Y-59875000D01*
X90625000Y-59875000D02*
X90875000Y-60125000D01*
D16*
%TO.N,VCC*%
X84125000Y-57625000D02*
X80875000Y-57625000D01*
D17*
X84625000Y-64125000D02*
X81875000Y-64125000D01*
%TO.N,/DC*%
X88375000Y-58625000D02*
X91875000Y-58625000D01*
%TO.N,3V3_OUT*%
X97875000Y-66875000D02*
X95375000Y-66875000D01*
D15*
X99800000Y-59451693D02*
X98110837Y-61140856D01*
X99800000Y-54700000D02*
X99800000Y-59451693D01*
D17*
%TO.N,GND*%
X89950000Y-62950000D02*
X93088419Y-59811581D01*
D16*
X107100000Y-68500000D02*
X107975000Y-67625000D01*
X78375000Y-62125000D02*
X78375000Y-61625000D01*
X78375000Y-61625000D02*
X79625000Y-60375000D01*
D17*
X86850000Y-62300000D02*
X87500000Y-62950000D01*
D16*
X78125000Y-61875000D02*
X78375000Y-62125000D01*
X51500000Y-68500000D02*
X52250000Y-67750000D01*
X52250000Y-67750000D02*
X52250000Y-67000000D01*
D17*
X87500000Y-62950000D02*
X87500000Y-64400000D01*
D16*
X78375000Y-64625000D02*
X79875000Y-66125000D01*
X70875000Y-62375000D02*
X64625000Y-62375000D01*
X52250000Y-67000000D02*
X52250000Y-51532500D01*
X71375000Y-61875000D02*
X78125000Y-61875000D01*
X47867500Y-47000000D02*
X52250000Y-51382500D01*
D17*
X113975000Y-57375000D02*
X116475000Y-54875000D01*
D16*
X41000000Y-47000000D02*
X47867500Y-47000000D01*
X110350000Y-70000000D02*
X118000000Y-70000000D01*
D17*
X84012500Y-62300000D02*
X86850000Y-62300000D01*
D16*
X78375000Y-64625000D02*
X78375000Y-62125000D01*
X107975000Y-67625000D02*
X110350000Y-70000000D01*
X51500000Y-68500000D02*
X107100000Y-68500000D01*
X54875000Y-66125000D02*
X60875000Y-66125000D01*
X64625000Y-62375000D02*
X60875000Y-66125000D01*
X52250000Y-51382500D02*
X52250000Y-51532500D01*
X53125000Y-66125000D02*
X54875000Y-66125000D01*
X52250000Y-67000000D02*
X53125000Y-66125000D01*
X50000000Y-70000000D02*
X51500000Y-68500000D01*
D15*
X94100000Y-58800000D02*
X93088419Y-59811581D01*
X94100000Y-58600000D02*
X94100000Y-58800000D01*
D17*
X87500000Y-62950000D02*
X89950000Y-62950000D01*
X113975000Y-60875000D02*
X113975000Y-57375000D01*
D16*
X41000000Y-47000000D02*
X41000000Y-70000000D01*
X49000000Y-70000000D02*
X50000000Y-70000000D01*
D17*
X87500000Y-64400000D02*
X89800000Y-66700000D01*
D16*
X41000000Y-70000000D02*
X49000000Y-70000000D01*
X71375000Y-61875000D02*
X70875000Y-62375000D01*
D17*
X79625000Y-60375000D02*
X83375000Y-60375000D01*
D16*
%TO.N,VCC_INT*%
X71875000Y-55625000D02*
X78125000Y-55625000D01*
D17*
%TO.N,/CS*%
X97375000Y-65625000D02*
X95375000Y-65625000D01*
X97456165Y-65706165D02*
X97375000Y-65625000D01*
D15*
%TO.N,/VGH*%
X107625000Y-57625000D02*
X112025000Y-57625000D01*
%TO.N,/VGL*%
X106125000Y-52625000D02*
X106375000Y-52375000D01*
X106375000Y-52375000D02*
X112125000Y-52375000D01*
D17*
%TO.N,/GDR*%
X109564339Y-59875000D02*
X113814339Y-64125000D01*
X113814339Y-64125000D02*
X113875000Y-64125000D01*
X107625000Y-59875000D02*
X109564339Y-59875000D01*
%TO.N,/SCK'*%
X117082109Y-61625000D02*
X117082109Y-57152977D01*
X117082109Y-57152977D02*
X117426314Y-56808772D01*
%TO.N,/RST'*%
X119375000Y-58875000D02*
X118832109Y-59417891D01*
X118832109Y-59417891D02*
X118832109Y-65582109D01*
X118832109Y-65582109D02*
X118875000Y-65625000D01*
X101957053Y-66375000D02*
X101707053Y-66125000D01*
X118875000Y-65625000D02*
X118125000Y-66375000D01*
X118125000Y-66375000D02*
X101957053Y-66375000D01*
%TO.N,/DC'*%
X118820298Y-58042947D02*
X118332109Y-58531136D01*
X102875000Y-65875000D02*
X102375000Y-65375000D01*
X118332109Y-65167891D02*
X117625000Y-65875000D01*
X117625000Y-65875000D02*
X102875000Y-65875000D01*
X118332109Y-58531136D02*
X118332109Y-65167891D01*
%TO.N,/BUSY'*%
X119375000Y-65875000D02*
X118375000Y-66875000D01*
X119582109Y-60082109D02*
X119375000Y-60289218D01*
X119375000Y-60289218D02*
X119375000Y-65875000D01*
X118375000Y-66875000D02*
X100875000Y-66875000D01*
D15*
%TO.N,/RESE*%
X94138376Y-56121496D02*
X94171582Y-56088290D01*
X107625000Y-58875000D02*
X109625000Y-58875000D01*
X92375000Y-56121496D02*
X94138376Y-56121496D01*
X109625000Y-58875000D02*
X113875000Y-63125000D01*
D17*
%TO.N,/CS'*%
X117832109Y-57667891D02*
X117832109Y-64960785D01*
X118375000Y-57125000D02*
X117832109Y-57667891D01*
X117832109Y-64960785D02*
X117417894Y-65375000D01*
X103875000Y-65375000D02*
X103125000Y-64625000D01*
X117417894Y-65375000D02*
X103875000Y-65375000D01*
%TO.N,/DIN'*%
X116475000Y-60701244D02*
X116267952Y-60908292D01*
X116475000Y-56571793D02*
X116475000Y-60701244D01*
X117215563Y-55831230D02*
X116475000Y-56571793D01*
D16*
%TO.N,+BATT*%
X71375000Y-57375000D02*
X78375000Y-57375000D01*
X70375000Y-58375000D02*
X71375000Y-57375000D01*
X54875000Y-58375000D02*
X70375000Y-58375000D01*
D17*
%TO.N,/SCK*%
X95992068Y-64118908D02*
X95936580Y-64063420D01*
X97436580Y-64118908D02*
X95992068Y-64118908D01*
%TO.N,/BAT_MEAS*%
X61375000Y-67125000D02*
X55125000Y-67125000D01*
D16*
%TO.N,Net-(J2-Pin_1)*%
X49750000Y-58250000D02*
X48000000Y-60000000D01*
X49750000Y-51532500D02*
X49750000Y-58250000D01*
%TD*%
M02*
