%TF.GenerationSoftware,KiCad,Pcbnew,8.0.7*%
%TF.CreationDate,2025-01-13T19:39:46-06:00*%
%TF.ProjectId,love-letters,6c6f7665-2d6c-4657-9474-6572732e6b69,rev?*%
%TF.SameCoordinates,Original*%
%TF.FileFunction,Drillmap*%
%TF.FilePolarity,Positive*%
%FSLAX45Y45*%
G04 Gerber Fmt 4.5, Leading zero omitted, Abs format (unit mm)*
G04 Created by KiCad (PCBNEW 8.0.7) date 2025-01-13 19:39:46*
%MOMM*%
%LPD*%
G01*
G04 APERTURE LIST*
%ADD10C,0.050000*%
%ADD11C,0.200000*%
%ADD12C,0.100000*%
G04 APERTURE END LIST*
D10*
X7716127Y-8500000D02*
X11280000Y-8500000D01*
X5220000Y-8500000D02*
X6133873Y-8500000D01*
X11500000Y-5220000D02*
X11500000Y-8280000D01*
X7716127Y-8500000D02*
G75*
G02*
X7560565Y-8435562I3J220000D01*
G01*
X5000000Y-8280000D02*
X5000000Y-5220000D01*
X7333873Y-8300000D02*
G75*
G02*
X7489435Y-8364438I-3J-220000D01*
G01*
X5220000Y-5000000D02*
X11280000Y-5000000D01*
X5000000Y-5220000D02*
G75*
G02*
X5220000Y-5000000I220000J0D01*
G01*
X5220000Y-8500000D02*
G75*
G02*
X5000000Y-8280000I0J220000D01*
G01*
X6289436Y-8435564D02*
G75*
G02*
X6133873Y-8499998I-155557J155554D01*
G01*
X7489436Y-8364436D02*
X7560563Y-8435564D01*
X11280000Y-5000000D02*
G75*
G02*
X11500000Y-5220000I0J-220000D01*
G01*
X6289436Y-8435564D02*
X6360563Y-8364436D01*
X11500000Y-8280000D02*
G75*
G02*
X11280000Y-8500000I-220000J0D01*
G01*
X6516127Y-8300000D02*
X7333873Y-8300000D01*
X6360563Y-8364436D02*
G75*
G02*
X6516127Y-8300002I155557J-155554D01*
G01*
D11*
D12*
X9129332Y-7972100D02*
X9229332Y-8072100D01*
X9229332Y-7972100D02*
X9129332Y-8072100D01*
X9809332Y-7972100D02*
X9909332Y-8072100D01*
X9909332Y-7972100D02*
X9809332Y-8072100D01*
X10149332Y-7972100D02*
X10249332Y-8072100D01*
X10249332Y-7972100D02*
X10149332Y-8072100D01*
X10829332Y-7972100D02*
X10929332Y-8072100D01*
X10929332Y-7972100D02*
X10829332Y-8072100D01*
D11*
X5258277Y-8813984D02*
X5258277Y-8613984D01*
X5258277Y-8613984D02*
X5305896Y-8613984D01*
X5305896Y-8613984D02*
X5334467Y-8623508D01*
X5334467Y-8623508D02*
X5353515Y-8642555D01*
X5353515Y-8642555D02*
X5363039Y-8661603D01*
X5363039Y-8661603D02*
X5372563Y-8699698D01*
X5372563Y-8699698D02*
X5372563Y-8728270D01*
X5372563Y-8728270D02*
X5363039Y-8766365D01*
X5363039Y-8766365D02*
X5353515Y-8785412D01*
X5353515Y-8785412D02*
X5334467Y-8804460D01*
X5334467Y-8804460D02*
X5305896Y-8813984D01*
X5305896Y-8813984D02*
X5258277Y-8813984D01*
X5458277Y-8813984D02*
X5458277Y-8680650D01*
X5458277Y-8718746D02*
X5467801Y-8699698D01*
X5467801Y-8699698D02*
X5477324Y-8690174D01*
X5477324Y-8690174D02*
X5496372Y-8680650D01*
X5496372Y-8680650D02*
X5515420Y-8680650D01*
X5582086Y-8813984D02*
X5582086Y-8680650D01*
X5582086Y-8613984D02*
X5572563Y-8623508D01*
X5572563Y-8623508D02*
X5582086Y-8633031D01*
X5582086Y-8633031D02*
X5591610Y-8623508D01*
X5591610Y-8623508D02*
X5582086Y-8613984D01*
X5582086Y-8613984D02*
X5582086Y-8633031D01*
X5705896Y-8813984D02*
X5686848Y-8804460D01*
X5686848Y-8804460D02*
X5677324Y-8785412D01*
X5677324Y-8785412D02*
X5677324Y-8613984D01*
X5810658Y-8813984D02*
X5791610Y-8804460D01*
X5791610Y-8804460D02*
X5782086Y-8785412D01*
X5782086Y-8785412D02*
X5782086Y-8613984D01*
X6039229Y-8813984D02*
X6039229Y-8613984D01*
X6039229Y-8613984D02*
X6105896Y-8756841D01*
X6105896Y-8756841D02*
X6172562Y-8613984D01*
X6172562Y-8613984D02*
X6172562Y-8813984D01*
X6353515Y-8813984D02*
X6353515Y-8709222D01*
X6353515Y-8709222D02*
X6343991Y-8690174D01*
X6343991Y-8690174D02*
X6324943Y-8680650D01*
X6324943Y-8680650D02*
X6286848Y-8680650D01*
X6286848Y-8680650D02*
X6267801Y-8690174D01*
X6353515Y-8804460D02*
X6334467Y-8813984D01*
X6334467Y-8813984D02*
X6286848Y-8813984D01*
X6286848Y-8813984D02*
X6267801Y-8804460D01*
X6267801Y-8804460D02*
X6258277Y-8785412D01*
X6258277Y-8785412D02*
X6258277Y-8766365D01*
X6258277Y-8766365D02*
X6267801Y-8747317D01*
X6267801Y-8747317D02*
X6286848Y-8737793D01*
X6286848Y-8737793D02*
X6334467Y-8737793D01*
X6334467Y-8737793D02*
X6353515Y-8728270D01*
X6448753Y-8680650D02*
X6448753Y-8880650D01*
X6448753Y-8690174D02*
X6467801Y-8680650D01*
X6467801Y-8680650D02*
X6505896Y-8680650D01*
X6505896Y-8680650D02*
X6524943Y-8690174D01*
X6524943Y-8690174D02*
X6534467Y-8699698D01*
X6534467Y-8699698D02*
X6543991Y-8718746D01*
X6543991Y-8718746D02*
X6543991Y-8775889D01*
X6543991Y-8775889D02*
X6534467Y-8794936D01*
X6534467Y-8794936D02*
X6524943Y-8804460D01*
X6524943Y-8804460D02*
X6505896Y-8813984D01*
X6505896Y-8813984D02*
X6467801Y-8813984D01*
X6467801Y-8813984D02*
X6448753Y-8804460D01*
X6629705Y-8794936D02*
X6639229Y-8804460D01*
X6639229Y-8804460D02*
X6629705Y-8813984D01*
X6629705Y-8813984D02*
X6620182Y-8804460D01*
X6620182Y-8804460D02*
X6629705Y-8794936D01*
X6629705Y-8794936D02*
X6629705Y-8813984D01*
X6629705Y-8690174D02*
X6639229Y-8699698D01*
X6639229Y-8699698D02*
X6629705Y-8709222D01*
X6629705Y-8709222D02*
X6620182Y-8699698D01*
X6620182Y-8699698D02*
X6629705Y-8690174D01*
X6629705Y-8690174D02*
X6629705Y-8709222D01*
D12*
X4897500Y-9092500D02*
X4997500Y-9192500D01*
X4997500Y-9092500D02*
X4897500Y-9192500D01*
D11*
X5363039Y-9233984D02*
X5248753Y-9233984D01*
X5305896Y-9233984D02*
X5305896Y-9033984D01*
X5305896Y-9033984D02*
X5286848Y-9062555D01*
X5286848Y-9062555D02*
X5267801Y-9081603D01*
X5267801Y-9081603D02*
X5248753Y-9091127D01*
X5448753Y-9214936D02*
X5458277Y-9224460D01*
X5458277Y-9224460D02*
X5448753Y-9233984D01*
X5448753Y-9233984D02*
X5439229Y-9224460D01*
X5439229Y-9224460D02*
X5448753Y-9214936D01*
X5448753Y-9214936D02*
X5448753Y-9233984D01*
X5582086Y-9033984D02*
X5601134Y-9033984D01*
X5601134Y-9033984D02*
X5620182Y-9043508D01*
X5620182Y-9043508D02*
X5629705Y-9053031D01*
X5629705Y-9053031D02*
X5639229Y-9072079D01*
X5639229Y-9072079D02*
X5648753Y-9110174D01*
X5648753Y-9110174D02*
X5648753Y-9157793D01*
X5648753Y-9157793D02*
X5639229Y-9195889D01*
X5639229Y-9195889D02*
X5629705Y-9214936D01*
X5629705Y-9214936D02*
X5620182Y-9224460D01*
X5620182Y-9224460D02*
X5601134Y-9233984D01*
X5601134Y-9233984D02*
X5582086Y-9233984D01*
X5582086Y-9233984D02*
X5563039Y-9224460D01*
X5563039Y-9224460D02*
X5553515Y-9214936D01*
X5553515Y-9214936D02*
X5543991Y-9195889D01*
X5543991Y-9195889D02*
X5534467Y-9157793D01*
X5534467Y-9157793D02*
X5534467Y-9110174D01*
X5534467Y-9110174D02*
X5543991Y-9072079D01*
X5543991Y-9072079D02*
X5553515Y-9053031D01*
X5553515Y-9053031D02*
X5563039Y-9043508D01*
X5563039Y-9043508D02*
X5582086Y-9033984D01*
X5772562Y-9033984D02*
X5791610Y-9033984D01*
X5791610Y-9033984D02*
X5810658Y-9043508D01*
X5810658Y-9043508D02*
X5820182Y-9053031D01*
X5820182Y-9053031D02*
X5829705Y-9072079D01*
X5829705Y-9072079D02*
X5839229Y-9110174D01*
X5839229Y-9110174D02*
X5839229Y-9157793D01*
X5839229Y-9157793D02*
X5829705Y-9195889D01*
X5829705Y-9195889D02*
X5820182Y-9214936D01*
X5820182Y-9214936D02*
X5810658Y-9224460D01*
X5810658Y-9224460D02*
X5791610Y-9233984D01*
X5791610Y-9233984D02*
X5772562Y-9233984D01*
X5772562Y-9233984D02*
X5753515Y-9224460D01*
X5753515Y-9224460D02*
X5743991Y-9214936D01*
X5743991Y-9214936D02*
X5734467Y-9195889D01*
X5734467Y-9195889D02*
X5724943Y-9157793D01*
X5724943Y-9157793D02*
X5724943Y-9110174D01*
X5724943Y-9110174D02*
X5734467Y-9072079D01*
X5734467Y-9072079D02*
X5743991Y-9053031D01*
X5743991Y-9053031D02*
X5753515Y-9043508D01*
X5753515Y-9043508D02*
X5772562Y-9033984D01*
X5963039Y-9033984D02*
X5982086Y-9033984D01*
X5982086Y-9033984D02*
X6001134Y-9043508D01*
X6001134Y-9043508D02*
X6010658Y-9053031D01*
X6010658Y-9053031D02*
X6020182Y-9072079D01*
X6020182Y-9072079D02*
X6029705Y-9110174D01*
X6029705Y-9110174D02*
X6029705Y-9157793D01*
X6029705Y-9157793D02*
X6020182Y-9195889D01*
X6020182Y-9195889D02*
X6010658Y-9214936D01*
X6010658Y-9214936D02*
X6001134Y-9224460D01*
X6001134Y-9224460D02*
X5982086Y-9233984D01*
X5982086Y-9233984D02*
X5963039Y-9233984D01*
X5963039Y-9233984D02*
X5943991Y-9224460D01*
X5943991Y-9224460D02*
X5934467Y-9214936D01*
X5934467Y-9214936D02*
X5924943Y-9195889D01*
X5924943Y-9195889D02*
X5915420Y-9157793D01*
X5915420Y-9157793D02*
X5915420Y-9110174D01*
X5915420Y-9110174D02*
X5924943Y-9072079D01*
X5924943Y-9072079D02*
X5934467Y-9053031D01*
X5934467Y-9053031D02*
X5943991Y-9043508D01*
X5943991Y-9043508D02*
X5963039Y-9033984D01*
X6115420Y-9233984D02*
X6115420Y-9100650D01*
X6115420Y-9119698D02*
X6124943Y-9110174D01*
X6124943Y-9110174D02*
X6143991Y-9100650D01*
X6143991Y-9100650D02*
X6172563Y-9100650D01*
X6172563Y-9100650D02*
X6191610Y-9110174D01*
X6191610Y-9110174D02*
X6201134Y-9129222D01*
X6201134Y-9129222D02*
X6201134Y-9233984D01*
X6201134Y-9129222D02*
X6210658Y-9110174D01*
X6210658Y-9110174D02*
X6229705Y-9100650D01*
X6229705Y-9100650D02*
X6258277Y-9100650D01*
X6258277Y-9100650D02*
X6277324Y-9110174D01*
X6277324Y-9110174D02*
X6286848Y-9129222D01*
X6286848Y-9129222D02*
X6286848Y-9233984D01*
X6382086Y-9233984D02*
X6382086Y-9100650D01*
X6382086Y-9119698D02*
X6391610Y-9110174D01*
X6391610Y-9110174D02*
X6410658Y-9100650D01*
X6410658Y-9100650D02*
X6439229Y-9100650D01*
X6439229Y-9100650D02*
X6458277Y-9110174D01*
X6458277Y-9110174D02*
X6467801Y-9129222D01*
X6467801Y-9129222D02*
X6467801Y-9233984D01*
X6467801Y-9129222D02*
X6477324Y-9110174D01*
X6477324Y-9110174D02*
X6496372Y-9100650D01*
X6496372Y-9100650D02*
X6524943Y-9100650D01*
X6524943Y-9100650D02*
X6543991Y-9110174D01*
X6543991Y-9110174D02*
X6553515Y-9129222D01*
X6553515Y-9129222D02*
X6553515Y-9233984D01*
X6943991Y-9024460D02*
X6772563Y-9281603D01*
X7201134Y-9033984D02*
X7220182Y-9033984D01*
X7220182Y-9033984D02*
X7239229Y-9043508D01*
X7239229Y-9043508D02*
X7248753Y-9053031D01*
X7248753Y-9053031D02*
X7258277Y-9072079D01*
X7258277Y-9072079D02*
X7267801Y-9110174D01*
X7267801Y-9110174D02*
X7267801Y-9157793D01*
X7267801Y-9157793D02*
X7258277Y-9195889D01*
X7258277Y-9195889D02*
X7248753Y-9214936D01*
X7248753Y-9214936D02*
X7239229Y-9224460D01*
X7239229Y-9224460D02*
X7220182Y-9233984D01*
X7220182Y-9233984D02*
X7201134Y-9233984D01*
X7201134Y-9233984D02*
X7182086Y-9224460D01*
X7182086Y-9224460D02*
X7172563Y-9214936D01*
X7172563Y-9214936D02*
X7163039Y-9195889D01*
X7163039Y-9195889D02*
X7153515Y-9157793D01*
X7153515Y-9157793D02*
X7153515Y-9110174D01*
X7153515Y-9110174D02*
X7163039Y-9072079D01*
X7163039Y-9072079D02*
X7172563Y-9053031D01*
X7172563Y-9053031D02*
X7182086Y-9043508D01*
X7182086Y-9043508D02*
X7201134Y-9033984D01*
X7353515Y-9214936D02*
X7363039Y-9224460D01*
X7363039Y-9224460D02*
X7353515Y-9233984D01*
X7353515Y-9233984D02*
X7343991Y-9224460D01*
X7343991Y-9224460D02*
X7353515Y-9214936D01*
X7353515Y-9214936D02*
X7353515Y-9233984D01*
X7486848Y-9033984D02*
X7505896Y-9033984D01*
X7505896Y-9033984D02*
X7524944Y-9043508D01*
X7524944Y-9043508D02*
X7534467Y-9053031D01*
X7534467Y-9053031D02*
X7543991Y-9072079D01*
X7543991Y-9072079D02*
X7553515Y-9110174D01*
X7553515Y-9110174D02*
X7553515Y-9157793D01*
X7553515Y-9157793D02*
X7543991Y-9195889D01*
X7543991Y-9195889D02*
X7534467Y-9214936D01*
X7534467Y-9214936D02*
X7524944Y-9224460D01*
X7524944Y-9224460D02*
X7505896Y-9233984D01*
X7505896Y-9233984D02*
X7486848Y-9233984D01*
X7486848Y-9233984D02*
X7467801Y-9224460D01*
X7467801Y-9224460D02*
X7458277Y-9214936D01*
X7458277Y-9214936D02*
X7448753Y-9195889D01*
X7448753Y-9195889D02*
X7439229Y-9157793D01*
X7439229Y-9157793D02*
X7439229Y-9110174D01*
X7439229Y-9110174D02*
X7448753Y-9072079D01*
X7448753Y-9072079D02*
X7458277Y-9053031D01*
X7458277Y-9053031D02*
X7467801Y-9043508D01*
X7467801Y-9043508D02*
X7486848Y-9033984D01*
X7620182Y-9033984D02*
X7743991Y-9033984D01*
X7743991Y-9033984D02*
X7677325Y-9110174D01*
X7677325Y-9110174D02*
X7705896Y-9110174D01*
X7705896Y-9110174D02*
X7724944Y-9119698D01*
X7724944Y-9119698D02*
X7734467Y-9129222D01*
X7734467Y-9129222D02*
X7743991Y-9148270D01*
X7743991Y-9148270D02*
X7743991Y-9195889D01*
X7743991Y-9195889D02*
X7734467Y-9214936D01*
X7734467Y-9214936D02*
X7724944Y-9224460D01*
X7724944Y-9224460D02*
X7705896Y-9233984D01*
X7705896Y-9233984D02*
X7648753Y-9233984D01*
X7648753Y-9233984D02*
X7629706Y-9224460D01*
X7629706Y-9224460D02*
X7620182Y-9214936D01*
X7839229Y-9233984D02*
X7877325Y-9233984D01*
X7877325Y-9233984D02*
X7896372Y-9224460D01*
X7896372Y-9224460D02*
X7905896Y-9214936D01*
X7905896Y-9214936D02*
X7924944Y-9186365D01*
X7924944Y-9186365D02*
X7934467Y-9148270D01*
X7934467Y-9148270D02*
X7934467Y-9072079D01*
X7934467Y-9072079D02*
X7924944Y-9053031D01*
X7924944Y-9053031D02*
X7915420Y-9043508D01*
X7915420Y-9043508D02*
X7896372Y-9033984D01*
X7896372Y-9033984D02*
X7858277Y-9033984D01*
X7858277Y-9033984D02*
X7839229Y-9043508D01*
X7839229Y-9043508D02*
X7829706Y-9053031D01*
X7829706Y-9053031D02*
X7820182Y-9072079D01*
X7820182Y-9072079D02*
X7820182Y-9119698D01*
X7820182Y-9119698D02*
X7829706Y-9138746D01*
X7829706Y-9138746D02*
X7839229Y-9148270D01*
X7839229Y-9148270D02*
X7858277Y-9157793D01*
X7858277Y-9157793D02*
X7896372Y-9157793D01*
X7896372Y-9157793D02*
X7915420Y-9148270D01*
X7915420Y-9148270D02*
X7924944Y-9138746D01*
X7924944Y-9138746D02*
X7934467Y-9119698D01*
X8105896Y-9100650D02*
X8105896Y-9233984D01*
X8058277Y-9024460D02*
X8010658Y-9167317D01*
X8010658Y-9167317D02*
X8134467Y-9167317D01*
X8201134Y-9033984D02*
X8201134Y-9072079D01*
X8277325Y-9033984D02*
X8277325Y-9072079D01*
X8572563Y-9310174D02*
X8563039Y-9300650D01*
X8563039Y-9300650D02*
X8543991Y-9272079D01*
X8543991Y-9272079D02*
X8534468Y-9253031D01*
X8534468Y-9253031D02*
X8524944Y-9224460D01*
X8524944Y-9224460D02*
X8515420Y-9176841D01*
X8515420Y-9176841D02*
X8515420Y-9138746D01*
X8515420Y-9138746D02*
X8524944Y-9091127D01*
X8524944Y-9091127D02*
X8534468Y-9062555D01*
X8534468Y-9062555D02*
X8543991Y-9043508D01*
X8543991Y-9043508D02*
X8563039Y-9014936D01*
X8563039Y-9014936D02*
X8572563Y-9005412D01*
X8734468Y-9100650D02*
X8734468Y-9233984D01*
X8686849Y-9024460D02*
X8639230Y-9167317D01*
X8639230Y-9167317D02*
X8763039Y-9167317D01*
X8991611Y-9233984D02*
X8991611Y-9033984D01*
X9077325Y-9233984D02*
X9077325Y-9129222D01*
X9077325Y-9129222D02*
X9067801Y-9110174D01*
X9067801Y-9110174D02*
X9048753Y-9100650D01*
X9048753Y-9100650D02*
X9020182Y-9100650D01*
X9020182Y-9100650D02*
X9001134Y-9110174D01*
X9001134Y-9110174D02*
X8991611Y-9119698D01*
X9201134Y-9233984D02*
X9182087Y-9224460D01*
X9182087Y-9224460D02*
X9172563Y-9214936D01*
X9172563Y-9214936D02*
X9163039Y-9195889D01*
X9163039Y-9195889D02*
X9163039Y-9138746D01*
X9163039Y-9138746D02*
X9172563Y-9119698D01*
X9172563Y-9119698D02*
X9182087Y-9110174D01*
X9182087Y-9110174D02*
X9201134Y-9100650D01*
X9201134Y-9100650D02*
X9229706Y-9100650D01*
X9229706Y-9100650D02*
X9248753Y-9110174D01*
X9248753Y-9110174D02*
X9258277Y-9119698D01*
X9258277Y-9119698D02*
X9267801Y-9138746D01*
X9267801Y-9138746D02*
X9267801Y-9195889D01*
X9267801Y-9195889D02*
X9258277Y-9214936D01*
X9258277Y-9214936D02*
X9248753Y-9224460D01*
X9248753Y-9224460D02*
X9229706Y-9233984D01*
X9229706Y-9233984D02*
X9201134Y-9233984D01*
X9382087Y-9233984D02*
X9363039Y-9224460D01*
X9363039Y-9224460D02*
X9353515Y-9205412D01*
X9353515Y-9205412D02*
X9353515Y-9033984D01*
X9534468Y-9224460D02*
X9515420Y-9233984D01*
X9515420Y-9233984D02*
X9477325Y-9233984D01*
X9477325Y-9233984D02*
X9458277Y-9224460D01*
X9458277Y-9224460D02*
X9448753Y-9205412D01*
X9448753Y-9205412D02*
X9448753Y-9129222D01*
X9448753Y-9129222D02*
X9458277Y-9110174D01*
X9458277Y-9110174D02*
X9477325Y-9100650D01*
X9477325Y-9100650D02*
X9515420Y-9100650D01*
X9515420Y-9100650D02*
X9534468Y-9110174D01*
X9534468Y-9110174D02*
X9543992Y-9129222D01*
X9543992Y-9129222D02*
X9543992Y-9148270D01*
X9543992Y-9148270D02*
X9448753Y-9167317D01*
X9620182Y-9224460D02*
X9639230Y-9233984D01*
X9639230Y-9233984D02*
X9677325Y-9233984D01*
X9677325Y-9233984D02*
X9696373Y-9224460D01*
X9696373Y-9224460D02*
X9705896Y-9205412D01*
X9705896Y-9205412D02*
X9705896Y-9195889D01*
X9705896Y-9195889D02*
X9696373Y-9176841D01*
X9696373Y-9176841D02*
X9677325Y-9167317D01*
X9677325Y-9167317D02*
X9648753Y-9167317D01*
X9648753Y-9167317D02*
X9629706Y-9157793D01*
X9629706Y-9157793D02*
X9620182Y-9138746D01*
X9620182Y-9138746D02*
X9620182Y-9129222D01*
X9620182Y-9129222D02*
X9629706Y-9110174D01*
X9629706Y-9110174D02*
X9648753Y-9100650D01*
X9648753Y-9100650D02*
X9677325Y-9100650D01*
X9677325Y-9100650D02*
X9696373Y-9110174D01*
X9772563Y-9310174D02*
X9782087Y-9300650D01*
X9782087Y-9300650D02*
X9801134Y-9272079D01*
X9801134Y-9272079D02*
X9810658Y-9253031D01*
X9810658Y-9253031D02*
X9820182Y-9224460D01*
X9820182Y-9224460D02*
X9829706Y-9176841D01*
X9829706Y-9176841D02*
X9829706Y-9138746D01*
X9829706Y-9138746D02*
X9820182Y-9091127D01*
X9820182Y-9091127D02*
X9810658Y-9062555D01*
X9810658Y-9062555D02*
X9801134Y-9043508D01*
X9801134Y-9043508D02*
X9782087Y-9014936D01*
X9782087Y-9014936D02*
X9772563Y-9005412D01*
X10134468Y-9310174D02*
X10124944Y-9300650D01*
X10124944Y-9300650D02*
X10105896Y-9272079D01*
X10105896Y-9272079D02*
X10096373Y-9253031D01*
X10096373Y-9253031D02*
X10086849Y-9224460D01*
X10086849Y-9224460D02*
X10077325Y-9176841D01*
X10077325Y-9176841D02*
X10077325Y-9138746D01*
X10077325Y-9138746D02*
X10086849Y-9091127D01*
X10086849Y-9091127D02*
X10096373Y-9062555D01*
X10096373Y-9062555D02*
X10105896Y-9043508D01*
X10105896Y-9043508D02*
X10124944Y-9014936D01*
X10124944Y-9014936D02*
X10134468Y-9005412D01*
X10210658Y-9100650D02*
X10210658Y-9233984D01*
X10210658Y-9119698D02*
X10220182Y-9110174D01*
X10220182Y-9110174D02*
X10239230Y-9100650D01*
X10239230Y-9100650D02*
X10267801Y-9100650D01*
X10267801Y-9100650D02*
X10286849Y-9110174D01*
X10286849Y-9110174D02*
X10296373Y-9129222D01*
X10296373Y-9129222D02*
X10296373Y-9233984D01*
X10420182Y-9233984D02*
X10401134Y-9224460D01*
X10401134Y-9224460D02*
X10391611Y-9214936D01*
X10391611Y-9214936D02*
X10382087Y-9195889D01*
X10382087Y-9195889D02*
X10382087Y-9138746D01*
X10382087Y-9138746D02*
X10391611Y-9119698D01*
X10391611Y-9119698D02*
X10401134Y-9110174D01*
X10401134Y-9110174D02*
X10420182Y-9100650D01*
X10420182Y-9100650D02*
X10448754Y-9100650D01*
X10448754Y-9100650D02*
X10467801Y-9110174D01*
X10467801Y-9110174D02*
X10477325Y-9119698D01*
X10477325Y-9119698D02*
X10486849Y-9138746D01*
X10486849Y-9138746D02*
X10486849Y-9195889D01*
X10486849Y-9195889D02*
X10477325Y-9214936D01*
X10477325Y-9214936D02*
X10467801Y-9224460D01*
X10467801Y-9224460D02*
X10448754Y-9233984D01*
X10448754Y-9233984D02*
X10420182Y-9233984D01*
X10543992Y-9100650D02*
X10620182Y-9100650D01*
X10572563Y-9033984D02*
X10572563Y-9205412D01*
X10572563Y-9205412D02*
X10582087Y-9224460D01*
X10582087Y-9224460D02*
X10601134Y-9233984D01*
X10601134Y-9233984D02*
X10620182Y-9233984D01*
X10839230Y-9100650D02*
X10839230Y-9300650D01*
X10839230Y-9110174D02*
X10858277Y-9100650D01*
X10858277Y-9100650D02*
X10896373Y-9100650D01*
X10896373Y-9100650D02*
X10915420Y-9110174D01*
X10915420Y-9110174D02*
X10924944Y-9119698D01*
X10924944Y-9119698D02*
X10934468Y-9138746D01*
X10934468Y-9138746D02*
X10934468Y-9195889D01*
X10934468Y-9195889D02*
X10924944Y-9214936D01*
X10924944Y-9214936D02*
X10915420Y-9224460D01*
X10915420Y-9224460D02*
X10896373Y-9233984D01*
X10896373Y-9233984D02*
X10858277Y-9233984D01*
X10858277Y-9233984D02*
X10839230Y-9224460D01*
X11048754Y-9233984D02*
X11029706Y-9224460D01*
X11029706Y-9224460D02*
X11020182Y-9205412D01*
X11020182Y-9205412D02*
X11020182Y-9033984D01*
X11210658Y-9233984D02*
X11210658Y-9129222D01*
X11210658Y-9129222D02*
X11201134Y-9110174D01*
X11201134Y-9110174D02*
X11182087Y-9100650D01*
X11182087Y-9100650D02*
X11143992Y-9100650D01*
X11143992Y-9100650D02*
X11124944Y-9110174D01*
X11210658Y-9224460D02*
X11191611Y-9233984D01*
X11191611Y-9233984D02*
X11143992Y-9233984D01*
X11143992Y-9233984D02*
X11124944Y-9224460D01*
X11124944Y-9224460D02*
X11115420Y-9205412D01*
X11115420Y-9205412D02*
X11115420Y-9186365D01*
X11115420Y-9186365D02*
X11124944Y-9167317D01*
X11124944Y-9167317D02*
X11143992Y-9157793D01*
X11143992Y-9157793D02*
X11191611Y-9157793D01*
X11191611Y-9157793D02*
X11210658Y-9148270D01*
X11277325Y-9100650D02*
X11353515Y-9100650D01*
X11305896Y-9033984D02*
X11305896Y-9205412D01*
X11305896Y-9205412D02*
X11315420Y-9224460D01*
X11315420Y-9224460D02*
X11334468Y-9233984D01*
X11334468Y-9233984D02*
X11353515Y-9233984D01*
X11496373Y-9224460D02*
X11477325Y-9233984D01*
X11477325Y-9233984D02*
X11439230Y-9233984D01*
X11439230Y-9233984D02*
X11420182Y-9224460D01*
X11420182Y-9224460D02*
X11410658Y-9205412D01*
X11410658Y-9205412D02*
X11410658Y-9129222D01*
X11410658Y-9129222D02*
X11420182Y-9110174D01*
X11420182Y-9110174D02*
X11439230Y-9100650D01*
X11439230Y-9100650D02*
X11477325Y-9100650D01*
X11477325Y-9100650D02*
X11496373Y-9110174D01*
X11496373Y-9110174D02*
X11505896Y-9129222D01*
X11505896Y-9129222D02*
X11505896Y-9148270D01*
X11505896Y-9148270D02*
X11410658Y-9167317D01*
X11677325Y-9233984D02*
X11677325Y-9033984D01*
X11677325Y-9224460D02*
X11658277Y-9233984D01*
X11658277Y-9233984D02*
X11620182Y-9233984D01*
X11620182Y-9233984D02*
X11601134Y-9224460D01*
X11601134Y-9224460D02*
X11591611Y-9214936D01*
X11591611Y-9214936D02*
X11582087Y-9195889D01*
X11582087Y-9195889D02*
X11582087Y-9138746D01*
X11582087Y-9138746D02*
X11591611Y-9119698D01*
X11591611Y-9119698D02*
X11601134Y-9110174D01*
X11601134Y-9110174D02*
X11620182Y-9100650D01*
X11620182Y-9100650D02*
X11658277Y-9100650D01*
X11658277Y-9100650D02*
X11677325Y-9110174D01*
X11753515Y-9310174D02*
X11763039Y-9300650D01*
X11763039Y-9300650D02*
X11782087Y-9272079D01*
X11782087Y-9272079D02*
X11791611Y-9253031D01*
X11791611Y-9253031D02*
X11801134Y-9224460D01*
X11801134Y-9224460D02*
X11810658Y-9176841D01*
X11810658Y-9176841D02*
X11810658Y-9138746D01*
X11810658Y-9138746D02*
X11801134Y-9091127D01*
X11801134Y-9091127D02*
X11791611Y-9062555D01*
X11791611Y-9062555D02*
X11782087Y-9043508D01*
X11782087Y-9043508D02*
X11763039Y-9014936D01*
X11763039Y-9014936D02*
X11753515Y-9005412D01*
M02*
