%TF.GenerationSoftware,KiCad,Pcbnew,8.0.7*%
%TF.CreationDate,2025-01-13T19:39:46-06:00*%
%TF.ProjectId,love-letters,6c6f7665-2d6c-4657-9474-6572732e6b69,rev?*%
%TF.SameCoordinates,Original*%
%TF.FileFunction,Drillmap*%
%TF.FilePolarity,Positive*%
%FSLAX45Y45*%
G04 Gerber Fmt 4.5, Leading zero omitted, Abs format (unit mm)*
G04 Created by KiCad (PCBNEW 8.0.7) date 2025-01-13 19:39:46*
%MOMM*%
%LPD*%
G01*
G04 APERTURE LIST*
%ADD10C,0.050000*%
%ADD11C,0.200000*%
%ADD12C,0.100000*%
%ADD13C,0.220000*%
G04 APERTURE END LIST*
D10*
X7716127Y-8500000D02*
X11280000Y-8500000D01*
X5220000Y-8500000D02*
X6133873Y-8500000D01*
X11500000Y-5220000D02*
X11500000Y-8280000D01*
X7716127Y-8500000D02*
G75*
G02*
X7560565Y-8435562I3J220000D01*
G01*
X5000000Y-8280000D02*
X5000000Y-5220000D01*
X7333873Y-8300000D02*
G75*
G02*
X7489435Y-8364438I-3J-220000D01*
G01*
X5220000Y-5000000D02*
X11280000Y-5000000D01*
X5000000Y-5220000D02*
G75*
G02*
X5220000Y-5000000I220000J0D01*
G01*
X5220000Y-8500000D02*
G75*
G02*
X5000000Y-8280000I0J220000D01*
G01*
X6289436Y-8435564D02*
G75*
G02*
X6133873Y-8499998I-155557J155554D01*
G01*
X7489436Y-8364436D02*
X7560563Y-8435564D01*
X11280000Y-5000000D02*
G75*
G02*
X11500000Y-5220000I0J-220000D01*
G01*
X6289436Y-8435564D02*
X6360563Y-8364436D01*
X11500000Y-8280000D02*
G75*
G02*
X11280000Y-8500000I-220000J0D01*
G01*
X6516127Y-8300000D02*
X7333873Y-8300000D01*
X6360563Y-8364436D02*
G75*
G02*
X6516127Y-8300002I155557J-155554D01*
G01*
D11*
D12*
X6257132Y-7681300D02*
X6287132Y-7711300D01*
X6287132Y-7681300D02*
X6257132Y-7711300D01*
X6892132Y-6841151D02*
X6922132Y-6871151D01*
X6922132Y-6841151D02*
X6892132Y-6871151D01*
X7095332Y-7401900D02*
X7125332Y-7431900D01*
X7125332Y-7401900D02*
X7095332Y-7431900D01*
X7146132Y-6030300D02*
X7176132Y-6060300D01*
X7176132Y-6030300D02*
X7146132Y-6060300D01*
X7890692Y-6842059D02*
X7920692Y-6872059D01*
X7920692Y-6842059D02*
X7890692Y-6872059D01*
X8492332Y-7605100D02*
X8522332Y-7635100D01*
X8522332Y-7605100D02*
X8492332Y-7635100D01*
X8619332Y-7147900D02*
X8649332Y-7177900D01*
X8649332Y-7147900D02*
X8619332Y-7177900D01*
X9051132Y-7376500D02*
X9081132Y-7406500D01*
X9081132Y-7376500D02*
X9051132Y-7406500D01*
X9069632Y-7074727D02*
X9099632Y-7104727D01*
X9099632Y-7074727D02*
X9069632Y-7104727D01*
X9254332Y-6182700D02*
X9284332Y-6212700D01*
X9284332Y-6182700D02*
X9254332Y-6212700D01*
X9279732Y-5954100D02*
X9309732Y-5984100D01*
X9309732Y-5954100D02*
X9279732Y-5984100D01*
X9279732Y-6994400D02*
X9309732Y-7024400D01*
X9309732Y-6994400D02*
X9279732Y-7024400D01*
X9482932Y-5776300D02*
X9512932Y-5806300D01*
X9512932Y-5776300D02*
X9482932Y-5806300D01*
X9533732Y-6995500D02*
X9563732Y-7025500D01*
X9563732Y-6995500D02*
X9533732Y-7025500D01*
X9533732Y-7122500D02*
X9563732Y-7152500D01*
X9563732Y-7122500D02*
X9533732Y-7152500D01*
X9635332Y-5623900D02*
X9665332Y-5653900D01*
X9665332Y-5623900D02*
X9635332Y-5653900D01*
X9660732Y-6233500D02*
X9690732Y-6263500D01*
X9690732Y-6233500D02*
X9660732Y-6263500D01*
X9660732Y-6411300D02*
X9690732Y-6441300D01*
X9690732Y-6411300D02*
X9660732Y-6441300D01*
X9787732Y-5776300D02*
X9817732Y-5806300D01*
X9817732Y-5776300D02*
X9787732Y-5806300D01*
X9849232Y-7372200D02*
X9879232Y-7402200D01*
X9879232Y-7372200D02*
X9849232Y-7402200D01*
X9927399Y-6246232D02*
X9957399Y-6276232D01*
X9957399Y-6246232D02*
X9927399Y-6276232D01*
X10040856Y-7072576D02*
X10070856Y-7102576D01*
X10070856Y-7072576D02*
X10040856Y-7102576D01*
X10208557Y-6962287D02*
X10238557Y-6992287D01*
X10238557Y-6962287D02*
X10208557Y-6992287D01*
X10270332Y-5471500D02*
X10300332Y-5501500D01*
X10300332Y-5471500D02*
X10270332Y-5501500D01*
X10371932Y-7219300D02*
X10401932Y-7249300D01*
X10401932Y-7219300D02*
X10371932Y-7249300D01*
X10448132Y-6487500D02*
X10478132Y-6517500D01*
X10478132Y-6487500D02*
X10448132Y-6517500D01*
X10474821Y-6737422D02*
X10504821Y-6767422D01*
X10504821Y-6737422D02*
X10474821Y-6767422D01*
X10498932Y-6589100D02*
X10528932Y-6619100D01*
X10528932Y-6589100D02*
X10498932Y-6619100D01*
X10498932Y-7071700D02*
X10528932Y-7101700D01*
X10528932Y-7071700D02*
X10498932Y-7101700D01*
X10506794Y-6835238D02*
X10536794Y-6865238D01*
X10536794Y-6835238D02*
X10506794Y-6865238D01*
X10510508Y-6915152D02*
X10540508Y-6945152D01*
X10540508Y-6915152D02*
X10510508Y-6945152D01*
X10524332Y-6665300D02*
X10554332Y-6695300D01*
X10554332Y-6665300D02*
X10524332Y-6695300D01*
X10549732Y-6182700D02*
X10579732Y-6212700D01*
X10579732Y-6182700D02*
X10549732Y-6212700D01*
X10549732Y-6487500D02*
X10579732Y-6517500D01*
X10579732Y-6487500D02*
X10549732Y-6517500D01*
X10651332Y-5903300D02*
X10681332Y-5933300D01*
X10681332Y-5903300D02*
X10651332Y-5933300D01*
X10854532Y-6995500D02*
X10884532Y-7025500D01*
X10884532Y-6995500D02*
X10854532Y-7025500D01*
X11210000Y-7035000D02*
X11240000Y-7065000D01*
X11240000Y-7035000D02*
X11210000Y-7065000D01*
X11210132Y-6559900D02*
X11240132Y-6589900D01*
X11240132Y-6559900D02*
X11210132Y-6589900D01*
X11258297Y-6938390D02*
X11288297Y-6968390D01*
X11288297Y-6938390D02*
X11258297Y-6968390D01*
X11286430Y-6863500D02*
X11316430Y-6893500D01*
X11316430Y-6863500D02*
X11286430Y-6893500D01*
X11360000Y-6710000D02*
X11390000Y-6740000D01*
X11390000Y-6710000D02*
X11360000Y-6740000D01*
X11385298Y-6785895D02*
X11415298Y-6815895D01*
X11415298Y-6785895D02*
X11385298Y-6815895D01*
X6476532Y-5790550D02*
G75*
G02*
X6376532Y-5790550I-50000J0D01*
G01*
X6376532Y-5790550D02*
G75*
G02*
X6476532Y-5790550I50000J0D01*
G01*
X6726532Y-5790550D02*
G75*
G02*
X6626532Y-5790550I-50000J0D01*
G01*
X6626532Y-5790550D02*
G75*
G02*
X6726532Y-5790550I50000J0D01*
G01*
D13*
X5300000Y-5190000D02*
X5300000Y-5410000D01*
X5190000Y-5300000D02*
X5410000Y-5300000D01*
X5300000Y-8090000D02*
X5300000Y-8310000D01*
X5190000Y-8200000D02*
X5410000Y-8200000D01*
X11200000Y-5190000D02*
X11200000Y-5410000D01*
X11090000Y-5300000D02*
X11310000Y-5300000D01*
X11200000Y-8090000D02*
X11200000Y-8310000D01*
X11090000Y-8200000D02*
X11310000Y-8200000D01*
D11*
X5258277Y-8813984D02*
X5258277Y-8613984D01*
X5258277Y-8613984D02*
X5305896Y-8613984D01*
X5305896Y-8613984D02*
X5334467Y-8623508D01*
X5334467Y-8623508D02*
X5353515Y-8642555D01*
X5353515Y-8642555D02*
X5363039Y-8661603D01*
X5363039Y-8661603D02*
X5372563Y-8699698D01*
X5372563Y-8699698D02*
X5372563Y-8728270D01*
X5372563Y-8728270D02*
X5363039Y-8766365D01*
X5363039Y-8766365D02*
X5353515Y-8785412D01*
X5353515Y-8785412D02*
X5334467Y-8804460D01*
X5334467Y-8804460D02*
X5305896Y-8813984D01*
X5305896Y-8813984D02*
X5258277Y-8813984D01*
X5458277Y-8813984D02*
X5458277Y-8680650D01*
X5458277Y-8718746D02*
X5467801Y-8699698D01*
X5467801Y-8699698D02*
X5477324Y-8690174D01*
X5477324Y-8690174D02*
X5496372Y-8680650D01*
X5496372Y-8680650D02*
X5515420Y-8680650D01*
X5582086Y-8813984D02*
X5582086Y-8680650D01*
X5582086Y-8613984D02*
X5572563Y-8623508D01*
X5572563Y-8623508D02*
X5582086Y-8633031D01*
X5582086Y-8633031D02*
X5591610Y-8623508D01*
X5591610Y-8623508D02*
X5582086Y-8613984D01*
X5582086Y-8613984D02*
X5582086Y-8633031D01*
X5705896Y-8813984D02*
X5686848Y-8804460D01*
X5686848Y-8804460D02*
X5677324Y-8785412D01*
X5677324Y-8785412D02*
X5677324Y-8613984D01*
X5810658Y-8813984D02*
X5791610Y-8804460D01*
X5791610Y-8804460D02*
X5782086Y-8785412D01*
X5782086Y-8785412D02*
X5782086Y-8613984D01*
X6039229Y-8813984D02*
X6039229Y-8613984D01*
X6039229Y-8613984D02*
X6105896Y-8756841D01*
X6105896Y-8756841D02*
X6172562Y-8613984D01*
X6172562Y-8613984D02*
X6172562Y-8813984D01*
X6353515Y-8813984D02*
X6353515Y-8709222D01*
X6353515Y-8709222D02*
X6343991Y-8690174D01*
X6343991Y-8690174D02*
X6324943Y-8680650D01*
X6324943Y-8680650D02*
X6286848Y-8680650D01*
X6286848Y-8680650D02*
X6267801Y-8690174D01*
X6353515Y-8804460D02*
X6334467Y-8813984D01*
X6334467Y-8813984D02*
X6286848Y-8813984D01*
X6286848Y-8813984D02*
X6267801Y-8804460D01*
X6267801Y-8804460D02*
X6258277Y-8785412D01*
X6258277Y-8785412D02*
X6258277Y-8766365D01*
X6258277Y-8766365D02*
X6267801Y-8747317D01*
X6267801Y-8747317D02*
X6286848Y-8737793D01*
X6286848Y-8737793D02*
X6334467Y-8737793D01*
X6334467Y-8737793D02*
X6353515Y-8728270D01*
X6448753Y-8680650D02*
X6448753Y-8880650D01*
X6448753Y-8690174D02*
X6467801Y-8680650D01*
X6467801Y-8680650D02*
X6505896Y-8680650D01*
X6505896Y-8680650D02*
X6524943Y-8690174D01*
X6524943Y-8690174D02*
X6534467Y-8699698D01*
X6534467Y-8699698D02*
X6543991Y-8718746D01*
X6543991Y-8718746D02*
X6543991Y-8775889D01*
X6543991Y-8775889D02*
X6534467Y-8794936D01*
X6534467Y-8794936D02*
X6524943Y-8804460D01*
X6524943Y-8804460D02*
X6505896Y-8813984D01*
X6505896Y-8813984D02*
X6467801Y-8813984D01*
X6467801Y-8813984D02*
X6448753Y-8804460D01*
X6629705Y-8794936D02*
X6639229Y-8804460D01*
X6639229Y-8804460D02*
X6629705Y-8813984D01*
X6629705Y-8813984D02*
X6620182Y-8804460D01*
X6620182Y-8804460D02*
X6629705Y-8794936D01*
X6629705Y-8794936D02*
X6629705Y-8813984D01*
X6629705Y-8690174D02*
X6639229Y-8699698D01*
X6639229Y-8699698D02*
X6629705Y-8709222D01*
X6629705Y-8709222D02*
X6620182Y-8699698D01*
X6620182Y-8699698D02*
X6629705Y-8690174D01*
X6629705Y-8690174D02*
X6629705Y-8709222D01*
D12*
X4967500Y-9127500D02*
X4997500Y-9157500D01*
X4997500Y-9127500D02*
X4967500Y-9157500D01*
D11*
X5296372Y-9033984D02*
X5315420Y-9033984D01*
X5315420Y-9033984D02*
X5334467Y-9043508D01*
X5334467Y-9043508D02*
X5343991Y-9053031D01*
X5343991Y-9053031D02*
X5353515Y-9072079D01*
X5353515Y-9072079D02*
X5363039Y-9110174D01*
X5363039Y-9110174D02*
X5363039Y-9157793D01*
X5363039Y-9157793D02*
X5353515Y-9195889D01*
X5353515Y-9195889D02*
X5343991Y-9214936D01*
X5343991Y-9214936D02*
X5334467Y-9224460D01*
X5334467Y-9224460D02*
X5315420Y-9233984D01*
X5315420Y-9233984D02*
X5296372Y-9233984D01*
X5296372Y-9233984D02*
X5277324Y-9224460D01*
X5277324Y-9224460D02*
X5267801Y-9214936D01*
X5267801Y-9214936D02*
X5258277Y-9195889D01*
X5258277Y-9195889D02*
X5248753Y-9157793D01*
X5248753Y-9157793D02*
X5248753Y-9110174D01*
X5248753Y-9110174D02*
X5258277Y-9072079D01*
X5258277Y-9072079D02*
X5267801Y-9053031D01*
X5267801Y-9053031D02*
X5277324Y-9043508D01*
X5277324Y-9043508D02*
X5296372Y-9033984D01*
X5448753Y-9214936D02*
X5458277Y-9224460D01*
X5458277Y-9224460D02*
X5448753Y-9233984D01*
X5448753Y-9233984D02*
X5439229Y-9224460D01*
X5439229Y-9224460D02*
X5448753Y-9214936D01*
X5448753Y-9214936D02*
X5448753Y-9233984D01*
X5524944Y-9033984D02*
X5648753Y-9033984D01*
X5648753Y-9033984D02*
X5582086Y-9110174D01*
X5582086Y-9110174D02*
X5610658Y-9110174D01*
X5610658Y-9110174D02*
X5629705Y-9119698D01*
X5629705Y-9119698D02*
X5639229Y-9129222D01*
X5639229Y-9129222D02*
X5648753Y-9148270D01*
X5648753Y-9148270D02*
X5648753Y-9195889D01*
X5648753Y-9195889D02*
X5639229Y-9214936D01*
X5639229Y-9214936D02*
X5629705Y-9224460D01*
X5629705Y-9224460D02*
X5610658Y-9233984D01*
X5610658Y-9233984D02*
X5553515Y-9233984D01*
X5553515Y-9233984D02*
X5534467Y-9224460D01*
X5534467Y-9224460D02*
X5524944Y-9214936D01*
X5772562Y-9033984D02*
X5791610Y-9033984D01*
X5791610Y-9033984D02*
X5810658Y-9043508D01*
X5810658Y-9043508D02*
X5820182Y-9053031D01*
X5820182Y-9053031D02*
X5829705Y-9072079D01*
X5829705Y-9072079D02*
X5839229Y-9110174D01*
X5839229Y-9110174D02*
X5839229Y-9157793D01*
X5839229Y-9157793D02*
X5829705Y-9195889D01*
X5829705Y-9195889D02*
X5820182Y-9214936D01*
X5820182Y-9214936D02*
X5810658Y-9224460D01*
X5810658Y-9224460D02*
X5791610Y-9233984D01*
X5791610Y-9233984D02*
X5772562Y-9233984D01*
X5772562Y-9233984D02*
X5753515Y-9224460D01*
X5753515Y-9224460D02*
X5743991Y-9214936D01*
X5743991Y-9214936D02*
X5734467Y-9195889D01*
X5734467Y-9195889D02*
X5724943Y-9157793D01*
X5724943Y-9157793D02*
X5724943Y-9110174D01*
X5724943Y-9110174D02*
X5734467Y-9072079D01*
X5734467Y-9072079D02*
X5743991Y-9053031D01*
X5743991Y-9053031D02*
X5753515Y-9043508D01*
X5753515Y-9043508D02*
X5772562Y-9033984D01*
X5963039Y-9033984D02*
X5982086Y-9033984D01*
X5982086Y-9033984D02*
X6001134Y-9043508D01*
X6001134Y-9043508D02*
X6010658Y-9053031D01*
X6010658Y-9053031D02*
X6020182Y-9072079D01*
X6020182Y-9072079D02*
X6029705Y-9110174D01*
X6029705Y-9110174D02*
X6029705Y-9157793D01*
X6029705Y-9157793D02*
X6020182Y-9195889D01*
X6020182Y-9195889D02*
X6010658Y-9214936D01*
X6010658Y-9214936D02*
X6001134Y-9224460D01*
X6001134Y-9224460D02*
X5982086Y-9233984D01*
X5982086Y-9233984D02*
X5963039Y-9233984D01*
X5963039Y-9233984D02*
X5943991Y-9224460D01*
X5943991Y-9224460D02*
X5934467Y-9214936D01*
X5934467Y-9214936D02*
X5924943Y-9195889D01*
X5924943Y-9195889D02*
X5915420Y-9157793D01*
X5915420Y-9157793D02*
X5915420Y-9110174D01*
X5915420Y-9110174D02*
X5924943Y-9072079D01*
X5924943Y-9072079D02*
X5934467Y-9053031D01*
X5934467Y-9053031D02*
X5943991Y-9043508D01*
X5943991Y-9043508D02*
X5963039Y-9033984D01*
X6115420Y-9233984D02*
X6115420Y-9100650D01*
X6115420Y-9119698D02*
X6124943Y-9110174D01*
X6124943Y-9110174D02*
X6143991Y-9100650D01*
X6143991Y-9100650D02*
X6172563Y-9100650D01*
X6172563Y-9100650D02*
X6191610Y-9110174D01*
X6191610Y-9110174D02*
X6201134Y-9129222D01*
X6201134Y-9129222D02*
X6201134Y-9233984D01*
X6201134Y-9129222D02*
X6210658Y-9110174D01*
X6210658Y-9110174D02*
X6229705Y-9100650D01*
X6229705Y-9100650D02*
X6258277Y-9100650D01*
X6258277Y-9100650D02*
X6277324Y-9110174D01*
X6277324Y-9110174D02*
X6286848Y-9129222D01*
X6286848Y-9129222D02*
X6286848Y-9233984D01*
X6382086Y-9233984D02*
X6382086Y-9100650D01*
X6382086Y-9119698D02*
X6391610Y-9110174D01*
X6391610Y-9110174D02*
X6410658Y-9100650D01*
X6410658Y-9100650D02*
X6439229Y-9100650D01*
X6439229Y-9100650D02*
X6458277Y-9110174D01*
X6458277Y-9110174D02*
X6467801Y-9129222D01*
X6467801Y-9129222D02*
X6467801Y-9233984D01*
X6467801Y-9129222D02*
X6477324Y-9110174D01*
X6477324Y-9110174D02*
X6496372Y-9100650D01*
X6496372Y-9100650D02*
X6524943Y-9100650D01*
X6524943Y-9100650D02*
X6543991Y-9110174D01*
X6543991Y-9110174D02*
X6553515Y-9129222D01*
X6553515Y-9129222D02*
X6553515Y-9233984D01*
X6943991Y-9024460D02*
X6772563Y-9281603D01*
X7201134Y-9033984D02*
X7220182Y-9033984D01*
X7220182Y-9033984D02*
X7239229Y-9043508D01*
X7239229Y-9043508D02*
X7248753Y-9053031D01*
X7248753Y-9053031D02*
X7258277Y-9072079D01*
X7258277Y-9072079D02*
X7267801Y-9110174D01*
X7267801Y-9110174D02*
X7267801Y-9157793D01*
X7267801Y-9157793D02*
X7258277Y-9195889D01*
X7258277Y-9195889D02*
X7248753Y-9214936D01*
X7248753Y-9214936D02*
X7239229Y-9224460D01*
X7239229Y-9224460D02*
X7220182Y-9233984D01*
X7220182Y-9233984D02*
X7201134Y-9233984D01*
X7201134Y-9233984D02*
X7182086Y-9224460D01*
X7182086Y-9224460D02*
X7172563Y-9214936D01*
X7172563Y-9214936D02*
X7163039Y-9195889D01*
X7163039Y-9195889D02*
X7153515Y-9157793D01*
X7153515Y-9157793D02*
X7153515Y-9110174D01*
X7153515Y-9110174D02*
X7163039Y-9072079D01*
X7163039Y-9072079D02*
X7172563Y-9053031D01*
X7172563Y-9053031D02*
X7182086Y-9043508D01*
X7182086Y-9043508D02*
X7201134Y-9033984D01*
X7353515Y-9214936D02*
X7363039Y-9224460D01*
X7363039Y-9224460D02*
X7353515Y-9233984D01*
X7353515Y-9233984D02*
X7343991Y-9224460D01*
X7343991Y-9224460D02*
X7353515Y-9214936D01*
X7353515Y-9214936D02*
X7353515Y-9233984D01*
X7486848Y-9033984D02*
X7505896Y-9033984D01*
X7505896Y-9033984D02*
X7524944Y-9043508D01*
X7524944Y-9043508D02*
X7534467Y-9053031D01*
X7534467Y-9053031D02*
X7543991Y-9072079D01*
X7543991Y-9072079D02*
X7553515Y-9110174D01*
X7553515Y-9110174D02*
X7553515Y-9157793D01*
X7553515Y-9157793D02*
X7543991Y-9195889D01*
X7543991Y-9195889D02*
X7534467Y-9214936D01*
X7534467Y-9214936D02*
X7524944Y-9224460D01*
X7524944Y-9224460D02*
X7505896Y-9233984D01*
X7505896Y-9233984D02*
X7486848Y-9233984D01*
X7486848Y-9233984D02*
X7467801Y-9224460D01*
X7467801Y-9224460D02*
X7458277Y-9214936D01*
X7458277Y-9214936D02*
X7448753Y-9195889D01*
X7448753Y-9195889D02*
X7439229Y-9157793D01*
X7439229Y-9157793D02*
X7439229Y-9110174D01*
X7439229Y-9110174D02*
X7448753Y-9072079D01*
X7448753Y-9072079D02*
X7458277Y-9053031D01*
X7458277Y-9053031D02*
X7467801Y-9043508D01*
X7467801Y-9043508D02*
X7486848Y-9033984D01*
X7743991Y-9233984D02*
X7629706Y-9233984D01*
X7686848Y-9233984D02*
X7686848Y-9033984D01*
X7686848Y-9033984D02*
X7667801Y-9062555D01*
X7667801Y-9062555D02*
X7648753Y-9081603D01*
X7648753Y-9081603D02*
X7629706Y-9091127D01*
X7934467Y-9233984D02*
X7820182Y-9233984D01*
X7877325Y-9233984D02*
X7877325Y-9033984D01*
X7877325Y-9033984D02*
X7858277Y-9062555D01*
X7858277Y-9062555D02*
X7839229Y-9081603D01*
X7839229Y-9081603D02*
X7820182Y-9091127D01*
X8048753Y-9119698D02*
X8029706Y-9110174D01*
X8029706Y-9110174D02*
X8020182Y-9100650D01*
X8020182Y-9100650D02*
X8010658Y-9081603D01*
X8010658Y-9081603D02*
X8010658Y-9072079D01*
X8010658Y-9072079D02*
X8020182Y-9053031D01*
X8020182Y-9053031D02*
X8029706Y-9043508D01*
X8029706Y-9043508D02*
X8048753Y-9033984D01*
X8048753Y-9033984D02*
X8086848Y-9033984D01*
X8086848Y-9033984D02*
X8105896Y-9043508D01*
X8105896Y-9043508D02*
X8115420Y-9053031D01*
X8115420Y-9053031D02*
X8124944Y-9072079D01*
X8124944Y-9072079D02*
X8124944Y-9081603D01*
X8124944Y-9081603D02*
X8115420Y-9100650D01*
X8115420Y-9100650D02*
X8105896Y-9110174D01*
X8105896Y-9110174D02*
X8086848Y-9119698D01*
X8086848Y-9119698D02*
X8048753Y-9119698D01*
X8048753Y-9119698D02*
X8029706Y-9129222D01*
X8029706Y-9129222D02*
X8020182Y-9138746D01*
X8020182Y-9138746D02*
X8010658Y-9157793D01*
X8010658Y-9157793D02*
X8010658Y-9195889D01*
X8010658Y-9195889D02*
X8020182Y-9214936D01*
X8020182Y-9214936D02*
X8029706Y-9224460D01*
X8029706Y-9224460D02*
X8048753Y-9233984D01*
X8048753Y-9233984D02*
X8086848Y-9233984D01*
X8086848Y-9233984D02*
X8105896Y-9224460D01*
X8105896Y-9224460D02*
X8115420Y-9214936D01*
X8115420Y-9214936D02*
X8124944Y-9195889D01*
X8124944Y-9195889D02*
X8124944Y-9157793D01*
X8124944Y-9157793D02*
X8115420Y-9138746D01*
X8115420Y-9138746D02*
X8105896Y-9129222D01*
X8105896Y-9129222D02*
X8086848Y-9119698D01*
X8201134Y-9033984D02*
X8201134Y-9072079D01*
X8277325Y-9033984D02*
X8277325Y-9072079D01*
X8572563Y-9310174D02*
X8563039Y-9300650D01*
X8563039Y-9300650D02*
X8543991Y-9272079D01*
X8543991Y-9272079D02*
X8534468Y-9253031D01*
X8534468Y-9253031D02*
X8524944Y-9224460D01*
X8524944Y-9224460D02*
X8515420Y-9176841D01*
X8515420Y-9176841D02*
X8515420Y-9138746D01*
X8515420Y-9138746D02*
X8524944Y-9091127D01*
X8524944Y-9091127D02*
X8534468Y-9062555D01*
X8534468Y-9062555D02*
X8543991Y-9043508D01*
X8543991Y-9043508D02*
X8563039Y-9014936D01*
X8563039Y-9014936D02*
X8572563Y-9005412D01*
X8734468Y-9100650D02*
X8734468Y-9233984D01*
X8686849Y-9024460D02*
X8639230Y-9167317D01*
X8639230Y-9167317D02*
X8763039Y-9167317D01*
X8829706Y-9053031D02*
X8839230Y-9043508D01*
X8839230Y-9043508D02*
X8858277Y-9033984D01*
X8858277Y-9033984D02*
X8905896Y-9033984D01*
X8905896Y-9033984D02*
X8924944Y-9043508D01*
X8924944Y-9043508D02*
X8934468Y-9053031D01*
X8934468Y-9053031D02*
X8943991Y-9072079D01*
X8943991Y-9072079D02*
X8943991Y-9091127D01*
X8943991Y-9091127D02*
X8934468Y-9119698D01*
X8934468Y-9119698D02*
X8820182Y-9233984D01*
X8820182Y-9233984D02*
X8943991Y-9233984D01*
X9182087Y-9233984D02*
X9182087Y-9033984D01*
X9267801Y-9233984D02*
X9267801Y-9129222D01*
X9267801Y-9129222D02*
X9258277Y-9110174D01*
X9258277Y-9110174D02*
X9239230Y-9100650D01*
X9239230Y-9100650D02*
X9210658Y-9100650D01*
X9210658Y-9100650D02*
X9191611Y-9110174D01*
X9191611Y-9110174D02*
X9182087Y-9119698D01*
X9391611Y-9233984D02*
X9372563Y-9224460D01*
X9372563Y-9224460D02*
X9363039Y-9214936D01*
X9363039Y-9214936D02*
X9353515Y-9195889D01*
X9353515Y-9195889D02*
X9353515Y-9138746D01*
X9353515Y-9138746D02*
X9363039Y-9119698D01*
X9363039Y-9119698D02*
X9372563Y-9110174D01*
X9372563Y-9110174D02*
X9391611Y-9100650D01*
X9391611Y-9100650D02*
X9420182Y-9100650D01*
X9420182Y-9100650D02*
X9439230Y-9110174D01*
X9439230Y-9110174D02*
X9448753Y-9119698D01*
X9448753Y-9119698D02*
X9458277Y-9138746D01*
X9458277Y-9138746D02*
X9458277Y-9195889D01*
X9458277Y-9195889D02*
X9448753Y-9214936D01*
X9448753Y-9214936D02*
X9439230Y-9224460D01*
X9439230Y-9224460D02*
X9420182Y-9233984D01*
X9420182Y-9233984D02*
X9391611Y-9233984D01*
X9572563Y-9233984D02*
X9553515Y-9224460D01*
X9553515Y-9224460D02*
X9543992Y-9205412D01*
X9543992Y-9205412D02*
X9543992Y-9033984D01*
X9724944Y-9224460D02*
X9705896Y-9233984D01*
X9705896Y-9233984D02*
X9667801Y-9233984D01*
X9667801Y-9233984D02*
X9648753Y-9224460D01*
X9648753Y-9224460D02*
X9639230Y-9205412D01*
X9639230Y-9205412D02*
X9639230Y-9129222D01*
X9639230Y-9129222D02*
X9648753Y-9110174D01*
X9648753Y-9110174D02*
X9667801Y-9100650D01*
X9667801Y-9100650D02*
X9705896Y-9100650D01*
X9705896Y-9100650D02*
X9724944Y-9110174D01*
X9724944Y-9110174D02*
X9734468Y-9129222D01*
X9734468Y-9129222D02*
X9734468Y-9148270D01*
X9734468Y-9148270D02*
X9639230Y-9167317D01*
X9810658Y-9224460D02*
X9829706Y-9233984D01*
X9829706Y-9233984D02*
X9867801Y-9233984D01*
X9867801Y-9233984D02*
X9886849Y-9224460D01*
X9886849Y-9224460D02*
X9896373Y-9205412D01*
X9896373Y-9205412D02*
X9896373Y-9195889D01*
X9896373Y-9195889D02*
X9886849Y-9176841D01*
X9886849Y-9176841D02*
X9867801Y-9167317D01*
X9867801Y-9167317D02*
X9839230Y-9167317D01*
X9839230Y-9167317D02*
X9820182Y-9157793D01*
X9820182Y-9157793D02*
X9810658Y-9138746D01*
X9810658Y-9138746D02*
X9810658Y-9129222D01*
X9810658Y-9129222D02*
X9820182Y-9110174D01*
X9820182Y-9110174D02*
X9839230Y-9100650D01*
X9839230Y-9100650D02*
X9867801Y-9100650D01*
X9867801Y-9100650D02*
X9886849Y-9110174D01*
X9963039Y-9310174D02*
X9972563Y-9300650D01*
X9972563Y-9300650D02*
X9991611Y-9272079D01*
X9991611Y-9272079D02*
X10001134Y-9253031D01*
X10001134Y-9253031D02*
X10010658Y-9224460D01*
X10010658Y-9224460D02*
X10020182Y-9176841D01*
X10020182Y-9176841D02*
X10020182Y-9138746D01*
X10020182Y-9138746D02*
X10010658Y-9091127D01*
X10010658Y-9091127D02*
X10001134Y-9062555D01*
X10001134Y-9062555D02*
X9991611Y-9043508D01*
X9991611Y-9043508D02*
X9972563Y-9014936D01*
X9972563Y-9014936D02*
X9963039Y-9005412D01*
D12*
X4997500Y-9406500D02*
G75*
G02*
X4897500Y-9406500I-50000J0D01*
G01*
X4897500Y-9406500D02*
G75*
G02*
X4997500Y-9406500I50000J0D01*
G01*
D11*
X5363039Y-9497984D02*
X5248753Y-9497984D01*
X5305896Y-9497984D02*
X5305896Y-9297984D01*
X5305896Y-9297984D02*
X5286848Y-9326555D01*
X5286848Y-9326555D02*
X5267801Y-9345603D01*
X5267801Y-9345603D02*
X5248753Y-9355127D01*
X5448753Y-9478936D02*
X5458277Y-9488460D01*
X5458277Y-9488460D02*
X5448753Y-9497984D01*
X5448753Y-9497984D02*
X5439229Y-9488460D01*
X5439229Y-9488460D02*
X5448753Y-9478936D01*
X5448753Y-9478936D02*
X5448753Y-9497984D01*
X5582086Y-9297984D02*
X5601134Y-9297984D01*
X5601134Y-9297984D02*
X5620182Y-9307508D01*
X5620182Y-9307508D02*
X5629705Y-9317031D01*
X5629705Y-9317031D02*
X5639229Y-9336079D01*
X5639229Y-9336079D02*
X5648753Y-9374174D01*
X5648753Y-9374174D02*
X5648753Y-9421793D01*
X5648753Y-9421793D02*
X5639229Y-9459889D01*
X5639229Y-9459889D02*
X5629705Y-9478936D01*
X5629705Y-9478936D02*
X5620182Y-9488460D01*
X5620182Y-9488460D02*
X5601134Y-9497984D01*
X5601134Y-9497984D02*
X5582086Y-9497984D01*
X5582086Y-9497984D02*
X5563039Y-9488460D01*
X5563039Y-9488460D02*
X5553515Y-9478936D01*
X5553515Y-9478936D02*
X5543991Y-9459889D01*
X5543991Y-9459889D02*
X5534467Y-9421793D01*
X5534467Y-9421793D02*
X5534467Y-9374174D01*
X5534467Y-9374174D02*
X5543991Y-9336079D01*
X5543991Y-9336079D02*
X5553515Y-9317031D01*
X5553515Y-9317031D02*
X5563039Y-9307508D01*
X5563039Y-9307508D02*
X5582086Y-9297984D01*
X5772562Y-9297984D02*
X5791610Y-9297984D01*
X5791610Y-9297984D02*
X5810658Y-9307508D01*
X5810658Y-9307508D02*
X5820182Y-9317031D01*
X5820182Y-9317031D02*
X5829705Y-9336079D01*
X5829705Y-9336079D02*
X5839229Y-9374174D01*
X5839229Y-9374174D02*
X5839229Y-9421793D01*
X5839229Y-9421793D02*
X5829705Y-9459889D01*
X5829705Y-9459889D02*
X5820182Y-9478936D01*
X5820182Y-9478936D02*
X5810658Y-9488460D01*
X5810658Y-9488460D02*
X5791610Y-9497984D01*
X5791610Y-9497984D02*
X5772562Y-9497984D01*
X5772562Y-9497984D02*
X5753515Y-9488460D01*
X5753515Y-9488460D02*
X5743991Y-9478936D01*
X5743991Y-9478936D02*
X5734467Y-9459889D01*
X5734467Y-9459889D02*
X5724943Y-9421793D01*
X5724943Y-9421793D02*
X5724943Y-9374174D01*
X5724943Y-9374174D02*
X5734467Y-9336079D01*
X5734467Y-9336079D02*
X5743991Y-9317031D01*
X5743991Y-9317031D02*
X5753515Y-9307508D01*
X5753515Y-9307508D02*
X5772562Y-9297984D01*
X5963039Y-9297984D02*
X5982086Y-9297984D01*
X5982086Y-9297984D02*
X6001134Y-9307508D01*
X6001134Y-9307508D02*
X6010658Y-9317031D01*
X6010658Y-9317031D02*
X6020182Y-9336079D01*
X6020182Y-9336079D02*
X6029705Y-9374174D01*
X6029705Y-9374174D02*
X6029705Y-9421793D01*
X6029705Y-9421793D02*
X6020182Y-9459889D01*
X6020182Y-9459889D02*
X6010658Y-9478936D01*
X6010658Y-9478936D02*
X6001134Y-9488460D01*
X6001134Y-9488460D02*
X5982086Y-9497984D01*
X5982086Y-9497984D02*
X5963039Y-9497984D01*
X5963039Y-9497984D02*
X5943991Y-9488460D01*
X5943991Y-9488460D02*
X5934467Y-9478936D01*
X5934467Y-9478936D02*
X5924943Y-9459889D01*
X5924943Y-9459889D02*
X5915420Y-9421793D01*
X5915420Y-9421793D02*
X5915420Y-9374174D01*
X5915420Y-9374174D02*
X5924943Y-9336079D01*
X5924943Y-9336079D02*
X5934467Y-9317031D01*
X5934467Y-9317031D02*
X5943991Y-9307508D01*
X5943991Y-9307508D02*
X5963039Y-9297984D01*
X6115420Y-9497984D02*
X6115420Y-9364650D01*
X6115420Y-9383698D02*
X6124943Y-9374174D01*
X6124943Y-9374174D02*
X6143991Y-9364650D01*
X6143991Y-9364650D02*
X6172563Y-9364650D01*
X6172563Y-9364650D02*
X6191610Y-9374174D01*
X6191610Y-9374174D02*
X6201134Y-9393222D01*
X6201134Y-9393222D02*
X6201134Y-9497984D01*
X6201134Y-9393222D02*
X6210658Y-9374174D01*
X6210658Y-9374174D02*
X6229705Y-9364650D01*
X6229705Y-9364650D02*
X6258277Y-9364650D01*
X6258277Y-9364650D02*
X6277324Y-9374174D01*
X6277324Y-9374174D02*
X6286848Y-9393222D01*
X6286848Y-9393222D02*
X6286848Y-9497984D01*
X6382086Y-9497984D02*
X6382086Y-9364650D01*
X6382086Y-9383698D02*
X6391610Y-9374174D01*
X6391610Y-9374174D02*
X6410658Y-9364650D01*
X6410658Y-9364650D02*
X6439229Y-9364650D01*
X6439229Y-9364650D02*
X6458277Y-9374174D01*
X6458277Y-9374174D02*
X6467801Y-9393222D01*
X6467801Y-9393222D02*
X6467801Y-9497984D01*
X6467801Y-9393222D02*
X6477324Y-9374174D01*
X6477324Y-9374174D02*
X6496372Y-9364650D01*
X6496372Y-9364650D02*
X6524943Y-9364650D01*
X6524943Y-9364650D02*
X6543991Y-9374174D01*
X6543991Y-9374174D02*
X6553515Y-9393222D01*
X6553515Y-9393222D02*
X6553515Y-9497984D01*
X6943991Y-9288460D02*
X6772563Y-9545603D01*
X7201134Y-9297984D02*
X7220182Y-9297984D01*
X7220182Y-9297984D02*
X7239229Y-9307508D01*
X7239229Y-9307508D02*
X7248753Y-9317031D01*
X7248753Y-9317031D02*
X7258277Y-9336079D01*
X7258277Y-9336079D02*
X7267801Y-9374174D01*
X7267801Y-9374174D02*
X7267801Y-9421793D01*
X7267801Y-9421793D02*
X7258277Y-9459889D01*
X7258277Y-9459889D02*
X7248753Y-9478936D01*
X7248753Y-9478936D02*
X7239229Y-9488460D01*
X7239229Y-9488460D02*
X7220182Y-9497984D01*
X7220182Y-9497984D02*
X7201134Y-9497984D01*
X7201134Y-9497984D02*
X7182086Y-9488460D01*
X7182086Y-9488460D02*
X7172563Y-9478936D01*
X7172563Y-9478936D02*
X7163039Y-9459889D01*
X7163039Y-9459889D02*
X7153515Y-9421793D01*
X7153515Y-9421793D02*
X7153515Y-9374174D01*
X7153515Y-9374174D02*
X7163039Y-9336079D01*
X7163039Y-9336079D02*
X7172563Y-9317031D01*
X7172563Y-9317031D02*
X7182086Y-9307508D01*
X7182086Y-9307508D02*
X7201134Y-9297984D01*
X7353515Y-9478936D02*
X7363039Y-9488460D01*
X7363039Y-9488460D02*
X7353515Y-9497984D01*
X7353515Y-9497984D02*
X7343991Y-9488460D01*
X7343991Y-9488460D02*
X7353515Y-9478936D01*
X7353515Y-9478936D02*
X7353515Y-9497984D01*
X7486848Y-9297984D02*
X7505896Y-9297984D01*
X7505896Y-9297984D02*
X7524944Y-9307508D01*
X7524944Y-9307508D02*
X7534467Y-9317031D01*
X7534467Y-9317031D02*
X7543991Y-9336079D01*
X7543991Y-9336079D02*
X7553515Y-9374174D01*
X7553515Y-9374174D02*
X7553515Y-9421793D01*
X7553515Y-9421793D02*
X7543991Y-9459889D01*
X7543991Y-9459889D02*
X7534467Y-9478936D01*
X7534467Y-9478936D02*
X7524944Y-9488460D01*
X7524944Y-9488460D02*
X7505896Y-9497984D01*
X7505896Y-9497984D02*
X7486848Y-9497984D01*
X7486848Y-9497984D02*
X7467801Y-9488460D01*
X7467801Y-9488460D02*
X7458277Y-9478936D01*
X7458277Y-9478936D02*
X7448753Y-9459889D01*
X7448753Y-9459889D02*
X7439229Y-9421793D01*
X7439229Y-9421793D02*
X7439229Y-9374174D01*
X7439229Y-9374174D02*
X7448753Y-9336079D01*
X7448753Y-9336079D02*
X7458277Y-9317031D01*
X7458277Y-9317031D02*
X7467801Y-9307508D01*
X7467801Y-9307508D02*
X7486848Y-9297984D01*
X7620182Y-9297984D02*
X7743991Y-9297984D01*
X7743991Y-9297984D02*
X7677325Y-9374174D01*
X7677325Y-9374174D02*
X7705896Y-9374174D01*
X7705896Y-9374174D02*
X7724944Y-9383698D01*
X7724944Y-9383698D02*
X7734467Y-9393222D01*
X7734467Y-9393222D02*
X7743991Y-9412270D01*
X7743991Y-9412270D02*
X7743991Y-9459889D01*
X7743991Y-9459889D02*
X7734467Y-9478936D01*
X7734467Y-9478936D02*
X7724944Y-9488460D01*
X7724944Y-9488460D02*
X7705896Y-9497984D01*
X7705896Y-9497984D02*
X7648753Y-9497984D01*
X7648753Y-9497984D02*
X7629706Y-9488460D01*
X7629706Y-9488460D02*
X7620182Y-9478936D01*
X7839229Y-9497984D02*
X7877325Y-9497984D01*
X7877325Y-9497984D02*
X7896372Y-9488460D01*
X7896372Y-9488460D02*
X7905896Y-9478936D01*
X7905896Y-9478936D02*
X7924944Y-9450365D01*
X7924944Y-9450365D02*
X7934467Y-9412270D01*
X7934467Y-9412270D02*
X7934467Y-9336079D01*
X7934467Y-9336079D02*
X7924944Y-9317031D01*
X7924944Y-9317031D02*
X7915420Y-9307508D01*
X7915420Y-9307508D02*
X7896372Y-9297984D01*
X7896372Y-9297984D02*
X7858277Y-9297984D01*
X7858277Y-9297984D02*
X7839229Y-9307508D01*
X7839229Y-9307508D02*
X7829706Y-9317031D01*
X7829706Y-9317031D02*
X7820182Y-9336079D01*
X7820182Y-9336079D02*
X7820182Y-9383698D01*
X7820182Y-9383698D02*
X7829706Y-9402746D01*
X7829706Y-9402746D02*
X7839229Y-9412270D01*
X7839229Y-9412270D02*
X7858277Y-9421793D01*
X7858277Y-9421793D02*
X7896372Y-9421793D01*
X7896372Y-9421793D02*
X7915420Y-9412270D01*
X7915420Y-9412270D02*
X7924944Y-9402746D01*
X7924944Y-9402746D02*
X7934467Y-9383698D01*
X8105896Y-9364650D02*
X8105896Y-9497984D01*
X8058277Y-9288460D02*
X8010658Y-9431317D01*
X8010658Y-9431317D02*
X8134467Y-9431317D01*
X8201134Y-9297984D02*
X8201134Y-9336079D01*
X8277325Y-9297984D02*
X8277325Y-9336079D01*
X8572563Y-9574174D02*
X8563039Y-9564650D01*
X8563039Y-9564650D02*
X8543991Y-9536079D01*
X8543991Y-9536079D02*
X8534468Y-9517031D01*
X8534468Y-9517031D02*
X8524944Y-9488460D01*
X8524944Y-9488460D02*
X8515420Y-9440841D01*
X8515420Y-9440841D02*
X8515420Y-9402746D01*
X8515420Y-9402746D02*
X8524944Y-9355127D01*
X8524944Y-9355127D02*
X8534468Y-9326555D01*
X8534468Y-9326555D02*
X8543991Y-9307508D01*
X8543991Y-9307508D02*
X8563039Y-9278936D01*
X8563039Y-9278936D02*
X8572563Y-9269412D01*
X8639230Y-9317031D02*
X8648753Y-9307508D01*
X8648753Y-9307508D02*
X8667801Y-9297984D01*
X8667801Y-9297984D02*
X8715420Y-9297984D01*
X8715420Y-9297984D02*
X8734468Y-9307508D01*
X8734468Y-9307508D02*
X8743991Y-9317031D01*
X8743991Y-9317031D02*
X8753515Y-9336079D01*
X8753515Y-9336079D02*
X8753515Y-9355127D01*
X8753515Y-9355127D02*
X8743991Y-9383698D01*
X8743991Y-9383698D02*
X8629706Y-9497984D01*
X8629706Y-9497984D02*
X8753515Y-9497984D01*
X8991611Y-9497984D02*
X8991611Y-9297984D01*
X9077325Y-9497984D02*
X9077325Y-9393222D01*
X9077325Y-9393222D02*
X9067801Y-9374174D01*
X9067801Y-9374174D02*
X9048753Y-9364650D01*
X9048753Y-9364650D02*
X9020182Y-9364650D01*
X9020182Y-9364650D02*
X9001134Y-9374174D01*
X9001134Y-9374174D02*
X8991611Y-9383698D01*
X9201134Y-9497984D02*
X9182087Y-9488460D01*
X9182087Y-9488460D02*
X9172563Y-9478936D01*
X9172563Y-9478936D02*
X9163039Y-9459889D01*
X9163039Y-9459889D02*
X9163039Y-9402746D01*
X9163039Y-9402746D02*
X9172563Y-9383698D01*
X9172563Y-9383698D02*
X9182087Y-9374174D01*
X9182087Y-9374174D02*
X9201134Y-9364650D01*
X9201134Y-9364650D02*
X9229706Y-9364650D01*
X9229706Y-9364650D02*
X9248753Y-9374174D01*
X9248753Y-9374174D02*
X9258277Y-9383698D01*
X9258277Y-9383698D02*
X9267801Y-9402746D01*
X9267801Y-9402746D02*
X9267801Y-9459889D01*
X9267801Y-9459889D02*
X9258277Y-9478936D01*
X9258277Y-9478936D02*
X9248753Y-9488460D01*
X9248753Y-9488460D02*
X9229706Y-9497984D01*
X9229706Y-9497984D02*
X9201134Y-9497984D01*
X9382087Y-9497984D02*
X9363039Y-9488460D01*
X9363039Y-9488460D02*
X9353515Y-9469412D01*
X9353515Y-9469412D02*
X9353515Y-9297984D01*
X9534468Y-9488460D02*
X9515420Y-9497984D01*
X9515420Y-9497984D02*
X9477325Y-9497984D01*
X9477325Y-9497984D02*
X9458277Y-9488460D01*
X9458277Y-9488460D02*
X9448753Y-9469412D01*
X9448753Y-9469412D02*
X9448753Y-9393222D01*
X9448753Y-9393222D02*
X9458277Y-9374174D01*
X9458277Y-9374174D02*
X9477325Y-9364650D01*
X9477325Y-9364650D02*
X9515420Y-9364650D01*
X9515420Y-9364650D02*
X9534468Y-9374174D01*
X9534468Y-9374174D02*
X9543992Y-9393222D01*
X9543992Y-9393222D02*
X9543992Y-9412270D01*
X9543992Y-9412270D02*
X9448753Y-9431317D01*
X9620182Y-9488460D02*
X9639230Y-9497984D01*
X9639230Y-9497984D02*
X9677325Y-9497984D01*
X9677325Y-9497984D02*
X9696373Y-9488460D01*
X9696373Y-9488460D02*
X9705896Y-9469412D01*
X9705896Y-9469412D02*
X9705896Y-9459889D01*
X9705896Y-9459889D02*
X9696373Y-9440841D01*
X9696373Y-9440841D02*
X9677325Y-9431317D01*
X9677325Y-9431317D02*
X9648753Y-9431317D01*
X9648753Y-9431317D02*
X9629706Y-9421793D01*
X9629706Y-9421793D02*
X9620182Y-9402746D01*
X9620182Y-9402746D02*
X9620182Y-9393222D01*
X9620182Y-9393222D02*
X9629706Y-9374174D01*
X9629706Y-9374174D02*
X9648753Y-9364650D01*
X9648753Y-9364650D02*
X9677325Y-9364650D01*
X9677325Y-9364650D02*
X9696373Y-9374174D01*
X9772563Y-9574174D02*
X9782087Y-9564650D01*
X9782087Y-9564650D02*
X9801134Y-9536079D01*
X9801134Y-9536079D02*
X9810658Y-9517031D01*
X9810658Y-9517031D02*
X9820182Y-9488460D01*
X9820182Y-9488460D02*
X9829706Y-9440841D01*
X9829706Y-9440841D02*
X9829706Y-9402746D01*
X9829706Y-9402746D02*
X9820182Y-9355127D01*
X9820182Y-9355127D02*
X9810658Y-9326555D01*
X9810658Y-9326555D02*
X9801134Y-9307508D01*
X9801134Y-9307508D02*
X9782087Y-9278936D01*
X9782087Y-9278936D02*
X9772563Y-9269412D01*
X4897500Y-9570500D02*
X4897500Y-9770500D01*
X4797500Y-9670500D02*
X4997500Y-9670500D01*
X5248753Y-9581031D02*
X5258277Y-9571508D01*
X5258277Y-9571508D02*
X5277324Y-9561984D01*
X5277324Y-9561984D02*
X5324944Y-9561984D01*
X5324944Y-9561984D02*
X5343991Y-9571508D01*
X5343991Y-9571508D02*
X5353515Y-9581031D01*
X5353515Y-9581031D02*
X5363039Y-9600079D01*
X5363039Y-9600079D02*
X5363039Y-9619127D01*
X5363039Y-9619127D02*
X5353515Y-9647698D01*
X5353515Y-9647698D02*
X5239229Y-9761984D01*
X5239229Y-9761984D02*
X5363039Y-9761984D01*
X5448753Y-9742936D02*
X5458277Y-9752460D01*
X5458277Y-9752460D02*
X5448753Y-9761984D01*
X5448753Y-9761984D02*
X5439229Y-9752460D01*
X5439229Y-9752460D02*
X5448753Y-9742936D01*
X5448753Y-9742936D02*
X5448753Y-9761984D01*
X5534467Y-9581031D02*
X5543991Y-9571508D01*
X5543991Y-9571508D02*
X5563039Y-9561984D01*
X5563039Y-9561984D02*
X5610658Y-9561984D01*
X5610658Y-9561984D02*
X5629705Y-9571508D01*
X5629705Y-9571508D02*
X5639229Y-9581031D01*
X5639229Y-9581031D02*
X5648753Y-9600079D01*
X5648753Y-9600079D02*
X5648753Y-9619127D01*
X5648753Y-9619127D02*
X5639229Y-9647698D01*
X5639229Y-9647698D02*
X5524944Y-9761984D01*
X5524944Y-9761984D02*
X5648753Y-9761984D01*
X5772562Y-9561984D02*
X5791610Y-9561984D01*
X5791610Y-9561984D02*
X5810658Y-9571508D01*
X5810658Y-9571508D02*
X5820182Y-9581031D01*
X5820182Y-9581031D02*
X5829705Y-9600079D01*
X5829705Y-9600079D02*
X5839229Y-9638174D01*
X5839229Y-9638174D02*
X5839229Y-9685793D01*
X5839229Y-9685793D02*
X5829705Y-9723889D01*
X5829705Y-9723889D02*
X5820182Y-9742936D01*
X5820182Y-9742936D02*
X5810658Y-9752460D01*
X5810658Y-9752460D02*
X5791610Y-9761984D01*
X5791610Y-9761984D02*
X5772562Y-9761984D01*
X5772562Y-9761984D02*
X5753515Y-9752460D01*
X5753515Y-9752460D02*
X5743991Y-9742936D01*
X5743991Y-9742936D02*
X5734467Y-9723889D01*
X5734467Y-9723889D02*
X5724943Y-9685793D01*
X5724943Y-9685793D02*
X5724943Y-9638174D01*
X5724943Y-9638174D02*
X5734467Y-9600079D01*
X5734467Y-9600079D02*
X5743991Y-9581031D01*
X5743991Y-9581031D02*
X5753515Y-9571508D01*
X5753515Y-9571508D02*
X5772562Y-9561984D01*
X5963039Y-9561984D02*
X5982086Y-9561984D01*
X5982086Y-9561984D02*
X6001134Y-9571508D01*
X6001134Y-9571508D02*
X6010658Y-9581031D01*
X6010658Y-9581031D02*
X6020182Y-9600079D01*
X6020182Y-9600079D02*
X6029705Y-9638174D01*
X6029705Y-9638174D02*
X6029705Y-9685793D01*
X6029705Y-9685793D02*
X6020182Y-9723889D01*
X6020182Y-9723889D02*
X6010658Y-9742936D01*
X6010658Y-9742936D02*
X6001134Y-9752460D01*
X6001134Y-9752460D02*
X5982086Y-9761984D01*
X5982086Y-9761984D02*
X5963039Y-9761984D01*
X5963039Y-9761984D02*
X5943991Y-9752460D01*
X5943991Y-9752460D02*
X5934467Y-9742936D01*
X5934467Y-9742936D02*
X5924943Y-9723889D01*
X5924943Y-9723889D02*
X5915420Y-9685793D01*
X5915420Y-9685793D02*
X5915420Y-9638174D01*
X5915420Y-9638174D02*
X5924943Y-9600079D01*
X5924943Y-9600079D02*
X5934467Y-9581031D01*
X5934467Y-9581031D02*
X5943991Y-9571508D01*
X5943991Y-9571508D02*
X5963039Y-9561984D01*
X6115420Y-9761984D02*
X6115420Y-9628650D01*
X6115420Y-9647698D02*
X6124943Y-9638174D01*
X6124943Y-9638174D02*
X6143991Y-9628650D01*
X6143991Y-9628650D02*
X6172563Y-9628650D01*
X6172563Y-9628650D02*
X6191610Y-9638174D01*
X6191610Y-9638174D02*
X6201134Y-9657222D01*
X6201134Y-9657222D02*
X6201134Y-9761984D01*
X6201134Y-9657222D02*
X6210658Y-9638174D01*
X6210658Y-9638174D02*
X6229705Y-9628650D01*
X6229705Y-9628650D02*
X6258277Y-9628650D01*
X6258277Y-9628650D02*
X6277324Y-9638174D01*
X6277324Y-9638174D02*
X6286848Y-9657222D01*
X6286848Y-9657222D02*
X6286848Y-9761984D01*
X6382086Y-9761984D02*
X6382086Y-9628650D01*
X6382086Y-9647698D02*
X6391610Y-9638174D01*
X6391610Y-9638174D02*
X6410658Y-9628650D01*
X6410658Y-9628650D02*
X6439229Y-9628650D01*
X6439229Y-9628650D02*
X6458277Y-9638174D01*
X6458277Y-9638174D02*
X6467801Y-9657222D01*
X6467801Y-9657222D02*
X6467801Y-9761984D01*
X6467801Y-9657222D02*
X6477324Y-9638174D01*
X6477324Y-9638174D02*
X6496372Y-9628650D01*
X6496372Y-9628650D02*
X6524943Y-9628650D01*
X6524943Y-9628650D02*
X6543991Y-9638174D01*
X6543991Y-9638174D02*
X6553515Y-9657222D01*
X6553515Y-9657222D02*
X6553515Y-9761984D01*
X6943991Y-9552460D02*
X6772563Y-9809603D01*
X7201134Y-9561984D02*
X7220182Y-9561984D01*
X7220182Y-9561984D02*
X7239229Y-9571508D01*
X7239229Y-9571508D02*
X7248753Y-9581031D01*
X7248753Y-9581031D02*
X7258277Y-9600079D01*
X7258277Y-9600079D02*
X7267801Y-9638174D01*
X7267801Y-9638174D02*
X7267801Y-9685793D01*
X7267801Y-9685793D02*
X7258277Y-9723889D01*
X7258277Y-9723889D02*
X7248753Y-9742936D01*
X7248753Y-9742936D02*
X7239229Y-9752460D01*
X7239229Y-9752460D02*
X7220182Y-9761984D01*
X7220182Y-9761984D02*
X7201134Y-9761984D01*
X7201134Y-9761984D02*
X7182086Y-9752460D01*
X7182086Y-9752460D02*
X7172563Y-9742936D01*
X7172563Y-9742936D02*
X7163039Y-9723889D01*
X7163039Y-9723889D02*
X7153515Y-9685793D01*
X7153515Y-9685793D02*
X7153515Y-9638174D01*
X7153515Y-9638174D02*
X7163039Y-9600079D01*
X7163039Y-9600079D02*
X7172563Y-9581031D01*
X7172563Y-9581031D02*
X7182086Y-9571508D01*
X7182086Y-9571508D02*
X7201134Y-9561984D01*
X7353515Y-9742936D02*
X7363039Y-9752460D01*
X7363039Y-9752460D02*
X7353515Y-9761984D01*
X7353515Y-9761984D02*
X7343991Y-9752460D01*
X7343991Y-9752460D02*
X7353515Y-9742936D01*
X7353515Y-9742936D02*
X7353515Y-9761984D01*
X7486848Y-9561984D02*
X7505896Y-9561984D01*
X7505896Y-9561984D02*
X7524944Y-9571508D01*
X7524944Y-9571508D02*
X7534467Y-9581031D01*
X7534467Y-9581031D02*
X7543991Y-9600079D01*
X7543991Y-9600079D02*
X7553515Y-9638174D01*
X7553515Y-9638174D02*
X7553515Y-9685793D01*
X7553515Y-9685793D02*
X7543991Y-9723889D01*
X7543991Y-9723889D02*
X7534467Y-9742936D01*
X7534467Y-9742936D02*
X7524944Y-9752460D01*
X7524944Y-9752460D02*
X7505896Y-9761984D01*
X7505896Y-9761984D02*
X7486848Y-9761984D01*
X7486848Y-9761984D02*
X7467801Y-9752460D01*
X7467801Y-9752460D02*
X7458277Y-9742936D01*
X7458277Y-9742936D02*
X7448753Y-9723889D01*
X7448753Y-9723889D02*
X7439229Y-9685793D01*
X7439229Y-9685793D02*
X7439229Y-9638174D01*
X7439229Y-9638174D02*
X7448753Y-9600079D01*
X7448753Y-9600079D02*
X7458277Y-9581031D01*
X7458277Y-9581031D02*
X7467801Y-9571508D01*
X7467801Y-9571508D02*
X7486848Y-9561984D01*
X7667801Y-9647698D02*
X7648753Y-9638174D01*
X7648753Y-9638174D02*
X7639229Y-9628650D01*
X7639229Y-9628650D02*
X7629706Y-9609603D01*
X7629706Y-9609603D02*
X7629706Y-9600079D01*
X7629706Y-9600079D02*
X7639229Y-9581031D01*
X7639229Y-9581031D02*
X7648753Y-9571508D01*
X7648753Y-9571508D02*
X7667801Y-9561984D01*
X7667801Y-9561984D02*
X7705896Y-9561984D01*
X7705896Y-9561984D02*
X7724944Y-9571508D01*
X7724944Y-9571508D02*
X7734467Y-9581031D01*
X7734467Y-9581031D02*
X7743991Y-9600079D01*
X7743991Y-9600079D02*
X7743991Y-9609603D01*
X7743991Y-9609603D02*
X7734467Y-9628650D01*
X7734467Y-9628650D02*
X7724944Y-9638174D01*
X7724944Y-9638174D02*
X7705896Y-9647698D01*
X7705896Y-9647698D02*
X7667801Y-9647698D01*
X7667801Y-9647698D02*
X7648753Y-9657222D01*
X7648753Y-9657222D02*
X7639229Y-9666746D01*
X7639229Y-9666746D02*
X7629706Y-9685793D01*
X7629706Y-9685793D02*
X7629706Y-9723889D01*
X7629706Y-9723889D02*
X7639229Y-9742936D01*
X7639229Y-9742936D02*
X7648753Y-9752460D01*
X7648753Y-9752460D02*
X7667801Y-9761984D01*
X7667801Y-9761984D02*
X7705896Y-9761984D01*
X7705896Y-9761984D02*
X7724944Y-9752460D01*
X7724944Y-9752460D02*
X7734467Y-9742936D01*
X7734467Y-9742936D02*
X7743991Y-9723889D01*
X7743991Y-9723889D02*
X7743991Y-9685793D01*
X7743991Y-9685793D02*
X7734467Y-9666746D01*
X7734467Y-9666746D02*
X7724944Y-9657222D01*
X7724944Y-9657222D02*
X7705896Y-9647698D01*
X7915420Y-9561984D02*
X7877325Y-9561984D01*
X7877325Y-9561984D02*
X7858277Y-9571508D01*
X7858277Y-9571508D02*
X7848753Y-9581031D01*
X7848753Y-9581031D02*
X7829706Y-9609603D01*
X7829706Y-9609603D02*
X7820182Y-9647698D01*
X7820182Y-9647698D02*
X7820182Y-9723889D01*
X7820182Y-9723889D02*
X7829706Y-9742936D01*
X7829706Y-9742936D02*
X7839229Y-9752460D01*
X7839229Y-9752460D02*
X7858277Y-9761984D01*
X7858277Y-9761984D02*
X7896372Y-9761984D01*
X7896372Y-9761984D02*
X7915420Y-9752460D01*
X7915420Y-9752460D02*
X7924944Y-9742936D01*
X7924944Y-9742936D02*
X7934467Y-9723889D01*
X7934467Y-9723889D02*
X7934467Y-9676270D01*
X7934467Y-9676270D02*
X7924944Y-9657222D01*
X7924944Y-9657222D02*
X7915420Y-9647698D01*
X7915420Y-9647698D02*
X7896372Y-9638174D01*
X7896372Y-9638174D02*
X7858277Y-9638174D01*
X7858277Y-9638174D02*
X7839229Y-9647698D01*
X7839229Y-9647698D02*
X7829706Y-9657222D01*
X7829706Y-9657222D02*
X7820182Y-9676270D01*
X8105896Y-9561984D02*
X8067801Y-9561984D01*
X8067801Y-9561984D02*
X8048753Y-9571508D01*
X8048753Y-9571508D02*
X8039229Y-9581031D01*
X8039229Y-9581031D02*
X8020182Y-9609603D01*
X8020182Y-9609603D02*
X8010658Y-9647698D01*
X8010658Y-9647698D02*
X8010658Y-9723889D01*
X8010658Y-9723889D02*
X8020182Y-9742936D01*
X8020182Y-9742936D02*
X8029706Y-9752460D01*
X8029706Y-9752460D02*
X8048753Y-9761984D01*
X8048753Y-9761984D02*
X8086848Y-9761984D01*
X8086848Y-9761984D02*
X8105896Y-9752460D01*
X8105896Y-9752460D02*
X8115420Y-9742936D01*
X8115420Y-9742936D02*
X8124944Y-9723889D01*
X8124944Y-9723889D02*
X8124944Y-9676270D01*
X8124944Y-9676270D02*
X8115420Y-9657222D01*
X8115420Y-9657222D02*
X8105896Y-9647698D01*
X8105896Y-9647698D02*
X8086848Y-9638174D01*
X8086848Y-9638174D02*
X8048753Y-9638174D01*
X8048753Y-9638174D02*
X8029706Y-9647698D01*
X8029706Y-9647698D02*
X8020182Y-9657222D01*
X8020182Y-9657222D02*
X8010658Y-9676270D01*
X8201134Y-9561984D02*
X8201134Y-9600079D01*
X8277325Y-9561984D02*
X8277325Y-9600079D01*
X8572563Y-9838174D02*
X8563039Y-9828650D01*
X8563039Y-9828650D02*
X8543991Y-9800079D01*
X8543991Y-9800079D02*
X8534468Y-9781031D01*
X8534468Y-9781031D02*
X8524944Y-9752460D01*
X8524944Y-9752460D02*
X8515420Y-9704841D01*
X8515420Y-9704841D02*
X8515420Y-9666746D01*
X8515420Y-9666746D02*
X8524944Y-9619127D01*
X8524944Y-9619127D02*
X8534468Y-9590555D01*
X8534468Y-9590555D02*
X8543991Y-9571508D01*
X8543991Y-9571508D02*
X8563039Y-9542936D01*
X8563039Y-9542936D02*
X8572563Y-9533412D01*
X8734468Y-9628650D02*
X8734468Y-9761984D01*
X8686849Y-9552460D02*
X8639230Y-9695317D01*
X8639230Y-9695317D02*
X8763039Y-9695317D01*
X8991611Y-9761984D02*
X8991611Y-9561984D01*
X9077325Y-9761984D02*
X9077325Y-9657222D01*
X9077325Y-9657222D02*
X9067801Y-9638174D01*
X9067801Y-9638174D02*
X9048753Y-9628650D01*
X9048753Y-9628650D02*
X9020182Y-9628650D01*
X9020182Y-9628650D02*
X9001134Y-9638174D01*
X9001134Y-9638174D02*
X8991611Y-9647698D01*
X9201134Y-9761984D02*
X9182087Y-9752460D01*
X9182087Y-9752460D02*
X9172563Y-9742936D01*
X9172563Y-9742936D02*
X9163039Y-9723889D01*
X9163039Y-9723889D02*
X9163039Y-9666746D01*
X9163039Y-9666746D02*
X9172563Y-9647698D01*
X9172563Y-9647698D02*
X9182087Y-9638174D01*
X9182087Y-9638174D02*
X9201134Y-9628650D01*
X9201134Y-9628650D02*
X9229706Y-9628650D01*
X9229706Y-9628650D02*
X9248753Y-9638174D01*
X9248753Y-9638174D02*
X9258277Y-9647698D01*
X9258277Y-9647698D02*
X9267801Y-9666746D01*
X9267801Y-9666746D02*
X9267801Y-9723889D01*
X9267801Y-9723889D02*
X9258277Y-9742936D01*
X9258277Y-9742936D02*
X9248753Y-9752460D01*
X9248753Y-9752460D02*
X9229706Y-9761984D01*
X9229706Y-9761984D02*
X9201134Y-9761984D01*
X9382087Y-9761984D02*
X9363039Y-9752460D01*
X9363039Y-9752460D02*
X9353515Y-9733412D01*
X9353515Y-9733412D02*
X9353515Y-9561984D01*
X9534468Y-9752460D02*
X9515420Y-9761984D01*
X9515420Y-9761984D02*
X9477325Y-9761984D01*
X9477325Y-9761984D02*
X9458277Y-9752460D01*
X9458277Y-9752460D02*
X9448753Y-9733412D01*
X9448753Y-9733412D02*
X9448753Y-9657222D01*
X9448753Y-9657222D02*
X9458277Y-9638174D01*
X9458277Y-9638174D02*
X9477325Y-9628650D01*
X9477325Y-9628650D02*
X9515420Y-9628650D01*
X9515420Y-9628650D02*
X9534468Y-9638174D01*
X9534468Y-9638174D02*
X9543992Y-9657222D01*
X9543992Y-9657222D02*
X9543992Y-9676270D01*
X9543992Y-9676270D02*
X9448753Y-9695317D01*
X9620182Y-9752460D02*
X9639230Y-9761984D01*
X9639230Y-9761984D02*
X9677325Y-9761984D01*
X9677325Y-9761984D02*
X9696373Y-9752460D01*
X9696373Y-9752460D02*
X9705896Y-9733412D01*
X9705896Y-9733412D02*
X9705896Y-9723889D01*
X9705896Y-9723889D02*
X9696373Y-9704841D01*
X9696373Y-9704841D02*
X9677325Y-9695317D01*
X9677325Y-9695317D02*
X9648753Y-9695317D01*
X9648753Y-9695317D02*
X9629706Y-9685793D01*
X9629706Y-9685793D02*
X9620182Y-9666746D01*
X9620182Y-9666746D02*
X9620182Y-9657222D01*
X9620182Y-9657222D02*
X9629706Y-9638174D01*
X9629706Y-9638174D02*
X9648753Y-9628650D01*
X9648753Y-9628650D02*
X9677325Y-9628650D01*
X9677325Y-9628650D02*
X9696373Y-9638174D01*
X9772563Y-9838174D02*
X9782087Y-9828650D01*
X9782087Y-9828650D02*
X9801134Y-9800079D01*
X9801134Y-9800079D02*
X9810658Y-9781031D01*
X9810658Y-9781031D02*
X9820182Y-9752460D01*
X9820182Y-9752460D02*
X9829706Y-9704841D01*
X9829706Y-9704841D02*
X9829706Y-9666746D01*
X9829706Y-9666746D02*
X9820182Y-9619127D01*
X9820182Y-9619127D02*
X9810658Y-9590555D01*
X9810658Y-9590555D02*
X9801134Y-9571508D01*
X9801134Y-9571508D02*
X9782087Y-9542936D01*
X9782087Y-9542936D02*
X9772563Y-9533412D01*
M02*
