M48
; DRILL file {KiCad 8.0.7} date 2025-04-02T16:36:20-0500
; FORMAT={-:-/ absolute / inch / decimal}
; #@! TF.CreationDate,2025-04-02T16:36:20-05:00
; #@! TF.GenerationSoftware,Kicad,Pcbnew,8.0.7
; #@! TF.FileFunction,Plated,1,2,PTH
FMAT,2
INCH
; #@! TA.AperFunction,Plated,PTH,ViaDrill
T1C0.0118
; #@! TA.AperFunction,Plated,PTH,ViaDrill
T2C0.0157
; #@! TA.AperFunction,Plated,PTH,ComponentDrill
T3C0.0394
; #@! TA.AperFunction,Plated,PTH,ComponentDrill
T4C0.0866
%
G90
G05
T1
X3.29Y-2.0
X3.84Y-2.01
X4.3337Y-2.5482
T2
X1.8898Y-2.3622
X2.1604Y-2.2982
X2.1604Y-2.6033
X2.1703Y-2.6427
X2.3967Y-2.6033
X2.4163Y-2.6427
X2.81Y-2.2589
X2.81Y-2.436
X2.8297Y-2.19
X3.0758Y-2.19
X3.0856Y-2.2589
X3.1348Y-2.377
X3.1447Y-2.6033
X3.1841Y-2.2687
X3.2234Y-2.5246
X3.2825Y-2.377
X3.3076Y-2.4528
X3.312Y-2.2687
X3.3317Y-2.5246
X3.4449Y-2.4783
X3.4793Y-2.3081
X3.5089Y-2.3573
X3.5354Y-2.626
X3.5778Y-2.3671
X3.6171Y-2.3081
X3.6368Y-2.2095
X3.6649Y-2.3548
X3.7047Y-2.3071
X3.7075Y-2.2082
X3.7549Y-2.5837
X3.7549Y-2.6329
X3.777Y-2.5222
X3.8361Y-2.5244
X3.8369Y-2.5869
X3.8533Y-2.6329
X3.8626Y-2.4071
X3.9291Y-2.1535
X3.9715Y-2.6329
X4.0042Y-2.6033
X4.0305Y-2.5738
X4.06Y-2.5443
X4.1781Y-2.0719
X4.2372Y-2.2687
X4.2372Y-2.3179
X4.2372Y-2.3573
X4.251Y-2.6624
X4.3002Y-1.8652
X4.4104Y-2.2687
X4.4144Y-2.062
X4.4833Y-2.4852
X4.4833Y-2.5246
X4.4872Y-2.3967
X4.5775Y-2.398
X4.5856Y-2.1604
X4.6095Y-2.4262
X4.6148Y-2.1981
X4.6231Y-2.2366
X4.6604Y-2.249
X4.678Y-2.2852
X4.6998Y-2.3179
X4.708Y-2.3654
T3
X1.9587Y-2.0288
X2.0571Y-2.0288
T4
X1.6142Y-1.8504
X1.6142Y-2.7559
X4.6457Y-1.8504
X4.6457Y-2.7559
M30
